<?xml version="1.0" encoding="utf-8" standalone="no"?>
<!DOCTYPE svg PUBLIC "-//W3C//DTD SVG 1.1//EN"
  "http://www.w3.org/Graphics/SVG/1.1/DTD/svg11.dtd">
<!-- Created with matplotlib (http://matplotlib.sourceforge.net/) -->
<svg height="432pt" version="1.1" viewBox="0 0 576 432" width="576pt" xmlns="http://www.w3.org/2000/svg" xmlns:xlink="http://www.w3.org/1999/xlink">
 <defs>
  <style type="text/css">
*{stroke-linecap:square;stroke-linejoin:round;}
  </style>
 </defs>
 <g id="figure_1">
  <g id="patch_1">
   <path d="
M0 432
L576 432
L576 0
L0 0
z
" style="fill:#ffffff;"/>
  </g>
  <g id="axes_1">
   <g id="patch_2">
    <path d="
M72 388.8
L518.4 388.8
L518.4 43.2
L72 43.2
z
" style="fill:#ffffff;"/>
   </g>
   <g id="line2d_1">
    <path clip-path="url(#p7ff5b81e1d)" d="
M72 337.539
L72.4464 337.738
L72.8928 337.876
L73.7856 338.819
L74.232 339.032
L74.6784 338.657
L75.1248 338.468
L75.5712 338.458
L76.0176 338.975
L76.464 340.046
L77.3568 339.611
L77.8032 339.795
L78.2496 339.71
L78.696 339.423
L79.1424 338.695
L79.5888 339.208
L80.0352 339.935
L80.4816 339.787
L80.928 340.156
L81.8208 341.235
L82.2672 340.672
L82.7136 340.496
L83.6064 340.616
L84.0528 339.374
L84.4992 338.476
L84.9456 337.999
L85.392 338.001
L85.8384 337.116
L86.2848 337.198
L87.1776 336.872
L87.624 337.446
L88.5168 336.682
L89.4096 338.421
L89.856 339.163
L90.3024 340.123
L90.7488 340.16
L91.1952 339.993
L91.6416 339.422
L92.088 339.071
L92.5344 339.163
L92.9808 338.51
L93.4272 337.605
L93.8736 337.499
L94.32 337.115
L94.7664 338.052
L95.2128 337.897
L95.6592 338.619
L96.1056 338.54
L96.9984 338.151
L97.4448 339.202
L97.8912 339.945
L98.3376 339.961
L98.784 339.316
L99.6768 338.806
L100.123 339.217
L100.57 339.785
L101.016 341.232
L101.462 341.34
L101.909 341.241
L102.355 341.464
L103.694 343.171
L104.141 343.431
L104.587 344.303
L105.034 344.209
L105.48 344.567
L105.926 344.541
L106.819 342.472
L107.266 342.916
L107.712 342.776
L108.158 343.189
L108.605 343.258
L109.051 344.019
L109.498 343.156
L109.944 343.739
L110.39 343.098
L110.837 342.756
L111.283 341.796
L111.73 341.737
L112.176 340.607
L112.622 339.926
L113.069 340.262
L113.515 340.034
L113.962 339.935
L114.408 340.71
L114.854 340.628
L115.301 340.864
L115.747 339.762
L116.194 340.205
L116.64 340.141
L117.533 339.085
L117.979 340.132
L118.426 340.789
L118.872 342.587
L119.318 343.111
L120.211 343.625
L120.658 343.481
L121.104 344.234
L121.55 343.737
L121.997 343.968
L122.443 344.329
L122.89 342.791
L123.782 344.084
L124.229 342.849
L125.568 342.402
L126.014 341.52
L126.461 342.549
L126.907 342.06
L127.8 340.64
L128.246 339.434
L128.693 339.823
L129.139 339.32
L129.586 340.573
L130.032 341.207
L130.925 343.066
L131.371 342.354
L131.818 342.129
L132.264 341.682
L132.71 342.461
L133.603 342.404
L134.05 342.534
L134.496 343.16
L134.942 342.186
L135.389 342.691
L135.835 342.152
L136.282 340.892
L137.174 341.908
L137.621 341.218
L138.067 342.079
L138.96 342.795
L139.406 337.074
L139.853 333.501
L140.299 331.134
L140.746 326.428
L141.192 323.248
L141.638 318.255
L142.085 315.116
L142.978 307.755
L143.87 303.045
L144.317 298.625
L145.21 292.93
L145.656 290.623
L146.102 286.521
L146.549 283.644
L146.995 282.14
L147.442 278.762
L147.888 277.023
L149.227 268.58
L149.674 266.945
L150.566 261.125
L151.459 258.099
L151.906 255.007
L152.352 252.984
L153.245 251.489
L153.691 249.305
L155.477 242.635
L156.37 238.915
L156.816 237.364
L157.262 237.158
L158.155 233.675
L159.048 229.618
L159.494 226.321
L159.941 224.963
L160.387 221.856
L162.173 214.893
L162.619 212.2
L163.066 211.403
L163.512 209.844
L163.958 207.495
L164.405 207.45
L165.298 204.224
L166.637 200.537
L167.083 198.583
L167.976 197.272
L168.422 194.237
L169.315 190.279
L169.762 189.093
L170.208 188.374
L170.654 187.909
L171.101 185.644
L171.547 186.19
L171.994 185.72
L173.333 182.252
L173.779 180.477
L174.226 180.652
L174.672 180.568
L175.118 181.034
L175.565 180.42
L176.458 177.084
L177.35 174.098
L177.797 174.784
L178.243 174.415
L179.136 171.704
L179.582 169.508
L180.029 169.454
L180.475 169.908
L181.368 167.686
L181.814 166.245
L182.261 165.832
L182.707 164.431
L183.154 164.56
L183.6 162.715
L184.046 161.766
L184.939 158.796
L185.386 157.457
L185.832 156.606
L186.278 157.451
L186.725 156.537
L187.171 155.013
L187.618 154.531
L188.064 153.777
L188.51 153.491
L189.403 151.999
L189.85 150.913
L190.742 146.932
L191.189 146.447
L192.082 144.094
L192.528 144.079
L193.421 142.903
L193.867 143.016
L194.314 142.456
L194.76 141.332
L195.206 141.472
L196.099 139.621
L196.546 138.994
L196.992 138.141
L197.438 138.428
L197.885 137.914
L198.331 136.968
L198.778 135.027
L199.224 134.48
L199.67 134.236
L200.117 133.027
L200.563 132.468
L201.902 132.207
L202.795 130.413
L203.242 130.81
L203.688 130.792
L204.134 130.032
L205.027 127.862
L205.474 127.282
L206.366 124.602
L207.259 124.463
L208.152 121.811
L208.598 121.961
L209.491 121.632
L209.938 121.696
L210.83 120.403
L211.277 118.653
L211.723 118.142
L212.616 118.165
L213.062 116.951
L213.509 117.432
L213.955 117.061
L214.402 115.759
L214.848 115.808
L215.294 115.994
L215.741 114.835
L216.187 114.42
L216.634 114.367
L217.526 113.506
L218.419 112.3
L218.866 111.151
L219.758 109.657
L220.205 110.092
L220.651 109.901
L221.098 108.205
L221.544 108.649
L222.883 107.998
L223.33 107.56
L223.776 107.914
L224.222 106.739
L225.115 105.417
L225.562 106.35
L226.008 106.304
L226.454 106.664
L226.901 107.49
L227.347 108.937
L227.794 109.102
L228.24 109.571
L228.686 108.41
L229.133 108.236
L230.026 106.329
L230.472 106.468
L230.918 106.045
L231.365 106.665
L231.811 106.472
L232.258 105.668
L232.704 105.393
L233.15 105.434
L233.597 105.056
L234.043 105.758
L234.49 105.165
L234.936 104.887
L235.382 104.988
L235.829 104.315
L236.275 103.044
L236.722 104.02
L237.614 105.491
L238.061 105.469
L238.507 105.066
L238.954 104.899
L239.4 105.013
L239.846 105.389
L240.293 106.448
L240.739 106.749
L241.186 106.644
L241.632 104.876
L242.078 105.386
L242.525 106.11
L242.971 105.919
L243.418 105.922
L243.864 106.426
L244.31 106.553
L244.757 106.107
L245.203 107.503
L245.65 107.013
L246.096 105.989
L246.989 105.876
L247.435 105.217
L247.882 105.174
L248.328 105.56
L248.774 104.805
L249.221 106.053
L249.667 105.609
L250.114 105.396
L250.56 103.361
L251.006 102.221
L251.453 103.715
L252.346 102.303
L252.792 102.734
L253.238 102.858
L253.685 103.255
L254.131 102.319
L255.024 99.4187
L255.47 98.8265
L256.363 98.8146
L256.81 98.405
L257.256 98.4636
L257.702 98.0661
L258.149 98.0756
L258.595 96.5004
L259.042 95.9921
L259.488 97.041
L260.381 94.9514
L260.827 93.4624
L261.274 93.7631
L261.72 93.8567
L262.613 92.4994
L263.506 91.8527
L263.952 91.242
L264.398 91.279
L264.845 92.0696
L265.291 91.7714
L265.738 92.1962
L266.184 92.2426
L266.63 91.4918
L267.077 92.1074
L267.523 91.4065
L267.97 91.2141
L268.416 91.4853
L268.862 92.3105
L269.309 91.7492
L269.755 91.434
L270.202 90.6593
L271.094 90.3856
L271.541 89.2634
L271.987 89.439
L272.434 88.5007
L272.88 88.7385
L273.326 87.9156
L273.773 88.6412
L274.219 88.832
L274.666 88.3075
L275.112 87.214
L275.558 86.8124
L276.005 87.1295
L276.898 87.0792
L277.344 86.6391
L277.79 86.7081
L278.683 85.5167
L279.13 84.93
L279.576 84.8226
L280.022 85.3162
L280.469 84.8739
L280.915 84.8245
L281.362 85.1436
L281.808 84.0817
L282.254 84.5492
L282.701 84.6015
L283.147 84.1234
L283.594 84.2906
L284.04 85.3364
L284.486 85.4592
L284.933 83.8836
L285.379 84.8347
L285.826 85.2693
L286.718 85.0047
L287.165 83.3473
L287.611 83.7799
L288.058 83.3816
L288.504 82.7683
L289.397 82.1674
L290.29 82.4342
L290.736 84.2176
L291.182 84.8526
L292.075 83.6485
L292.522 84.1545
L292.968 84.0116
L293.414 83.5532
L293.861 84.4559
L294.307 82.0249
L294.754 82.8132
L295.2 82.88
L296.093 84.6086
L296.539 84.4731
L296.986 84.7135
L297.432 84.028
L297.878 84.8187
L298.771 84.448
L299.218 86.2401
L299.664 86.0377
L300.11 85.3551
L300.557 83.9454
L301.003 84.3495
L301.45 84.3356
L301.896 84.1323
L302.342 83.555
L302.789 85.4867
L303.235 85.7051
L303.682 86.07
L305.021 85.7054
L305.467 85.8728
L305.914 85.8846
L306.36 84.9988
L306.806 83.0809
L307.253 82.5597
L308.146 82.6293
L308.592 83.1146
L309.038 83.1396
L309.485 81.8015
L309.931 81.6398
L310.378 80.5149
L310.824 80.8957
L311.717 80.0368
L312.163 80.0177
L312.61 80.3569
L313.056 80.873
L313.502 80.502
L313.949 81.276
L314.395 81.1239
L314.842 81.5499
L315.734 83.4402
L316.181 83.6568
L316.627 82.8631
L317.074 82.6344
L317.52 83.1279
L317.966 85.0681
L318.413 84.4073
L318.859 84.6754
L319.752 82.7386
L320.645 83.5098
L321.091 83.5904
L321.984 82.1941
L322.43 81.3457
L322.877 80.9616
L323.323 81.7815
L323.77 81.4389
L324.216 81.3765
L324.662 81.034
L325.109 79.5674
L325.555 78.7866
L326.002 78.5808
L326.894 80.629
L327.341 81.0184
L327.787 79.6483
L328.234 80.0195
L328.68 80.1754
L329.126 79.2061
L329.573 79.1782
L330.019 78.8484
L330.912 79.447
L331.358 80.5755
L331.805 80.415
L332.251 80.8178
L332.698 82.1144
L333.144 82.862
L333.59 84.1988
L334.93 83.0598
L335.376 84.6707
L335.822 85.4855
L336.269 85.0362
L336.715 85.5078
L337.162 83.43
L337.608 83.835
L338.054 83.3461
L338.501 81.7709
L338.947 81.037
L339.394 81.9285
L339.84 81.7361
L340.733 80.2675
L341.179 80.1807
L341.626 78.624
L342.072 78.4601
L342.965 79.9271
L344.304 77.648
L345.197 78.5708
L345.643 77.8328
L346.09 76.7704
L346.536 77.4668
L346.982 77.4922
L347.429 78.2052
L347.875 77.4521
L348.322 77.7481
L348.768 78.9103
L349.214 78.8321
L349.661 78.5224
L350.107 77.5367
L350.554 77.7493
L351 77.7325
L351.446 76.4415
L352.339 74.9982
L352.786 74.7257
L353.232 75.07
L353.678 74.6576
L354.125 74.7974
L354.571 74.3034
L355.018 74.9683
L355.464 75.1839
L355.91 74.5827
L356.357 74.5188
L356.803 75.457
L357.25 75.0088
L357.696 74.3821
L358.142 73.3789
L358.589 74.8717
L359.035 75.1477
L359.482 74.8463
L359.928 74.9911
L360.374 73.8962
L360.821 74.1679
L361.267 73.9811
L361.714 73.0499
L362.16 72.9839
L363.053 81.8626
L363.499 86.0354
L364.838 95.1132
L365.731 102.32
L366.624 108.164
L367.07 110.477
L370.642 137.076
L371.088 138.717
L371.534 141.887
L371.981 144.034
L374.213 157.083
L375.106 161.652
L375.552 162.861
L376.445 167.491
L376.891 170.868
L377.338 172.596
L377.784 175.395
L378.23 176.904
L378.677 177.547
L379.57 181.515
L380.016 183.642
L380.462 184.804
L380.909 187.677
L381.355 188.138
L381.802 189.195
L382.248 189.136
L383.141 193.301
L383.587 194.892
L384.926 196.427
L385.373 197.896
L385.819 198.051
L386.266 199.52
L386.712 200.154
L387.158 200.594
L387.605 201.462
L388.051 202.051
L388.498 203.724
L388.944 206.084
L389.39 206.552
L389.837 207.989
L390.283 208.858
L390.73 208.139
L391.176 210.6
L391.622 211.554
L392.515 213.791
L392.962 214.866
L393.854 217.865
L394.747 220.969
L395.194 221.91
L395.64 223.641
L396.086 224.442
L396.533 224.987
L396.979 227.057
L397.872 229.279
L398.318 230.017
L399.211 234.19
L399.658 235.585
L400.104 236.137
L400.55 238.111
L400.997 239.229
L401.443 241.685
L401.89 243.101
L402.336 243.683
L402.782 244.609
L403.229 244.82
L404.122 247.004
L404.568 248.779
L405.014 250.004
L405.461 250.104
L405.907 249.71
L406.354 249.793
L406.8 250.496
L407.246 251.52
L407.693 251.673
L408.586 254.611
L409.032 254.968
L409.478 255.826
L409.925 257.689
L410.371 257.942
L410.818 257.82
L411.264 258.146
L411.71 259.03
L412.157 257.919
L413.05 259.566
L413.496 261.401
L413.942 261.524
L415.282 265.072
L415.728 265.493
L416.174 265.154
L416.621 265.76
L417.067 267.521
L418.406 269.294
L418.853 269.416
L419.299 271.139
L419.746 271.395
L420.192 271.881
L420.638 272.564
L421.085 272.836
L421.978 275.642
L423.317 277.127
L423.763 276.557
L424.21 276.993
L424.656 276.313
L425.102 276.694
L425.995 278.357
L426.442 278.624
L426.888 279.905
L427.334 280.709
L427.781 279.86
L428.227 281.686
L428.674 281.627
L429.12 281.785
L429.566 282.524
L430.013 282.879
L430.459 284.231
L430.906 284.815
L431.352 284.967
L431.798 285.534
L432.245 285.587
L432.691 284.334
L433.138 285.775
L433.584 286.514
L434.03 286.614
L434.477 287.594
L434.923 287.694
L435.37 289.173
L435.816 290.013
L436.262 289.988
L436.709 290.33
L437.155 290.474
L437.602 290.742
L438.494 292.976
L438.941 292.976
L439.387 292.664
L440.28 295.65
L440.726 295.788
L441.173 296.093
L441.619 297.359
L442.512 298.64
L442.958 299.138
L443.851 297.971
L444.298 300.513
L444.744 299.872
L445.637 301.312
L446.083 301.039
L446.53 302.052
L446.976 303.52
L447.422 304.189
L447.869 303.902
L448.315 304.631
L448.762 303.281
L449.208 302.718
L449.654 302.475
L450.101 302.022
L450.547 302.222
L450.994 301.735
L451.44 301.867
L451.886 302.192
L452.333 303.616
L453.226 303.661
L454.118 302.469
L454.565 303.536
L455.011 304.204
L455.458 303.796
L455.904 305.199
L456.35 305.62
L456.797 304.849
L457.243 304.677
L457.69 305.061
L458.136 305.779
L458.582 306.055
L459.029 305.356
L459.475 307.151
L459.922 308.131
L460.368 308.092
L460.814 309.526
L461.261 310.205
L462.154 309.274
L463.046 311.255
L463.493 311.255
L463.939 311.665
L464.386 311.442
L465.278 310.174
L466.618 313.669
L467.064 313.401
L467.51 314.04
L467.957 313.827
L468.403 313.862
L468.85 315.839
L469.296 315.942
L469.742 314.282
L470.189 313.854
L470.635 314.784
L471.082 313.712
L471.528 314.306
L471.974 313.852
L472.421 314.684
L472.867 314.189
L473.314 314.878
L473.76 315.291
L474.206 316.72
L474.653 316.281
L475.099 315.545
L475.546 316.27
L476.438 318.567
L476.885 318.174
L477.331 318.502
L477.778 318.197
L478.224 317.55
L478.67 316.643
L479.117 316.794
L479.563 316.241
L480.01 316.04
L480.456 316.182
L480.902 315.689
L481.349 317.329
L481.795 318.472
L482.242 319.251
L482.688 319.116
L483.134 318.185
L483.581 318.786
L484.027 317.984
L484.474 317.85
L484.92 318.067
L485.366 319.041
L485.813 319.096
L486.259 318.968
L486.706 319.317
L487.598 320.378
L488.045 320.323
L488.491 320.44
L488.938 321.273
L489.384 321.521
L489.83 320.214
L490.277 321.227
L490.723 321.257
L491.17 322.068
L491.616 320.71
L492.062 320.297
L492.509 320.239
L494.741 323.961
L495.187 322.966
L495.634 322.868
L496.08 323.324
L496.526 322.64
L496.973 323.17
L497.866 323.064
L498.312 322.897
L498.758 322.129
L499.205 322.849
L499.651 324.13
L500.098 324.611
L500.544 325.348
L500.99 325.401
L501.437 325.845
L501.883 324.824
L502.33 324.689
L503.222 326.308
L503.669 328.048
L504.115 327.99
L505.008 326.659
L506.347 328.385
L506.794 328.665
L507.24 327.97
L507.686 326.582
L508.579 327.21
L509.026 326.71
L510.365 326.048
L510.811 325.453
L511.258 325.744
L511.704 326.17
L512.15 326.366
L512.597 327.289
L513.043 327.417
L513.49 328.123
L513.936 327.924
L514.382 328.5
L514.829 329.294
L515.275 330.46
L515.722 330.894
L516.168 330.891
L516.614 331.406
L517.061 332.472
L517.507 332.357
L517.954 331.246
L517.954 331.246" style="fill:none;stroke:#0000ff;"/>
   </g>
   <g id="line2d_2">
    <path clip-path="url(#p7ff5b81e1d)" d="
M72 339.429
L138.96 339.429
L140.299 327.218
L142.085 313.006
L144.317 297.249
L146.549 283.209
L148.781 270.567
L151.013 259.097
L153.245 248.627
L155.923 237.19
L158.602 226.805
L161.28 217.323
L163.958 208.624
L166.637 200.612
L169.762 192.026
L172.886 184.163
L176.011 176.937
L179.136 170.277
L182.261 164.126
L185.386 158.431
L188.51 153.151
L192.082 147.575
L195.653 142.442
L199.224 137.71
L202.795 133.341
L206.366 129.305
L209.938 125.571
L213.955 121.699
L217.973 118.146
L221.99 114.882
L226.008 111.881
L230.472 108.827
L234.936 106.041
L239.846 103.256
L244.757 100.735
L249.667 98.4513
L255.024 96.203
L260.827 94.0231
L266.63 92.0795
L272.88 90.2203
L279.576 88.4651
L286.718 86.8287
L294.307 85.3211
L302.342 83.9479
L311.27 82.6512
L321.091 81.4584
L331.805 80.3879
L343.858 79.4168
L357.25 78.5676
L362.16 78.3061
L363.499 90.4492
L365.285 104.574
L367.517 120.226
L369.749 134.166
L371.981 146.712
L374.213 158.089
L376.445 168.47
L379.123 179.806
L381.802 190.094
L384.48 199.484
L387.158 208.096
L389.837 216.025
L392.515 223.351
L395.64 231.225
L398.765 238.455
L401.89 245.113
L405.014 251.26
L408.139 256.948
L411.264 262.22
L414.835 267.784
L418.406 272.904
L421.978 277.623
L425.549 281.977
L429.12 285.999
L432.691 289.719
L436.709 293.575
L440.726 297.112
L444.744 300.362
L448.762 303.348
L453.226 306.387
L457.69 309.158
L462.6 311.928
L467.51 314.435
L472.421 316.706
L477.778 318.941
L483.581 321.107
L489.384 323.038
L495.634 324.885
L502.33 326.629
L509.472 328.254
L517.061 329.751
L517.954 329.913
L517.954 329.913" style="fill:none;stroke:#008000;"/>
   </g>
   <g id="matplotlib.axis_1">
    <g id="xtick_1">
     <g id="line2d_3">
      <defs>
       <path d="
M0 0
L0 -4" id="m0012dd4eef" style="stroke:#000000;stroke-linecap:butt;stroke-width:0.5;"/>
      </defs>
      <g>
       <use style="stroke:#000000;stroke-linecap:butt;stroke-width:0.5;" x="72.0" xlink:href="#m0012dd4eef" y="388.8"/>
      </g>
     </g>
     <g id="line2d_4">
      <defs>
       <path d="
M0 0
L0 4" id="m476344969c" style="stroke:#000000;stroke-linecap:butt;stroke-width:0.5;"/>
      </defs>
      <g>
       <use style="stroke:#000000;stroke-linecap:butt;stroke-width:0.5;" x="72.0" xlink:href="#m476344969c" y="43.2"/>
      </g>
     </g>
     <g id="text_1">
      <!-- 0 -->
      <defs>
       <path d="
M31.7812 66.4062
Q24.1719 66.4062 20.3281 58.9062
Q16.5 51.4219 16.5 36.375
Q16.5 21.3906 20.3281 13.8906
Q24.1719 6.39062 31.7812 6.39062
Q39.4531 6.39062 43.2812 13.8906
Q47.125 21.3906 47.125 36.375
Q47.125 51.4219 43.2812 58.9062
Q39.4531 66.4062 31.7812 66.4062
M31.7812 74.2188
Q44.0469 74.2188 50.5156 64.5156
Q56.9844 54.8281 56.9844 36.375
Q56.9844 17.9688 50.5156 8.26562
Q44.0469 -1.42188 31.7812 -1.42188
Q19.5312 -1.42188 13.0625 8.26562
Q6.59375 17.9688 6.59375 36.375
Q6.59375 54.8281 13.0625 64.5156
Q19.5312 74.2188 31.7812 74.2188" id="DejaVuSans-30"/>
      </defs>
      <g transform="translate(68.9765625 401.70625)scale(0.12 -0.12)">
       <use xlink:href="#DejaVuSans-30"/>
      </g>
     </g>
    </g>
    <g id="xtick_2">
     <g id="line2d_5">
      <g>
       <use style="stroke:#000000;stroke-linecap:butt;stroke-width:0.5;" x="161.28" xlink:href="#m0012dd4eef" y="388.8"/>
      </g>
     </g>
     <g id="line2d_6">
      <g>
       <use style="stroke:#000000;stroke-linecap:butt;stroke-width:0.5;" x="161.28" xlink:href="#m476344969c" y="43.2"/>
      </g>
     </g>
     <g id="text_2">
      <!-- 200 -->
      <defs>
       <path d="
M19.1875 8.29688
L53.6094 8.29688
L53.6094 0
L7.32812 0
L7.32812 8.29688
Q12.9375 14.1094 22.625 23.8906
Q32.3281 33.6875 34.8125 36.5312
Q39.5469 41.8438 41.4219 45.5312
Q43.3125 49.2188 43.3125 52.7812
Q43.3125 58.5938 39.2344 62.25
Q35.1562 65.9219 28.6094 65.9219
Q23.9688 65.9219 18.8125 64.3125
Q13.6719 62.7031 7.8125 59.4219
L7.8125 69.3906
Q13.7656 71.7812 18.9375 73
Q24.125 74.2188 28.4219 74.2188
Q39.75 74.2188 46.4844 68.5469
Q53.2188 62.8906 53.2188 53.4219
Q53.2188 48.9219 51.5312 44.8906
Q49.8594 40.875 45.4062 35.4062
Q44.1875 33.9844 37.6406 27.2188
Q31.1094 20.4531 19.1875 8.29688" id="DejaVuSans-32"/>
      </defs>
      <g transform="translate(150.665625 401.70625)scale(0.12 -0.12)">
       <use xlink:href="#DejaVuSans-32"/>
       <use x="63.623046875" xlink:href="#DejaVuSans-30"/>
       <use x="127.24609375" xlink:href="#DejaVuSans-30"/>
      </g>
     </g>
    </g>
    <g id="xtick_3">
     <g id="line2d_7">
      <g>
       <use style="stroke:#000000;stroke-linecap:butt;stroke-width:0.5;" x="250.56" xlink:href="#m0012dd4eef" y="388.8"/>
      </g>
     </g>
     <g id="line2d_8">
      <g>
       <use style="stroke:#000000;stroke-linecap:butt;stroke-width:0.5;" x="250.56" xlink:href="#m476344969c" y="43.2"/>
      </g>
     </g>
     <g id="text_3">
      <!-- 400 -->
      <defs>
       <path d="
M37.7969 64.3125
L12.8906 25.3906
L37.7969 25.3906
z

M35.2031 72.9062
L47.6094 72.9062
L47.6094 25.3906
L58.0156 25.3906
L58.0156 17.1875
L47.6094 17.1875
L47.6094 0
L37.7969 0
L37.7969 17.1875
L4.89062 17.1875
L4.89062 26.7031
z
" id="DejaVuSans-34"/>
      </defs>
      <g transform="translate(239.799375 401.70625)scale(0.12 -0.12)">
       <use xlink:href="#DejaVuSans-34"/>
       <use x="63.623046875" xlink:href="#DejaVuSans-30"/>
       <use x="127.24609375" xlink:href="#DejaVuSans-30"/>
      </g>
     </g>
    </g>
    <g id="xtick_4">
     <g id="line2d_9">
      <g>
       <use style="stroke:#000000;stroke-linecap:butt;stroke-width:0.5;" x="339.84" xlink:href="#m0012dd4eef" y="388.8"/>
      </g>
     </g>
     <g id="line2d_10">
      <g>
       <use style="stroke:#000000;stroke-linecap:butt;stroke-width:0.5;" x="339.84" xlink:href="#m476344969c" y="43.2"/>
      </g>
     </g>
     <g id="text_4">
      <!-- 600 -->
      <defs>
       <path d="
M33.0156 40.375
Q26.375 40.375 22.4844 35.8281
Q18.6094 31.2969 18.6094 23.3906
Q18.6094 15.5312 22.4844 10.9531
Q26.375 6.39062 33.0156 6.39062
Q39.6562 6.39062 43.5312 10.9531
Q47.4062 15.5312 47.4062 23.3906
Q47.4062 31.2969 43.5312 35.8281
Q39.6562 40.375 33.0156 40.375
M52.5938 71.2969
L52.5938 62.3125
Q48.875 64.0625 45.0938 64.9844
Q41.3125 65.9219 37.5938 65.9219
Q27.8281 65.9219 22.6719 59.3281
Q17.5312 52.7344 16.7969 39.4062
Q19.6719 43.6562 24.0156 45.9219
Q28.375 48.1875 33.5938 48.1875
Q44.5781 48.1875 50.9531 41.5156
Q57.3281 34.8594 57.3281 23.3906
Q57.3281 12.1562 50.6875 5.35938
Q44.0469 -1.42188 33.0156 -1.42188
Q20.3594 -1.42188 13.6719 8.26562
Q6.98438 17.9688 6.98438 36.375
Q6.98438 53.6562 15.1875 63.9375
Q23.3906 74.2188 37.2031 74.2188
Q40.9219 74.2188 44.7031 73.4844
Q48.4844 72.75 52.5938 71.2969" id="DejaVuSans-36"/>
      </defs>
      <g transform="translate(329.205 401.70625)scale(0.12 -0.12)">
       <use xlink:href="#DejaVuSans-36"/>
       <use x="63.623046875" xlink:href="#DejaVuSans-30"/>
       <use x="127.24609375" xlink:href="#DejaVuSans-30"/>
      </g>
     </g>
    </g>
    <g id="xtick_5">
     <g id="line2d_11">
      <g>
       <use style="stroke:#000000;stroke-linecap:butt;stroke-width:0.5;" x="429.12" xlink:href="#m0012dd4eef" y="388.8"/>
      </g>
     </g>
     <g id="line2d_12">
      <g>
       <use style="stroke:#000000;stroke-linecap:butt;stroke-width:0.5;" x="429.12" xlink:href="#m476344969c" y="43.2"/>
      </g>
     </g>
     <g id="text_5">
      <!-- 800 -->
      <defs>
       <path d="
M31.7812 34.625
Q24.75 34.625 20.7188 30.8594
Q16.7031 27.0938 16.7031 20.5156
Q16.7031 13.9219 20.7188 10.1562
Q24.75 6.39062 31.7812 6.39062
Q38.8125 6.39062 42.8594 10.1719
Q46.9219 13.9688 46.9219 20.5156
Q46.9219 27.0938 42.8906 30.8594
Q38.875 34.625 31.7812 34.625
M21.9219 38.8125
Q15.5781 40.375 12.0312 44.7188
Q8.5 49.0781 8.5 55.3281
Q8.5 64.0625 14.7188 69.1406
Q20.9531 74.2188 31.7812 74.2188
Q42.6719 74.2188 48.875 69.1406
Q55.0781 64.0625 55.0781 55.3281
Q55.0781 49.0781 51.5312 44.7188
Q48 40.375 41.7031 38.8125
Q48.8281 37.1562 52.7969 32.3125
Q56.7812 27.4844 56.7812 20.5156
Q56.7812 9.90625 50.3125 4.23438
Q43.8438 -1.42188 31.7812 -1.42188
Q19.7344 -1.42188 13.25 4.23438
Q6.78125 9.90625 6.78125 20.5156
Q6.78125 27.4844 10.7812 32.3125
Q14.7969 37.1562 21.9219 38.8125
M18.3125 54.3906
Q18.3125 48.7344 21.8438 45.5625
Q25.3906 42.3906 31.7812 42.3906
Q38.1406 42.3906 41.7188 45.5625
Q45.3125 48.7344 45.3125 54.3906
Q45.3125 60.0625 41.7188 63.2344
Q38.1406 66.4062 31.7812 66.4062
Q25.3906 66.4062 21.8438 63.2344
Q18.3125 60.0625 18.3125 54.3906" id="DejaVuSans-38"/>
      </defs>
      <g transform="translate(418.4728125 401.70625)scale(0.12 -0.12)">
       <use xlink:href="#DejaVuSans-38"/>
       <use x="63.623046875" xlink:href="#DejaVuSans-30"/>
       <use x="127.24609375" xlink:href="#DejaVuSans-30"/>
      </g>
     </g>
    </g>
    <g id="xtick_6">
     <g id="line2d_13">
      <g>
       <use style="stroke:#000000;stroke-linecap:butt;stroke-width:0.5;" x="518.4" xlink:href="#m0012dd4eef" y="388.8"/>
      </g>
     </g>
     <g id="line2d_14">
      <g>
       <use style="stroke:#000000;stroke-linecap:butt;stroke-width:0.5;" x="518.4" xlink:href="#m476344969c" y="43.2"/>
      </g>
     </g>
     <g id="text_6">
      <!-- 1000 -->
      <defs>
       <path d="
M12.4062 8.29688
L28.5156 8.29688
L28.5156 63.9219
L10.9844 60.4062
L10.9844 69.3906
L28.4219 72.9062
L38.2812 72.9062
L38.2812 8.29688
L54.3906 8.29688
L54.3906 0
L12.4062 0
z
" id="DejaVuSans-31"/>
      </defs>
      <g transform="translate(504.1875 401.70625)scale(0.12 -0.12)">
       <use xlink:href="#DejaVuSans-31"/>
       <use x="63.623046875" xlink:href="#DejaVuSans-30"/>
       <use x="127.24609375" xlink:href="#DejaVuSans-30"/>
       <use x="190.869140625" xlink:href="#DejaVuSans-30"/>
      </g>
     </g>
    </g>
    <g id="text_7">
     <!-- points -->
     <defs>
      <path d="
M30.6094 48.3906
Q23.3906 48.3906 19.1875 42.75
Q14.9844 37.1094 14.9844 27.2969
Q14.9844 17.4844 19.1562 11.8438
Q23.3438 6.20312 30.6094 6.20312
Q37.7969 6.20312 41.9844 11.8594
Q46.1875 17.5312 46.1875 27.2969
Q46.1875 37.0156 41.9844 42.7031
Q37.7969 48.3906 30.6094 48.3906
M30.6094 56
Q42.3281 56 49.0156 48.375
Q55.7188 40.7656 55.7188 27.2969
Q55.7188 13.875 49.0156 6.21875
Q42.3281 -1.42188 30.6094 -1.42188
Q18.8438 -1.42188 12.1719 6.21875
Q5.51562 13.875 5.51562 27.2969
Q5.51562 40.7656 12.1719 48.375
Q18.8438 56 30.6094 56" id="DejaVuSans-6f"/>
      <path d="
M54.8906 33.0156
L54.8906 0
L45.9062 0
L45.9062 32.7188
Q45.9062 40.4844 42.875 44.3281
Q39.8438 48.1875 33.7969 48.1875
Q26.5156 48.1875 22.3125 43.5469
Q18.1094 38.9219 18.1094 30.9062
L18.1094 0
L9.07812 0
L9.07812 54.6875
L18.1094 54.6875
L18.1094 46.1875
Q21.3438 51.125 25.7031 53.5625
Q30.0781 56 35.7969 56
Q45.2188 56 50.0469 50.1719
Q54.8906 44.3438 54.8906 33.0156" id="DejaVuSans-6e"/>
      <path d="
M9.42188 54.6875
L18.4062 54.6875
L18.4062 0
L9.42188 0
z

M9.42188 75.9844
L18.4062 75.9844
L18.4062 64.5938
L9.42188 64.5938
z
" id="DejaVuSans-69"/>
      <path d="
M18.3125 70.2188
L18.3125 54.6875
L36.8125 54.6875
L36.8125 47.7031
L18.3125 47.7031
L18.3125 18.0156
Q18.3125 11.3281 20.1406 9.42188
Q21.9688 7.51562 27.5938 7.51562
L36.8125 7.51562
L36.8125 0
L27.5938 0
Q17.1875 0 13.2344 3.875
Q9.28125 7.76562 9.28125 18.0156
L9.28125 47.7031
L2.6875 47.7031
L2.6875 54.6875
L9.28125 54.6875
L9.28125 70.2188
z
" id="DejaVuSans-74"/>
      <path d="
M18.1094 8.20312
L18.1094 -20.7969
L9.07812 -20.7969
L9.07812 54.6875
L18.1094 54.6875
L18.1094 46.3906
Q20.9531 51.2656 25.2656 53.625
Q29.5938 56 35.5938 56
Q45.5625 56 51.7812 48.0938
Q58.0156 40.1875 58.0156 27.2969
Q58.0156 14.4062 51.7812 6.48438
Q45.5625 -1.42188 35.5938 -1.42188
Q29.5938 -1.42188 25.2656 0.953125
Q20.9531 3.32812 18.1094 8.20312
M48.6875 27.2969
Q48.6875 37.2031 44.6094 42.8438
Q40.5312 48.4844 33.4062 48.4844
Q26.2656 48.4844 22.1875 42.8438
Q18.1094 37.2031 18.1094 27.2969
Q18.1094 17.3906 22.1875 11.75
Q26.2656 6.10938 33.4062 6.10938
Q40.5312 6.10938 44.6094 11.75
Q48.6875 17.3906 48.6875 27.2969" id="DejaVuSans-70"/>
      <path d="
M44.2812 53.0781
L44.2812 44.5781
Q40.4844 46.5312 36.375 47.5
Q32.2812 48.4844 27.875 48.4844
Q21.1875 48.4844 17.8438 46.4375
Q14.5 44.3906 14.5 40.2812
Q14.5 37.1562 16.8906 35.375
Q19.2812 33.5938 26.5156 31.9844
L29.5938 31.2969
Q39.1562 29.25 43.1875 25.5156
Q47.2188 21.7812 47.2188 15.0938
Q47.2188 7.46875 41.1875 3.01562
Q35.1562 -1.42188 24.6094 -1.42188
Q20.2188 -1.42188 15.4531 -0.5625
Q10.6875 0.296875 5.42188 2
L5.42188 11.2812
Q10.4062 8.6875 15.2344 7.39062
Q20.0625 6.10938 24.8125 6.10938
Q31.1562 6.10938 34.5625 8.28125
Q37.9844 10.4531 37.9844 14.4062
Q37.9844 18.0625 35.5156 20.0156
Q33.0625 21.9688 24.7031 23.7812
L21.5781 24.5156
Q13.2344 26.2656 9.51562 29.9062
Q5.8125 33.5469 5.8125 39.8906
Q5.8125 47.6094 11.2812 51.7969
Q16.75 56 26.8125 56
Q31.7812 56 36.1719 55.2656
Q40.5781 54.5469 44.2812 53.0781" id="DejaVuSans-73"/>
     </defs>
     <g transform="translate(277.6096875 415.995)scale(0.12 -0.12)">
      <use xlink:href="#DejaVuSans-70"/>
      <use x="63.4765625" xlink:href="#DejaVuSans-6f"/>
      <use x="124.658203125" xlink:href="#DejaVuSans-69"/>
      <use x="152.44140625" xlink:href="#DejaVuSans-6e"/>
      <use x="215.8203125" xlink:href="#DejaVuSans-74"/>
      <use x="255.029296875" xlink:href="#DejaVuSans-73"/>
     </g>
    </g>
   </g>
   <g id="matplotlib.axis_2">
    <g id="ytick_1">
     <g id="line2d_15">
      <defs>
       <path d="
M0 0
L4 0" id="me8a85f7bf6" style="stroke:#000000;stroke-linecap:butt;stroke-width:0.5;"/>
      </defs>
      <g>
       <use style="stroke:#000000;stroke-linecap:butt;stroke-width:0.5;" x="72.0" xlink:href="#me8a85f7bf6" y="388.8"/>
      </g>
     </g>
     <g id="line2d_16">
      <defs>
       <path d="
M0 0
L-4 0" id="m1a32005dea" style="stroke:#000000;stroke-linecap:butt;stroke-width:0.5;"/>
      </defs>
      <g>
       <use style="stroke:#000000;stroke-linecap:butt;stroke-width:0.5;" x="518.4" xlink:href="#m1a32005dea" y="388.8"/>
      </g>
     </g>
     <g id="text_8">
      <!-- −1 -->
      <defs>
       <path d="
M10.5938 35.5
L73.1875 35.5
L73.1875 27.2031
L10.5938 27.2031
z
" id="DejaVuSans-2212"/>
      </defs>
      <g transform="translate(52.68875 393.174375)scale(0.12 -0.12)">
       <use xlink:href="#DejaVuSans-2212"/>
       <use x="83.7890625" xlink:href="#DejaVuSans-31"/>
      </g>
     </g>
    </g>
    <g id="ytick_2">
     <g id="line2d_17">
      <g>
       <use style="stroke:#000000;stroke-linecap:butt;stroke-width:0.5;" x="72.0" xlink:href="#me8a85f7bf6" y="339.428571429"/>
      </g>
     </g>
     <g id="line2d_18">
      <g>
       <use style="stroke:#000000;stroke-linecap:butt;stroke-width:0.5;" x="518.4" xlink:href="#m1a32005dea" y="339.428571429"/>
      </g>
     </g>
     <g id="text_9">
      <!-- 0 -->
      <g transform="translate(61.953125 343.796383929)scale(0.12 -0.12)">
       <use xlink:href="#DejaVuSans-30"/>
      </g>
     </g>
    </g>
    <g id="ytick_3">
     <g id="line2d_19">
      <g>
       <use style="stroke:#000000;stroke-linecap:butt;stroke-width:0.5;" x="72.0" xlink:href="#me8a85f7bf6" y="290.057142857"/>
      </g>
     </g>
     <g id="line2d_20">
      <g>
       <use style="stroke:#000000;stroke-linecap:butt;stroke-width:0.5;" x="518.4" xlink:href="#m1a32005dea" y="290.057142857"/>
      </g>
     </g>
     <g id="text_10">
      <!-- 1 -->
      <g transform="translate(62.79125 294.431517857)scale(0.12 -0.12)">
       <use xlink:href="#DejaVuSans-31"/>
      </g>
     </g>
    </g>
    <g id="ytick_4">
     <g id="line2d_21">
      <g>
       <use style="stroke:#000000;stroke-linecap:butt;stroke-width:0.5;" x="72.0" xlink:href="#me8a85f7bf6" y="240.685714286"/>
      </g>
     </g>
     <g id="line2d_22">
      <g>
       <use style="stroke:#000000;stroke-linecap:butt;stroke-width:0.5;" x="518.4" xlink:href="#m1a32005dea" y="240.685714286"/>
      </g>
     </g>
     <g id="text_11">
      <!-- 2 -->
      <g transform="translate(62.44625 245.138839286)scale(0.12 -0.12)">
       <use xlink:href="#DejaVuSans-32"/>
      </g>
     </g>
    </g>
    <g id="ytick_5">
     <g id="line2d_23">
      <g>
       <use style="stroke:#000000;stroke-linecap:butt;stroke-width:0.5;" x="72.0" xlink:href="#me8a85f7bf6" y="191.314285714"/>
      </g>
     </g>
     <g id="line2d_24">
      <g>
       <use style="stroke:#000000;stroke-linecap:butt;stroke-width:0.5;" x="518.4" xlink:href="#m1a32005dea" y="191.314285714"/>
      </g>
     </g>
     <g id="text_12">
      <!-- 3 -->
      <defs>
       <path d="
M40.5781 39.3125
Q47.6562 37.7969 51.625 33
Q55.6094 28.2188 55.6094 21.1875
Q55.6094 10.4062 48.1875 4.48438
Q40.7656 -1.42188 27.0938 -1.42188
Q22.5156 -1.42188 17.6562 -0.515625
Q12.7969 0.390625 7.625 2.20312
L7.625 11.7188
Q11.7188 9.32812 16.5938 8.10938
Q21.4844 6.89062 26.8125 6.89062
Q36.0781 6.89062 40.9375 10.5469
Q45.7969 14.2031 45.7969 21.1875
Q45.7969 27.6406 41.2812 31.2656
Q36.7656 34.9062 28.7188 34.9062
L20.2188 34.9062
L20.2188 43.0156
L29.1094 43.0156
Q36.375 43.0156 40.2344 45.9219
Q44.0938 48.8281 44.0938 54.2969
Q44.0938 59.9062 40.1094 62.9062
Q36.1406 65.9219 28.7188 65.9219
Q24.6562 65.9219 20.0156 65.0312
Q15.375 64.1562 9.8125 62.3125
L9.8125 71.0938
Q15.4375 72.6562 20.3438 73.4375
Q25.25 74.2188 29.5938 74.2188
Q40.8281 74.2188 47.3594 69.1094
Q53.9062 64.0156 53.9062 55.3281
Q53.9062 49.2656 50.4375 45.0938
Q46.9688 40.9219 40.5781 39.3125" id="DejaVuSans-33"/>
      </defs>
      <g transform="translate(62.241875 195.682098214)scale(0.12 -0.12)">
       <use xlink:href="#DejaVuSans-33"/>
      </g>
     </g>
    </g>
    <g id="ytick_6">
     <g id="line2d_25">
      <g>
       <use style="stroke:#000000;stroke-linecap:butt;stroke-width:0.5;" x="72.0" xlink:href="#me8a85f7bf6" y="141.942857143"/>
      </g>
     </g>
     <g id="line2d_26">
      <g>
       <use style="stroke:#000000;stroke-linecap:butt;stroke-width:0.5;" x="518.4" xlink:href="#m1a32005dea" y="141.942857143"/>
      </g>
     </g>
     <g id="text_13">
      <!-- 4 -->
      <g transform="translate(61.625 146.317232143)scale(0.12 -0.12)">
       <use xlink:href="#DejaVuSans-34"/>
      </g>
     </g>
    </g>
    <g id="ytick_7">
     <g id="line2d_27">
      <g>
       <use style="stroke:#000000;stroke-linecap:butt;stroke-width:0.5;" x="72.0" xlink:href="#me8a85f7bf6" y="92.5714285714"/>
      </g>
     </g>
     <g id="line2d_28">
      <g>
       <use style="stroke:#000000;stroke-linecap:butt;stroke-width:0.5;" x="518.4" xlink:href="#m1a32005dea" y="92.5714285714"/>
      </g>
     </g>
     <g id="text_14">
      <!-- 5 -->
      <defs>
       <path d="
M10.7969 72.9062
L49.5156 72.9062
L49.5156 64.5938
L19.8281 64.5938
L19.8281 46.7344
Q21.9688 47.4688 24.1094 47.8281
Q26.2656 48.1875 28.4219 48.1875
Q40.625 48.1875 47.75 41.5
Q54.8906 34.8125 54.8906 23.3906
Q54.8906 11.625 47.5625 5.09375
Q40.2344 -1.42188 26.9062 -1.42188
Q22.3125 -1.42188 17.5469 -0.640625
Q12.7969 0.140625 7.71875 1.70312
L7.71875 11.625
Q12.1094 9.23438 16.7969 8.0625
Q21.4844 6.89062 26.7031 6.89062
Q35.1562 6.89062 40.0781 11.3281
Q45.0156 15.7656 45.0156 23.3906
Q45.0156 31 40.0781 35.4375
Q35.1562 39.8906 26.7031 39.8906
Q22.75 39.8906 18.8125 39.0156
Q14.8906 38.1406 10.7969 36.2812
z
" id="DejaVuSans-35"/>
      </defs>
      <g transform="translate(62.339375 96.8604910714)scale(0.12 -0.12)">
       <use xlink:href="#DejaVuSans-35"/>
      </g>
     </g>
    </g>
    <g id="ytick_8">
     <g id="line2d_29">
      <g>
       <use style="stroke:#000000;stroke-linecap:butt;stroke-width:0.5;" x="72.0" xlink:href="#me8a85f7bf6" y="43.2"/>
      </g>
     </g>
     <g id="line2d_30">
      <g>
       <use style="stroke:#000000;stroke-linecap:butt;stroke-width:0.5;" x="518.4" xlink:href="#m1a32005dea" y="43.2"/>
      </g>
     </g>
     <g id="text_15">
      <!-- 6 -->
      <g transform="translate(61.95875 47.5678125)scale(0.12 -0.12)">
       <use xlink:href="#DejaVuSans-36"/>
      </g>
     </g>
    </g>
    <g id="text_16">
     <!-- mV -->
     <defs>
      <path d="
M52 44.1875
Q55.375 50.25 60.0625 53.125
Q64.75 56 71.0938 56
Q79.6406 56 84.2812 50.0156
Q88.9219 44.0469 88.9219 33.0156
L88.9219 0
L79.8906 0
L79.8906 32.7188
Q79.8906 40.5781 77.0938 44.375
Q74.3125 48.1875 68.6094 48.1875
Q61.625 48.1875 57.5625 43.5469
Q53.5156 38.9219 53.5156 30.9062
L53.5156 0
L44.4844 0
L44.4844 32.7188
Q44.4844 40.625 41.7031 44.4062
Q38.9219 48.1875 33.1094 48.1875
Q26.2188 48.1875 22.1562 43.5312
Q18.1094 38.875 18.1094 30.9062
L18.1094 0
L9.07812 0
L9.07812 54.6875
L18.1094 54.6875
L18.1094 46.1875
Q21.1875 51.2188 25.4844 53.6094
Q29.7812 56 35.6875 56
Q41.6562 56 45.8281 52.9688
Q50 49.9531 52 44.1875" id="DejaVuSans-6d"/>
      <path d="
M28.6094 0
L0.78125 72.9062
L11.0781 72.9062
L34.1875 11.5312
L57.3281 72.9062
L67.5781 72.9062
L39.7969 0
z
" id="DejaVuSans-56"/>
     </defs>
     <g transform="translate(47.68875 225.354375)rotate(-90.0)scale(0.12 -0.12)">
      <use xlink:href="#DejaVuSans-6d"/>
      <use x="97.412109375" xlink:href="#DejaVuSans-56"/>
     </g>
    </g>
   </g>
   <g id="patch_3">
    <path d="
M72 43.2
L518.4 43.2" style="fill:none;stroke:#000000;"/>
   </g>
   <g id="patch_4">
    <path d="
M518.4 388.8
L518.4 43.2" style="fill:none;stroke:#000000;"/>
   </g>
   <g id="patch_5">
    <path d="
M72 388.8
L518.4 388.8" style="fill:none;stroke:#000000;"/>
   </g>
   <g id="patch_6">
    <path d="
M72 388.8
L72 43.2" style="fill:none;stroke:#000000;"/>
   </g>
   <g id="text_17">
    <!-- Base trace with noise added -->
    <defs>
     <path d="
M54.8906 33.0156
L54.8906 0
L45.9062 0
L45.9062 32.7188
Q45.9062 40.4844 42.875 44.3281
Q39.8438 48.1875 33.7969 48.1875
Q26.5156 48.1875 22.3125 43.5469
Q18.1094 38.9219 18.1094 30.9062
L18.1094 0
L9.07812 0
L9.07812 75.9844
L18.1094 75.9844
L18.1094 46.1875
Q21.3438 51.125 25.7031 53.5625
Q30.0781 56 35.7969 56
Q45.2188 56 50.0469 50.1719
Q54.8906 44.3438 54.8906 33.0156" id="DejaVuSans-68"/>
     <path d="
M34.2812 27.4844
Q23.3906 27.4844 19.1875 25
Q14.9844 22.5156 14.9844 16.5
Q14.9844 11.7188 18.1406 8.90625
Q21.2969 6.10938 26.7031 6.10938
Q34.1875 6.10938 38.7031 11.4062
Q43.2188 16.7031 43.2188 25.4844
L43.2188 27.4844
z

M52.2031 31.2031
L52.2031 0
L43.2188 0
L43.2188 8.29688
Q40.1406 3.32812 35.5469 0.953125
Q30.9531 -1.42188 24.3125 -1.42188
Q15.9219 -1.42188 10.9531 3.29688
Q6 8.01562 6 15.9219
Q6 25.1406 12.1719 29.8281
Q18.3594 34.5156 30.6094 34.5156
L43.2188 34.5156
L43.2188 35.4062
Q43.2188 41.6094 39.1406 45
Q35.0625 48.3906 27.6875 48.3906
Q23 48.3906 18.5469 47.2656
Q14.1094 46.1406 10.0156 43.8906
L10.0156 52.2031
Q14.9375 54.1094 19.5781 55.0469
Q24.2188 56 28.6094 56
Q40.4844 56 46.3438 49.8438
Q52.2031 43.7031 52.2031 31.2031" id="DejaVuSans-61"/>
     <path id="DejaVuSans-20"/>
     <path d="
M19.6719 34.8125
L19.6719 8.10938
L35.5 8.10938
Q43.4531 8.10938 47.2812 11.4062
Q51.125 14.7031 51.125 21.4844
Q51.125 28.3281 47.2812 31.5625
Q43.4531 34.8125 35.5 34.8125
z

M19.6719 64.7969
L19.6719 42.8281
L34.2812 42.8281
Q41.5 42.8281 45.0312 45.5312
Q48.5781 48.25 48.5781 53.8125
Q48.5781 59.3281 45.0312 62.0625
Q41.5 64.7969 34.2812 64.7969
z

M9.8125 72.9062
L35.0156 72.9062
Q46.2969 72.9062 52.3906 68.2188
Q58.5 63.5312 58.5 54.8906
Q58.5 48.1875 55.375 44.2344
Q52.25 40.2812 46.1875 39.3125
Q53.4688 37.75 57.5 32.7812
Q61.5312 27.8281 61.5312 20.4062
Q61.5312 10.6406 54.8906 5.3125
Q48.25 0 35.9844 0
L9.8125 0
z
" id="DejaVuSans-42"/>
     <path d="
M45.4062 46.3906
L45.4062 75.9844
L54.3906 75.9844
L54.3906 0
L45.4062 0
L45.4062 8.20312
Q42.5781 3.32812 38.25 0.953125
Q33.9375 -1.42188 27.875 -1.42188
Q17.9688 -1.42188 11.7344 6.48438
Q5.51562 14.4062 5.51562 27.2969
Q5.51562 40.1875 11.7344 48.0938
Q17.9688 56 27.875 56
Q33.9375 56 38.25 53.625
Q42.5781 51.2656 45.4062 46.3906
M14.7969 27.2969
Q14.7969 17.3906 18.875 11.75
Q22.9531 6.10938 30.0781 6.10938
Q37.2031 6.10938 41.2969 11.75
Q45.4062 17.3906 45.4062 27.2969
Q45.4062 37.2031 41.2969 42.8438
Q37.2031 48.4844 30.0781 48.4844
Q22.9531 48.4844 18.875 42.8438
Q14.7969 37.2031 14.7969 27.2969" id="DejaVuSans-64"/>
     <path d="
M4.20312 54.6875
L13.1875 54.6875
L24.4219 12.0156
L35.5938 54.6875
L46.1875 54.6875
L57.4219 12.0156
L68.6094 54.6875
L77.5938 54.6875
L63.2812 0
L52.6875 0
L40.9219 44.8281
L29.1094 0
L18.5 0
z
" id="DejaVuSans-77"/>
     <path d="
M56.2031 29.5938
L56.2031 25.2031
L14.8906 25.2031
Q15.4844 15.9219 20.4844 11.0625
Q25.4844 6.20312 34.4219 6.20312
Q39.5938 6.20312 44.4531 7.46875
Q49.3125 8.73438 54.1094 11.2812
L54.1094 2.78125
Q49.2656 0.734375 44.1875 -0.34375
Q39.1094 -1.42188 33.8906 -1.42188
Q20.7969 -1.42188 13.1562 6.1875
Q5.51562 13.8125 5.51562 26.8125
Q5.51562 40.2344 12.7656 48.1094
Q20.0156 56 32.3281 56
Q43.3594 56 49.7812 48.8906
Q56.2031 41.7969 56.2031 29.5938
M47.2188 32.2344
Q47.125 39.5938 43.0938 43.9844
Q39.0625 48.3906 32.4219 48.3906
Q24.9062 48.3906 20.3906 44.1406
Q15.875 39.8906 15.1875 32.1719
z
" id="DejaVuSans-65"/>
     <path d="
M48.7812 52.5938
L48.7812 44.1875
Q44.9688 46.2969 41.1406 47.3438
Q37.3125 48.3906 33.4062 48.3906
Q24.6562 48.3906 19.8125 42.8438
Q14.9844 37.3125 14.9844 27.2969
Q14.9844 17.2812 19.8125 11.7344
Q24.6562 6.20312 33.4062 6.20312
Q37.3125 6.20312 41.1406 7.25
Q44.9688 8.29688 48.7812 10.4062
L48.7812 2.09375
Q45.0156 0.34375 40.9844 -0.53125
Q36.9688 -1.42188 32.4219 -1.42188
Q20.0625 -1.42188 12.7812 6.34375
Q5.51562 14.1094 5.51562 27.2969
Q5.51562 40.6719 12.8594 48.3281
Q20.2188 56 33.0156 56
Q37.1562 56 41.1094 55.1406
Q45.0625 54.2969 48.7812 52.5938" id="DejaVuSans-63"/>
     <path d="
M41.1094 46.2969
Q39.5938 47.1719 37.8125 47.5781
Q36.0312 48 33.8906 48
Q26.2656 48 22.1875 43.0469
Q18.1094 38.0938 18.1094 28.8125
L18.1094 0
L9.07812 0
L9.07812 54.6875
L18.1094 54.6875
L18.1094 46.1875
Q20.9531 51.1719 25.4844 53.5781
Q30.0312 56 36.5312 56
Q37.4531 56 38.5781 55.875
Q39.7031 55.7656 41.0625 55.5156
z
" id="DejaVuSans-72"/>
    </defs>
    <g transform="translate(193.60575 38.2)scale(0.144 -0.144)">
     <use xlink:href="#DejaVuSans-42"/>
     <use x="68.603515625" xlink:href="#DejaVuSans-61"/>
     <use x="129.8828125" xlink:href="#DejaVuSans-73"/>
     <use x="181.982421875" xlink:href="#DejaVuSans-65"/>
     <use x="243.505859375" xlink:href="#DejaVuSans-20"/>
     <use x="275.29296875" xlink:href="#DejaVuSans-74"/>
     <use x="314.501953125" xlink:href="#DejaVuSans-72"/>
     <use x="355.615234375" xlink:href="#DejaVuSans-61"/>
     <use x="416.89453125" xlink:href="#DejaVuSans-63"/>
     <use x="471.875" xlink:href="#DejaVuSans-65"/>
     <use x="533.3984375" xlink:href="#DejaVuSans-20"/>
     <use x="565.185546875" xlink:href="#DejaVuSans-77"/>
     <use x="646.97265625" xlink:href="#DejaVuSans-69"/>
     <use x="674.755859375" xlink:href="#DejaVuSans-74"/>
     <use x="713.96484375" xlink:href="#DejaVuSans-68"/>
     <use x="777.34375" xlink:href="#DejaVuSans-20"/>
     <use x="809.130859375" xlink:href="#DejaVuSans-6e"/>
     <use x="872.509765625" xlink:href="#DejaVuSans-6f"/>
     <use x="933.69140625" xlink:href="#DejaVuSans-69"/>
     <use x="961.474609375" xlink:href="#DejaVuSans-73"/>
     <use x="1013.57421875" xlink:href="#DejaVuSans-65"/>
     <use x="1075.09765625" xlink:href="#DejaVuSans-20"/>
     <use x="1106.88476562" xlink:href="#DejaVuSans-61"/>
     <use x="1168.1640625" xlink:href="#DejaVuSans-64"/>
     <use x="1231.640625" xlink:href="#DejaVuSans-64"/>
     <use x="1295.1171875" xlink:href="#DejaVuSans-65"/>
     <use x="1356.640625" xlink:href="#DejaVuSans-64"/>
    </g>
   </g>
  </g>
 </g>
 <defs>
  <clipPath id="p7ff5b81e1d">
   <rect height="345.6" width="446.4" x="72.0" y="43.2"/>
  </clipPath>
 </defs>
</svg>
