<?xml version="1.0" encoding="utf-8" standalone="no"?>
<!DOCTYPE svg PUBLIC "-//W3C//DTD SVG 1.1//EN"
  "http://www.w3.org/Graphics/SVG/1.1/DTD/svg11.dtd">
<!-- Created with matplotlib (http://matplotlib.sourceforge.net/) -->
<svg height="432pt" version="1.1" viewBox="0 0 576 432" width="576pt" xmlns="http://www.w3.org/2000/svg" xmlns:xlink="http://www.w3.org/1999/xlink">
 <defs>
  <style type="text/css">
*{stroke-linecap:square;stroke-linejoin:round;}
  </style>
 </defs>
 <g id="figure_1">
  <g id="patch_1">
   <path d="
M0 432
L576 432
L576 0
L0 0
z
" style="fill:#ffffff;"/>
  </g>
  <g id="axes_1">
   <g id="patch_2">
    <path d="
M72 388.8
L518.4 388.8
L518.4 43.2
L72 43.2
z
" style="fill:#ffffff;"/>
   </g>
   <g id="line2d_1">
    <path clip-path="url(#p7ff5b81e1d)" d="
M72 335.978
L72.4464 336.144
L72.8928 336.753
L73.3392 337.782
L73.7856 338.084
L74.232 336.981
L74.6784 337.176
L75.1248 338.277
L75.5712 338.361
L76.464 337.492
L76.9104 336.824
L77.3568 337.707
L77.8032 337.465
L78.2496 337.495
L78.696 338.181
L79.1424 337.53
L79.5888 337.379
L80.0352 336.944
L80.4816 335.844
L81.3744 335.765
L81.8208 335.616
L82.7136 334.42
L83.16 334.266
L83.6064 335.533
L84.0528 337.288
L84.4992 337.54
L84.9456 337.257
L85.392 338.057
L85.8384 339.248
L86.2848 339.4
L86.7312 340.484
L87.1776 340.892
L87.624 341.019
L88.0704 340.886
L88.5168 340.27
L88.9632 340.322
L89.4096 339.473
L89.856 338.155
L90.3024 338.182
L90.7488 337.726
L91.1952 339.041
L91.6416 339.298
L92.088 338.165
L92.5344 337.805
L93.4272 338.426
L93.8736 336.951
L94.32 336.572
L94.7664 337.623
L95.2128 338.116
L95.6592 338.832
L96.552 338.992
L96.9984 340.09
L97.4448 341.687
L97.8912 342.485
L98.3376 342.249
L98.784 342.638
L99.2304 342.812
L99.6768 343.183
L100.123 343.762
L100.57 342.726
L101.016 342.585
L101.462 341.552
L101.909 341.946
L102.355 341.03
L103.248 340.424
L103.694 342.083
L104.141 342.06
L104.587 342.527
L105.034 343.245
L105.48 342.67
L105.926 342.394
L106.373 342.509
L106.819 343.182
L107.266 342.843
L107.712 342.152
L108.158 342.46
L108.605 342.09
L109.051 342.985
L109.498 342.572
L109.944 342.903
L110.39 341.999
L110.837 341.406
L111.283 341.65
L111.73 341.42
L112.176 341.527
L113.069 342.128
L113.515 343.147
L113.962 342.795
L114.854 343.265
L116.64 341.62
L117.086 343.7
L117.533 344.595
L117.979 344.292
L118.426 344.487
L118.872 343.186
L119.318 343.229
L119.765 343.754
L120.211 343.251
L121.104 344.241
L121.55 343.339
L121.997 344.562
L122.443 345.057
L122.89 345.053
L123.336 344.093
L123.782 343.727
L124.229 342.505
L124.675 340.586
L125.568 340.509
L126.014 340.812
L126.461 341.298
L126.907 341.123
L127.354 341.393
L127.8 341.994
L128.693 339.644
L129.139 340.897
L129.586 339.886
L130.032 341.473
L130.478 341.903
L130.925 342.746
L131.371 342.375
L131.818 342.717
L132.264 342.529
L132.71 342.856
L133.157 343.332
L133.603 343.507
L134.05 344.89
L134.496 343.048
L134.942 342.259
L135.389 342.118
L135.835 342.713
L136.282 342.29
L136.728 342.464
L137.174 341.79
L138.067 342.821
L138.514 342.808
L138.96 342.582
L140.746 321.883
L143.424 302.283
L143.87 301.037
L144.317 298.58
L145.21 291.64
L145.656 289.572
L146.102 285.679
L146.995 281.148
L147.442 277.837
L147.888 276.368
L148.334 272.643
L148.781 271.097
L149.227 268.148
L149.674 264.374
L150.12 262.51
L150.566 259.593
L151.013 257.711
L152.352 248.756
L152.798 247.412
L153.691 242.46
L154.138 241.196
L155.03 237.834
L155.923 234.32
L156.37 232.26
L156.816 231.259
L158.155 227.216
L159.048 221.871
L159.494 219.727
L159.941 218.638
L160.387 215.897
L160.834 215.053
L161.28 213.062
L161.726 212.562
L162.173 211.68
L162.619 209.238
L163.958 203.953
L164.405 202.842
L164.851 200.754
L165.744 198.346
L166.19 195.827
L166.637 194.215
L167.083 193.469
L167.976 191.353
L168.422 189.164
L168.869 188.794
L169.762 186.39
L170.208 184.732
L170.654 185.027
L171.994 181.616
L172.44 182.227
L172.886 181.816
L173.779 179.026
L174.226 178.749
L174.672 177.751
L175.565 176.436
L176.011 175.401
L176.458 174.989
L177.35 172.403
L177.797 170.928
L178.243 170.099
L178.69 170.265
L179.136 170.773
L180.029 168.347
L180.475 167.954
L181.368 164.556
L181.814 163.985
L182.261 162.915
L182.707 162.886
L183.154 161.916
L183.6 160.25
L184.046 159.324
L184.493 158.067
L184.939 157.56
L185.386 156.596
L185.832 156.454
L186.725 154.766
L187.171 154.967
L187.618 154.439
L188.064 154.521
L188.51 154.264
L188.957 152.99
L189.403 152.695
L189.85 152.135
L190.742 150.056
L191.189 149.643
L191.635 149.542
L192.082 148.587
L192.528 148.138
L192.974 147.182
L193.421 145.68
L193.867 145.546
L194.314 143.865
L194.76 143.646
L195.206 143.291
L196.099 141.006
L196.546 140.482
L197.438 139.069
L197.885 139.473
L198.331 139.608
L199.224 138.208
L199.67 137.208
L200.117 137.123
L200.563 136.684
L201.01 135.78
L201.456 136.01
L201.902 135.877
L202.349 135.394
L202.795 135.201
L203.242 135.419
L203.688 134.619
L204.134 135.112
L204.581 134.335
L205.027 134.032
L205.474 132.828
L205.92 132.512
L206.366 132.972
L206.813 132.143
L207.259 130.475
L207.706 130.944
L208.152 130.164
L208.598 129.941
L209.491 130.562
L209.938 129.344
L210.384 127.751
L210.83 127.99
L211.277 126.886
L211.723 125.16
L212.17 124.647
L212.616 123.164
L213.062 123.389
L213.509 121.851
L213.955 121.277
L214.402 119.716
L214.848 119.874
L215.294 119.434
L215.741 118.314
L216.187 118.974
L216.634 118.965
L217.08 118.335
L217.526 117.224
L217.973 118.506
L218.866 116.477
L219.312 117.667
L219.758 115.85
L220.205 116.259
L220.651 117.27
L221.098 116.525
L221.544 115.334
L222.437 116.441
L222.883 115.932
L223.33 116.896
L223.776 115.583
L225.115 113.824
L225.562 114.143
L226.008 114.297
L226.454 113.171
L226.901 113.07
L227.347 112.734
L227.794 112.645
L228.24 112.285
L228.686 112.198
L229.133 111.411
L229.579 109.977
L230.026 109.363
L230.472 108.47
L230.918 109.38
L231.365 109.007
L231.811 108.103
L232.258 107.711
L232.704 106.308
L233.15 105.326
L233.597 106.887
L234.043 106.268
L234.49 105.045
L234.936 105.205
L235.829 104.15
L236.275 103.383
L236.722 102.058
L237.168 101.877
L237.614 102.686
L238.061 102.824
L238.954 101.68
L239.4 101.917
L239.846 100.739
L240.293 101.159
L240.739 101.088
L241.186 101.325
L241.632 100.43
L242.078 99.1064
L242.525 98.7673
L242.971 98.7223
L243.864 99.1282
L244.31 99.6097
L245.203 97.62
L246.096 98.6299
L246.542 97.6964
L246.989 97.5241
L247.435 96.6915
L247.882 96.4071
L248.774 93.1423
L249.221 93.3891
L249.667 91.2988
L250.114 91.0647
L250.56 92.0103
L251.006 90.9719
L251.453 91.1472
L251.899 90.1978
L252.346 88.8866
L253.238 88.7212
L253.685 87.9395
L254.131 89.1264
L254.578 88.7378
L255.024 87.6917
L255.47 87.6758
L255.917 88.1186
L256.363 87.7964
L256.81 86.6137
L257.256 86.176
L257.702 87.5362
L258.595 88.3081
L259.042 87.3842
L259.488 87.2651
L259.934 87.7048
L260.381 86.5243
L260.827 87.3332
L261.274 87.144
L261.72 86.0188
L263.059 85.3674
L263.506 84.2433
L263.952 84.3486
L265.291 82.9592
L266.184 83.166
L266.63 82.368
L267.077 82.5806
L267.523 82.0915
L267.97 82.7599
L268.416 82.9281
L268.862 82.9698
L269.309 84.6454
L269.755 85.1725
L270.648 84.6709
L271.094 85.1012
L271.987 83.2785
L272.434 82.2993
L272.88 80.9501
L273.326 80.4002
L273.773 80.8926
L275.112 81.542
L275.558 82.8496
L276.451 82.3238
L276.898 82.4525
L277.344 83.547
L277.79 83.1707
L278.237 84.5733
L278.683 84.9537
L279.13 83.9525
L279.576 84.1528
L280.022 83.6576
L280.469 83.8509
L280.915 83.766
L281.362 82.8392
L281.808 83.358
L282.254 83.2326
L282.701 84.7011
L283.147 85.2021
L283.594 86.7817
L284.04 86.4446
L284.486 85.4383
L285.379 87.555
L285.826 86.9202
L286.272 87.4153
L286.718 87.5372
L287.165 87.1863
L287.611 87.9753
L288.058 87.4377
L288.504 87.5621
L288.95 87.4875
L289.397 86.9485
L289.843 85.806
L290.736 85.0995
L291.182 85.2178
L291.629 83.6216
L292.075 83.321
L292.522 83.5141
L292.968 83.888
L293.861 83.6643
L294.307 83.8642
L294.754 83.5105
L295.646 83.057
L296.093 83.6712
L296.986 85.6539
L297.878 84.5541
L298.325 85.2237
L298.771 86.5423
L299.218 86.7498
L299.664 86.0215
L300.11 87.4047
L301.003 87.9089
L301.45 88.4792
L301.896 88.224
L302.342 88.9284
L302.789 88.7722
L303.235 88.1771
L303.682 87.8897
L304.574 87.6398
L305.021 86.5249
L305.467 86.2885
L305.914 85.4015
L306.36 85.0433
L306.806 85.0882
L307.253 83.3038
L307.699 82.4814
L308.146 83.1286
L308.592 84.397
L309.038 84.3124
L309.485 83.8296
L309.931 84.4947
L310.378 83.8059
L310.824 84.5173
L311.27 84.4488
L311.717 83.6672
L312.163 83.9617
L312.61 85.2733
L313.056 84.1438
L313.502 83.835
L313.949 83.7164
L314.395 84.1664
L314.842 83.7994
L315.288 83.7406
L316.181 81.671
L316.627 82.7059
L317.074 81.6085
L317.52 82.2168
L317.966 82.2743
L318.413 82.057
L318.859 80.7168
L319.306 80.4705
L319.752 80.5576
L320.198 81.5681
L320.645 81.8231
L321.091 80.7581
L321.538 80.2739
L321.984 80.802
L322.43 80.9019
L322.877 79.934
L323.323 79.8993
L323.77 79.4437
L324.662 76.9693
L325.555 78.0408
L326.002 77.0157
L326.448 76.2936
L326.894 76.26
L327.341 75.755
L327.787 75.9427
L328.234 76.8666
L328.68 77.4552
L329.126 77.6065
L329.573 76.6234
L330.019 76.1441
L330.466 76.9676
L330.912 75.3165
L331.358 75.8898
L331.805 77.0754
L332.251 77.4633
L333.144 75.5063
L333.59 75.7893
L334.037 75.2704
L334.483 74.94
L334.93 74.9211
L335.376 73.9245
L335.822 75.0202
L336.269 73.552
L336.715 74.5326
L337.162 74.1818
L338.054 76.9015
L338.501 75.937
L338.947 76.6538
L339.394 75.5866
L340.286 77.2354
L340.733 76.7263
L341.179 76.5365
L341.626 75.6375
L342.072 75.8625
L342.518 76.4802
L342.965 76.5326
L343.411 77.5023
L343.858 76.8589
L344.304 77.003
L344.75 77.0136
L345.643 76.0784
L346.09 76.6961
L346.536 76.4165
L346.982 76.6566
L347.429 77.0241
L348.768 77.0809
L349.214 77.3349
L350.107 76.4173
L350.554 76.5918
L351.893 78.2415
L352.339 77.8384
L353.232 78.242
L353.678 78.2647
L354.125 78.9051
L354.571 79.3445
L355.018 80.3161
L355.464 79.4941
L355.91 79.3474
L356.803 81.9608
L357.696 81.062
L358.142 81.856
L358.589 82.2927
L359.035 81.9585
L359.482 82.2918
L359.928 82.1058
L360.374 82.6877
L360.821 82.3114
L361.267 83.0428
L361.714 84.3225
L362.16 84.3239
L362.606 89.1318
L363.053 91.1913
L366.178 113.645
L366.624 115.33
L367.07 117.597
L367.517 121.9
L367.963 124.782
L368.41 126.656
L369.302 132.051
L373.32 152.126
L373.766 153.152
L374.213 156.449
L374.659 157.15
L375.106 160.376
L375.552 162.648
L375.998 164.187
L376.445 164.479
L377.338 170.026
L377.784 170.745
L378.23 172.339
L378.677 175.262
L379.123 177.38
L379.57 178.34
L380.016 178.987
L380.909 185.305
L381.355 187.081
L381.802 188.261
L382.248 188.415
L382.694 190.516
L383.141 191.778
L383.587 193.578
L384.48 197.826
L384.926 199.953
L385.373 201.525
L385.819 202.03
L386.266 204.662
L386.712 205.127
L387.158 206.436
L388.051 210.884
L388.498 211.775
L389.39 215.402
L389.837 216.012
L390.73 219.107
L391.622 221.201
L392.069 224.029
L392.515 224.454
L393.408 226.607
L393.854 226.886
L394.301 227.49
L394.747 229.231
L395.194 229.82
L395.64 233.204
L396.533 235.283
L396.979 235.568
L397.426 236.7
L397.872 238.449
L398.765 240.725
L399.211 241.678
L400.104 242.823
L400.55 243.79
L400.997 245.655
L401.443 245.845
L402.782 249.42
L403.229 250.594
L403.675 253.38
L404.568 255.161
L405.014 256.89
L405.907 257.196
L406.354 257.361
L406.8 259.059
L407.246 259.793
L407.693 261.88
L408.139 262.67
L408.586 262.452
L409.478 263.109
L409.925 264.077
L410.371 264.323
L410.818 265.517
L411.264 265.045
L411.71 265.173
L413.05 267.712
L413.496 267.882
L414.389 269.538
L414.835 269.491
L415.282 268.635
L415.728 270.726
L416.174 271.313
L417.067 271.288
L417.96 274.645
L418.406 275.549
L419.299 278.423
L419.746 278.73
L420.638 281.176
L421.085 281.07
L421.531 282.054
L422.424 283.196
L423.317 282.414
L423.763 283.324
L424.21 283.315
L424.656 283.495
L425.549 284.573
L425.995 284.433
L426.888 286.325
L427.334 285.101
L427.781 285.822
L428.227 286.884
L428.674 286.435
L429.12 286.962
L429.566 286.737
L430.013 286.938
L430.459 288.54
L430.906 288.002
L431.798 290.013
L432.245 291.515
L432.691 291.874
L433.138 292.783
L434.477 292.979
L436.262 296.596
L437.155 297.486
L437.602 297.113
L438.048 297.01
L438.494 297.775
L438.941 296.995
L439.387 297.362
L439.834 297.509
L440.28 297.514
L441.173 298.978
L441.619 301.612
L442.066 302.632
L442.512 302.135
L443.405 304.093
L443.851 304.49
L444.298 303.979
L444.744 303.123
L445.19 304.347
L446.083 305.125
L446.53 306.487
L446.976 306.7
L447.422 306.397
L447.869 307.56
L448.315 307.458
L448.762 308.766
L449.208 308.446
L449.654 307.977
L450.101 309.442
L450.547 309.344
L450.994 309.926
L451.44 309.345
L451.886 310.501
L452.333 311.239
L453.226 310.793
L453.672 309.45
L454.118 309.521
L454.565 308.972
L455.458 308.562
L455.904 308.886
L456.35 307.928
L456.797 306.627
L457.243 306.362
L458.136 309.292
L458.582 309.724
L459.029 309.937
L459.475 310.001
L459.922 312.597
L460.368 312.815
L460.814 313.175
L461.261 314.81
L461.707 314.515
L462.6 313.513
L463.046 312.397
L463.493 312.087
L463.939 312.664
L464.832 315.132
L465.278 314.617
L465.725 314.559
L466.171 315.091
L466.618 314.329
L467.064 315.472
L467.51 316.14
L467.957 315.234
L468.403 315.431
L468.85 314.992
L469.296 315.255
L469.742 314.933
L470.189 315.415
L470.635 315.327
L471.082 316.668
L471.528 315.578
L472.421 315.143
L473.76 313.54
L474.206 314.466
L474.653 314.29
L475.099 315.217
L475.546 314.779
L476.438 315.628
L476.885 316.836
L477.331 316.86
L477.778 316.406
L478.224 317.64
L479.117 318.264
L479.563 318.793
L480.01 318.857
L480.456 318.562
L480.902 318.909
L481.349 319.403
L481.795 319.67
L482.242 319.073
L482.688 319.693
L483.134 319.574
L483.581 319.788
L484.027 319.053
L484.474 320.22
L484.92 320.433
L485.366 319.774
L485.813 320.316
L486.259 322.01
L486.706 322.36
L487.598 322.066
L488.045 322.466
L488.491 322.373
L488.938 323.075
L489.384 324.337
L489.83 324.013
L490.277 324.397
L490.723 324.405
L491.17 324.992
L491.616 324.655
L492.062 325.752
L492.509 325.781
L492.955 325.427
L493.402 325.71
L493.848 325.755
L494.294 326.755
L494.741 326.617
L495.187 327.51
L495.634 328.128
L496.08 327.15
L496.526 328.233
L496.973 327.052
L497.419 327.776
L497.866 328.188
L498.758 328.547
L499.205 330.183
L499.651 330.839
L500.098 330.318
L500.99 331.778
L501.437 331.473
L501.883 331.539
L502.33 330.903
L502.776 331.331
L503.222 330.511
L503.669 330.433
L504.115 329.317
L504.562 329.68
L505.008 328.421
L505.454 328.289
L505.901 327.199
L506.347 326.933
L506.794 326.367
L507.24 327.974
L507.686 328.564
L508.133 328.608
L508.579 330.126
L509.026 330.385
L509.472 330.515
L509.918 329.337
L510.811 328.098
L511.258 328.21
L511.704 327.871
L512.15 326.644
L512.597 326.449
L513.043 328.298
L513.49 328.22
L513.936 328.277
L514.382 328.112
L514.829 328.38
L515.275 329.651
L516.168 329.447
L516.614 330.125
L517.507 328.451
L517.954 328.157
L517.954 328.157" style="fill:none;stroke:#0000ff;"/>
   </g>
   <g id="line2d_2">
    <path clip-path="url(#p7ff5b81e1d)" d="
M72 339.429
L138.96 339.429
L140.299 327.218
L142.085 313.006
L144.317 297.249
L146.549 283.209
L148.781 270.567
L151.013 259.097
L153.245 248.627
L155.923 237.19
L158.602 226.805
L161.28 217.323
L163.958 208.624
L166.637 200.612
L169.762 192.026
L172.886 184.163
L176.011 176.937
L179.136 170.277
L182.261 164.126
L185.386 158.431
L188.51 153.151
L192.082 147.575
L195.653 142.442
L199.224 137.71
L202.795 133.341
L206.366 129.305
L209.938 125.571
L213.955 121.699
L217.973 118.146
L221.99 114.882
L226.008 111.881
L230.472 108.827
L234.936 106.041
L239.846 103.256
L244.757 100.735
L249.667 98.4513
L255.024 96.203
L260.827 94.0231
L266.63 92.0795
L272.88 90.2203
L279.576 88.4651
L286.718 86.8287
L294.307 85.3211
L302.342 83.9479
L311.27 82.6512
L321.091 81.4584
L331.805 80.3879
L343.858 79.4168
L357.25 78.5676
L362.16 78.3061
L363.499 90.4492
L365.285 104.574
L367.517 120.226
L369.749 134.166
L371.981 146.712
L374.213 158.089
L376.445 168.47
L379.123 179.806
L381.802 190.094
L384.48 199.484
L387.158 208.096
L389.837 216.025
L392.515 223.351
L395.64 231.225
L398.765 238.455
L401.89 245.113
L405.014 251.26
L408.139 256.948
L411.264 262.22
L414.835 267.784
L418.406 272.904
L421.978 277.623
L425.549 281.977
L429.12 285.999
L432.691 289.719
L436.709 293.575
L440.726 297.112
L444.744 300.362
L448.762 303.348
L453.226 306.387
L457.69 309.158
L462.6 311.928
L467.51 314.435
L472.421 316.706
L477.778 318.941
L483.581 321.107
L489.384 323.038
L495.634 324.885
L502.33 326.629
L509.472 328.254
L517.061 329.751
L517.954 329.913
L517.954 329.913" style="fill:none;stroke:#008000;"/>
   </g>
   <g id="matplotlib.axis_1">
    <g id="xtick_1">
     <g id="line2d_3">
      <defs>
       <path d="
M0 0
L0 -4" id="m0012dd4eef" style="stroke:#000000;stroke-linecap:butt;stroke-width:0.5;"/>
      </defs>
      <g>
       <use style="stroke:#000000;stroke-linecap:butt;stroke-width:0.5;" x="72.0" xlink:href="#m0012dd4eef" y="388.8"/>
      </g>
     </g>
     <g id="line2d_4">
      <defs>
       <path d="
M0 0
L0 4" id="m476344969c" style="stroke:#000000;stroke-linecap:butt;stroke-width:0.5;"/>
      </defs>
      <g>
       <use style="stroke:#000000;stroke-linecap:butt;stroke-width:0.5;" x="72.0" xlink:href="#m476344969c" y="43.2"/>
      </g>
     </g>
     <g id="text_1">
      <!-- 0 -->
      <defs>
       <path d="
M31.7812 66.4062
Q24.1719 66.4062 20.3281 58.9062
Q16.5 51.4219 16.5 36.375
Q16.5 21.3906 20.3281 13.8906
Q24.1719 6.39062 31.7812 6.39062
Q39.4531 6.39062 43.2812 13.8906
Q47.125 21.3906 47.125 36.375
Q47.125 51.4219 43.2812 58.9062
Q39.4531 66.4062 31.7812 66.4062
M31.7812 74.2188
Q44.0469 74.2188 50.5156 64.5156
Q56.9844 54.8281 56.9844 36.375
Q56.9844 17.9688 50.5156 8.26562
Q44.0469 -1.42188 31.7812 -1.42188
Q19.5312 -1.42188 13.0625 8.26562
Q6.59375 17.9688 6.59375 36.375
Q6.59375 54.8281 13.0625 64.5156
Q19.5312 74.2188 31.7812 74.2188" id="DejaVuSans-30"/>
      </defs>
      <g transform="translate(68.9765625 401.70625)scale(0.12 -0.12)">
       <use xlink:href="#DejaVuSans-30"/>
      </g>
     </g>
    </g>
    <g id="xtick_2">
     <g id="line2d_5">
      <g>
       <use style="stroke:#000000;stroke-linecap:butt;stroke-width:0.5;" x="161.28" xlink:href="#m0012dd4eef" y="388.8"/>
      </g>
     </g>
     <g id="line2d_6">
      <g>
       <use style="stroke:#000000;stroke-linecap:butt;stroke-width:0.5;" x="161.28" xlink:href="#m476344969c" y="43.2"/>
      </g>
     </g>
     <g id="text_2">
      <!-- 200 -->
      <defs>
       <path d="
M19.1875 8.29688
L53.6094 8.29688
L53.6094 0
L7.32812 0
L7.32812 8.29688
Q12.9375 14.1094 22.625 23.8906
Q32.3281 33.6875 34.8125 36.5312
Q39.5469 41.8438 41.4219 45.5312
Q43.3125 49.2188 43.3125 52.7812
Q43.3125 58.5938 39.2344 62.25
Q35.1562 65.9219 28.6094 65.9219
Q23.9688 65.9219 18.8125 64.3125
Q13.6719 62.7031 7.8125 59.4219
L7.8125 69.3906
Q13.7656 71.7812 18.9375 73
Q24.125 74.2188 28.4219 74.2188
Q39.75 74.2188 46.4844 68.5469
Q53.2188 62.8906 53.2188 53.4219
Q53.2188 48.9219 51.5312 44.8906
Q49.8594 40.875 45.4062 35.4062
Q44.1875 33.9844 37.6406 27.2188
Q31.1094 20.4531 19.1875 8.29688" id="DejaVuSans-32"/>
      </defs>
      <g transform="translate(150.665625 401.70625)scale(0.12 -0.12)">
       <use xlink:href="#DejaVuSans-32"/>
       <use x="63.623046875" xlink:href="#DejaVuSans-30"/>
       <use x="127.24609375" xlink:href="#DejaVuSans-30"/>
      </g>
     </g>
    </g>
    <g id="xtick_3">
     <g id="line2d_7">
      <g>
       <use style="stroke:#000000;stroke-linecap:butt;stroke-width:0.5;" x="250.56" xlink:href="#m0012dd4eef" y="388.8"/>
      </g>
     </g>
     <g id="line2d_8">
      <g>
       <use style="stroke:#000000;stroke-linecap:butt;stroke-width:0.5;" x="250.56" xlink:href="#m476344969c" y="43.2"/>
      </g>
     </g>
     <g id="text_3">
      <!-- 400 -->
      <defs>
       <path d="
M37.7969 64.3125
L12.8906 25.3906
L37.7969 25.3906
z

M35.2031 72.9062
L47.6094 72.9062
L47.6094 25.3906
L58.0156 25.3906
L58.0156 17.1875
L47.6094 17.1875
L47.6094 0
L37.7969 0
L37.7969 17.1875
L4.89062 17.1875
L4.89062 26.7031
z
" id="DejaVuSans-34"/>
      </defs>
      <g transform="translate(239.799375 401.70625)scale(0.12 -0.12)">
       <use xlink:href="#DejaVuSans-34"/>
       <use x="63.623046875" xlink:href="#DejaVuSans-30"/>
       <use x="127.24609375" xlink:href="#DejaVuSans-30"/>
      </g>
     </g>
    </g>
    <g id="xtick_4">
     <g id="line2d_9">
      <g>
       <use style="stroke:#000000;stroke-linecap:butt;stroke-width:0.5;" x="339.84" xlink:href="#m0012dd4eef" y="388.8"/>
      </g>
     </g>
     <g id="line2d_10">
      <g>
       <use style="stroke:#000000;stroke-linecap:butt;stroke-width:0.5;" x="339.84" xlink:href="#m476344969c" y="43.2"/>
      </g>
     </g>
     <g id="text_4">
      <!-- 600 -->
      <defs>
       <path d="
M33.0156 40.375
Q26.375 40.375 22.4844 35.8281
Q18.6094 31.2969 18.6094 23.3906
Q18.6094 15.5312 22.4844 10.9531
Q26.375 6.39062 33.0156 6.39062
Q39.6562 6.39062 43.5312 10.9531
Q47.4062 15.5312 47.4062 23.3906
Q47.4062 31.2969 43.5312 35.8281
Q39.6562 40.375 33.0156 40.375
M52.5938 71.2969
L52.5938 62.3125
Q48.875 64.0625 45.0938 64.9844
Q41.3125 65.9219 37.5938 65.9219
Q27.8281 65.9219 22.6719 59.3281
Q17.5312 52.7344 16.7969 39.4062
Q19.6719 43.6562 24.0156 45.9219
Q28.375 48.1875 33.5938 48.1875
Q44.5781 48.1875 50.9531 41.5156
Q57.3281 34.8594 57.3281 23.3906
Q57.3281 12.1562 50.6875 5.35938
Q44.0469 -1.42188 33.0156 -1.42188
Q20.3594 -1.42188 13.6719 8.26562
Q6.98438 17.9688 6.98438 36.375
Q6.98438 53.6562 15.1875 63.9375
Q23.3906 74.2188 37.2031 74.2188
Q40.9219 74.2188 44.7031 73.4844
Q48.4844 72.75 52.5938 71.2969" id="DejaVuSans-36"/>
      </defs>
      <g transform="translate(329.205 401.70625)scale(0.12 -0.12)">
       <use xlink:href="#DejaVuSans-36"/>
       <use x="63.623046875" xlink:href="#DejaVuSans-30"/>
       <use x="127.24609375" xlink:href="#DejaVuSans-30"/>
      </g>
     </g>
    </g>
    <g id="xtick_5">
     <g id="line2d_11">
      <g>
       <use style="stroke:#000000;stroke-linecap:butt;stroke-width:0.5;" x="429.12" xlink:href="#m0012dd4eef" y="388.8"/>
      </g>
     </g>
     <g id="line2d_12">
      <g>
       <use style="stroke:#000000;stroke-linecap:butt;stroke-width:0.5;" x="429.12" xlink:href="#m476344969c" y="43.2"/>
      </g>
     </g>
     <g id="text_5">
      <!-- 800 -->
      <defs>
       <path d="
M31.7812 34.625
Q24.75 34.625 20.7188 30.8594
Q16.7031 27.0938 16.7031 20.5156
Q16.7031 13.9219 20.7188 10.1562
Q24.75 6.39062 31.7812 6.39062
Q38.8125 6.39062 42.8594 10.1719
Q46.9219 13.9688 46.9219 20.5156
Q46.9219 27.0938 42.8906 30.8594
Q38.875 34.625 31.7812 34.625
M21.9219 38.8125
Q15.5781 40.375 12.0312 44.7188
Q8.5 49.0781 8.5 55.3281
Q8.5 64.0625 14.7188 69.1406
Q20.9531 74.2188 31.7812 74.2188
Q42.6719 74.2188 48.875 69.1406
Q55.0781 64.0625 55.0781 55.3281
Q55.0781 49.0781 51.5312 44.7188
Q48 40.375 41.7031 38.8125
Q48.8281 37.1562 52.7969 32.3125
Q56.7812 27.4844 56.7812 20.5156
Q56.7812 9.90625 50.3125 4.23438
Q43.8438 -1.42188 31.7812 -1.42188
Q19.7344 -1.42188 13.25 4.23438
Q6.78125 9.90625 6.78125 20.5156
Q6.78125 27.4844 10.7812 32.3125
Q14.7969 37.1562 21.9219 38.8125
M18.3125 54.3906
Q18.3125 48.7344 21.8438 45.5625
Q25.3906 42.3906 31.7812 42.3906
Q38.1406 42.3906 41.7188 45.5625
Q45.3125 48.7344 45.3125 54.3906
Q45.3125 60.0625 41.7188 63.2344
Q38.1406 66.4062 31.7812 66.4062
Q25.3906 66.4062 21.8438 63.2344
Q18.3125 60.0625 18.3125 54.3906" id="DejaVuSans-38"/>
      </defs>
      <g transform="translate(418.4728125 401.70625)scale(0.12 -0.12)">
       <use xlink:href="#DejaVuSans-38"/>
       <use x="63.623046875" xlink:href="#DejaVuSans-30"/>
       <use x="127.24609375" xlink:href="#DejaVuSans-30"/>
      </g>
     </g>
    </g>
    <g id="xtick_6">
     <g id="line2d_13">
      <g>
       <use style="stroke:#000000;stroke-linecap:butt;stroke-width:0.5;" x="518.4" xlink:href="#m0012dd4eef" y="388.8"/>
      </g>
     </g>
     <g id="line2d_14">
      <g>
       <use style="stroke:#000000;stroke-linecap:butt;stroke-width:0.5;" x="518.4" xlink:href="#m476344969c" y="43.2"/>
      </g>
     </g>
     <g id="text_6">
      <!-- 1000 -->
      <defs>
       <path d="
M12.4062 8.29688
L28.5156 8.29688
L28.5156 63.9219
L10.9844 60.4062
L10.9844 69.3906
L28.4219 72.9062
L38.2812 72.9062
L38.2812 8.29688
L54.3906 8.29688
L54.3906 0
L12.4062 0
z
" id="DejaVuSans-31"/>
      </defs>
      <g transform="translate(504.1875 401.70625)scale(0.12 -0.12)">
       <use xlink:href="#DejaVuSans-31"/>
       <use x="63.623046875" xlink:href="#DejaVuSans-30"/>
       <use x="127.24609375" xlink:href="#DejaVuSans-30"/>
       <use x="190.869140625" xlink:href="#DejaVuSans-30"/>
      </g>
     </g>
    </g>
    <g id="text_7">
     <!-- points -->
     <defs>
      <path d="
M30.6094 48.3906
Q23.3906 48.3906 19.1875 42.75
Q14.9844 37.1094 14.9844 27.2969
Q14.9844 17.4844 19.1562 11.8438
Q23.3438 6.20312 30.6094 6.20312
Q37.7969 6.20312 41.9844 11.8594
Q46.1875 17.5312 46.1875 27.2969
Q46.1875 37.0156 41.9844 42.7031
Q37.7969 48.3906 30.6094 48.3906
M30.6094 56
Q42.3281 56 49.0156 48.375
Q55.7188 40.7656 55.7188 27.2969
Q55.7188 13.875 49.0156 6.21875
Q42.3281 -1.42188 30.6094 -1.42188
Q18.8438 -1.42188 12.1719 6.21875
Q5.51562 13.875 5.51562 27.2969
Q5.51562 40.7656 12.1719 48.375
Q18.8438 56 30.6094 56" id="DejaVuSans-6f"/>
      <path d="
M54.8906 33.0156
L54.8906 0
L45.9062 0
L45.9062 32.7188
Q45.9062 40.4844 42.875 44.3281
Q39.8438 48.1875 33.7969 48.1875
Q26.5156 48.1875 22.3125 43.5469
Q18.1094 38.9219 18.1094 30.9062
L18.1094 0
L9.07812 0
L9.07812 54.6875
L18.1094 54.6875
L18.1094 46.1875
Q21.3438 51.125 25.7031 53.5625
Q30.0781 56 35.7969 56
Q45.2188 56 50.0469 50.1719
Q54.8906 44.3438 54.8906 33.0156" id="DejaVuSans-6e"/>
      <path d="
M9.42188 54.6875
L18.4062 54.6875
L18.4062 0
L9.42188 0
z

M9.42188 75.9844
L18.4062 75.9844
L18.4062 64.5938
L9.42188 64.5938
z
" id="DejaVuSans-69"/>
      <path d="
M18.3125 70.2188
L18.3125 54.6875
L36.8125 54.6875
L36.8125 47.7031
L18.3125 47.7031
L18.3125 18.0156
Q18.3125 11.3281 20.1406 9.42188
Q21.9688 7.51562 27.5938 7.51562
L36.8125 7.51562
L36.8125 0
L27.5938 0
Q17.1875 0 13.2344 3.875
Q9.28125 7.76562 9.28125 18.0156
L9.28125 47.7031
L2.6875 47.7031
L2.6875 54.6875
L9.28125 54.6875
L9.28125 70.2188
z
" id="DejaVuSans-74"/>
      <path d="
M18.1094 8.20312
L18.1094 -20.7969
L9.07812 -20.7969
L9.07812 54.6875
L18.1094 54.6875
L18.1094 46.3906
Q20.9531 51.2656 25.2656 53.625
Q29.5938 56 35.5938 56
Q45.5625 56 51.7812 48.0938
Q58.0156 40.1875 58.0156 27.2969
Q58.0156 14.4062 51.7812 6.48438
Q45.5625 -1.42188 35.5938 -1.42188
Q29.5938 -1.42188 25.2656 0.953125
Q20.9531 3.32812 18.1094 8.20312
M48.6875 27.2969
Q48.6875 37.2031 44.6094 42.8438
Q40.5312 48.4844 33.4062 48.4844
Q26.2656 48.4844 22.1875 42.8438
Q18.1094 37.2031 18.1094 27.2969
Q18.1094 17.3906 22.1875 11.75
Q26.2656 6.10938 33.4062 6.10938
Q40.5312 6.10938 44.6094 11.75
Q48.6875 17.3906 48.6875 27.2969" id="DejaVuSans-70"/>
      <path d="
M44.2812 53.0781
L44.2812 44.5781
Q40.4844 46.5312 36.375 47.5
Q32.2812 48.4844 27.875 48.4844
Q21.1875 48.4844 17.8438 46.4375
Q14.5 44.3906 14.5 40.2812
Q14.5 37.1562 16.8906 35.375
Q19.2812 33.5938 26.5156 31.9844
L29.5938 31.2969
Q39.1562 29.25 43.1875 25.5156
Q47.2188 21.7812 47.2188 15.0938
Q47.2188 7.46875 41.1875 3.01562
Q35.1562 -1.42188 24.6094 -1.42188
Q20.2188 -1.42188 15.4531 -0.5625
Q10.6875 0.296875 5.42188 2
L5.42188 11.2812
Q10.4062 8.6875 15.2344 7.39062
Q20.0625 6.10938 24.8125 6.10938
Q31.1562 6.10938 34.5625 8.28125
Q37.9844 10.4531 37.9844 14.4062
Q37.9844 18.0625 35.5156 20.0156
Q33.0625 21.9688 24.7031 23.7812
L21.5781 24.5156
Q13.2344 26.2656 9.51562 29.9062
Q5.8125 33.5469 5.8125 39.8906
Q5.8125 47.6094 11.2812 51.7969
Q16.75 56 26.8125 56
Q31.7812 56 36.1719 55.2656
Q40.5781 54.5469 44.2812 53.0781" id="DejaVuSans-73"/>
     </defs>
     <g transform="translate(277.6096875 415.995)scale(0.12 -0.12)">
      <use xlink:href="#DejaVuSans-70"/>
      <use x="63.4765625" xlink:href="#DejaVuSans-6f"/>
      <use x="124.658203125" xlink:href="#DejaVuSans-69"/>
      <use x="152.44140625" xlink:href="#DejaVuSans-6e"/>
      <use x="215.8203125" xlink:href="#DejaVuSans-74"/>
      <use x="255.029296875" xlink:href="#DejaVuSans-73"/>
     </g>
    </g>
   </g>
   <g id="matplotlib.axis_2">
    <g id="ytick_1">
     <g id="line2d_15">
      <defs>
       <path d="
M0 0
L4 0" id="me8a85f7bf6" style="stroke:#000000;stroke-linecap:butt;stroke-width:0.5;"/>
      </defs>
      <g>
       <use style="stroke:#000000;stroke-linecap:butt;stroke-width:0.5;" x="72.0" xlink:href="#me8a85f7bf6" y="388.8"/>
      </g>
     </g>
     <g id="line2d_16">
      <defs>
       <path d="
M0 0
L-4 0" id="m1a32005dea" style="stroke:#000000;stroke-linecap:butt;stroke-width:0.5;"/>
      </defs>
      <g>
       <use style="stroke:#000000;stroke-linecap:butt;stroke-width:0.5;" x="518.4" xlink:href="#m1a32005dea" y="388.8"/>
      </g>
     </g>
     <g id="text_8">
      <!-- −1 -->
      <defs>
       <path d="
M10.5938 35.5
L73.1875 35.5
L73.1875 27.2031
L10.5938 27.2031
z
" id="DejaVuSans-2212"/>
      </defs>
      <g transform="translate(52.68875 393.174375)scale(0.12 -0.12)">
       <use xlink:href="#DejaVuSans-2212"/>
       <use x="83.7890625" xlink:href="#DejaVuSans-31"/>
      </g>
     </g>
    </g>
    <g id="ytick_2">
     <g id="line2d_17">
      <g>
       <use style="stroke:#000000;stroke-linecap:butt;stroke-width:0.5;" x="72.0" xlink:href="#me8a85f7bf6" y="339.428571429"/>
      </g>
     </g>
     <g id="line2d_18">
      <g>
       <use style="stroke:#000000;stroke-linecap:butt;stroke-width:0.5;" x="518.4" xlink:href="#m1a32005dea" y="339.428571429"/>
      </g>
     </g>
     <g id="text_9">
      <!-- 0 -->
      <g transform="translate(61.953125 343.796383929)scale(0.12 -0.12)">
       <use xlink:href="#DejaVuSans-30"/>
      </g>
     </g>
    </g>
    <g id="ytick_3">
     <g id="line2d_19">
      <g>
       <use style="stroke:#000000;stroke-linecap:butt;stroke-width:0.5;" x="72.0" xlink:href="#me8a85f7bf6" y="290.057142857"/>
      </g>
     </g>
     <g id="line2d_20">
      <g>
       <use style="stroke:#000000;stroke-linecap:butt;stroke-width:0.5;" x="518.4" xlink:href="#m1a32005dea" y="290.057142857"/>
      </g>
     </g>
     <g id="text_10">
      <!-- 1 -->
      <g transform="translate(62.79125 294.431517857)scale(0.12 -0.12)">
       <use xlink:href="#DejaVuSans-31"/>
      </g>
     </g>
    </g>
    <g id="ytick_4">
     <g id="line2d_21">
      <g>
       <use style="stroke:#000000;stroke-linecap:butt;stroke-width:0.5;" x="72.0" xlink:href="#me8a85f7bf6" y="240.685714286"/>
      </g>
     </g>
     <g id="line2d_22">
      <g>
       <use style="stroke:#000000;stroke-linecap:butt;stroke-width:0.5;" x="518.4" xlink:href="#m1a32005dea" y="240.685714286"/>
      </g>
     </g>
     <g id="text_11">
      <!-- 2 -->
      <g transform="translate(62.44625 245.138839286)scale(0.12 -0.12)">
       <use xlink:href="#DejaVuSans-32"/>
      </g>
     </g>
    </g>
    <g id="ytick_5">
     <g id="line2d_23">
      <g>
       <use style="stroke:#000000;stroke-linecap:butt;stroke-width:0.5;" x="72.0" xlink:href="#me8a85f7bf6" y="191.314285714"/>
      </g>
     </g>
     <g id="line2d_24">
      <g>
       <use style="stroke:#000000;stroke-linecap:butt;stroke-width:0.5;" x="518.4" xlink:href="#m1a32005dea" y="191.314285714"/>
      </g>
     </g>
     <g id="text_12">
      <!-- 3 -->
      <defs>
       <path d="
M40.5781 39.3125
Q47.6562 37.7969 51.625 33
Q55.6094 28.2188 55.6094 21.1875
Q55.6094 10.4062 48.1875 4.48438
Q40.7656 -1.42188 27.0938 -1.42188
Q22.5156 -1.42188 17.6562 -0.515625
Q12.7969 0.390625 7.625 2.20312
L7.625 11.7188
Q11.7188 9.32812 16.5938 8.10938
Q21.4844 6.89062 26.8125 6.89062
Q36.0781 6.89062 40.9375 10.5469
Q45.7969 14.2031 45.7969 21.1875
Q45.7969 27.6406 41.2812 31.2656
Q36.7656 34.9062 28.7188 34.9062
L20.2188 34.9062
L20.2188 43.0156
L29.1094 43.0156
Q36.375 43.0156 40.2344 45.9219
Q44.0938 48.8281 44.0938 54.2969
Q44.0938 59.9062 40.1094 62.9062
Q36.1406 65.9219 28.7188 65.9219
Q24.6562 65.9219 20.0156 65.0312
Q15.375 64.1562 9.8125 62.3125
L9.8125 71.0938
Q15.4375 72.6562 20.3438 73.4375
Q25.25 74.2188 29.5938 74.2188
Q40.8281 74.2188 47.3594 69.1094
Q53.9062 64.0156 53.9062 55.3281
Q53.9062 49.2656 50.4375 45.0938
Q46.9688 40.9219 40.5781 39.3125" id="DejaVuSans-33"/>
      </defs>
      <g transform="translate(62.241875 195.682098214)scale(0.12 -0.12)">
       <use xlink:href="#DejaVuSans-33"/>
      </g>
     </g>
    </g>
    <g id="ytick_6">
     <g id="line2d_25">
      <g>
       <use style="stroke:#000000;stroke-linecap:butt;stroke-width:0.5;" x="72.0" xlink:href="#me8a85f7bf6" y="141.942857143"/>
      </g>
     </g>
     <g id="line2d_26">
      <g>
       <use style="stroke:#000000;stroke-linecap:butt;stroke-width:0.5;" x="518.4" xlink:href="#m1a32005dea" y="141.942857143"/>
      </g>
     </g>
     <g id="text_13">
      <!-- 4 -->
      <g transform="translate(61.625 146.317232143)scale(0.12 -0.12)">
       <use xlink:href="#DejaVuSans-34"/>
      </g>
     </g>
    </g>
    <g id="ytick_7">
     <g id="line2d_27">
      <g>
       <use style="stroke:#000000;stroke-linecap:butt;stroke-width:0.5;" x="72.0" xlink:href="#me8a85f7bf6" y="92.5714285714"/>
      </g>
     </g>
     <g id="line2d_28">
      <g>
       <use style="stroke:#000000;stroke-linecap:butt;stroke-width:0.5;" x="518.4" xlink:href="#m1a32005dea" y="92.5714285714"/>
      </g>
     </g>
     <g id="text_14">
      <!-- 5 -->
      <defs>
       <path d="
M10.7969 72.9062
L49.5156 72.9062
L49.5156 64.5938
L19.8281 64.5938
L19.8281 46.7344
Q21.9688 47.4688 24.1094 47.8281
Q26.2656 48.1875 28.4219 48.1875
Q40.625 48.1875 47.75 41.5
Q54.8906 34.8125 54.8906 23.3906
Q54.8906 11.625 47.5625 5.09375
Q40.2344 -1.42188 26.9062 -1.42188
Q22.3125 -1.42188 17.5469 -0.640625
Q12.7969 0.140625 7.71875 1.70312
L7.71875 11.625
Q12.1094 9.23438 16.7969 8.0625
Q21.4844 6.89062 26.7031 6.89062
Q35.1562 6.89062 40.0781 11.3281
Q45.0156 15.7656 45.0156 23.3906
Q45.0156 31 40.0781 35.4375
Q35.1562 39.8906 26.7031 39.8906
Q22.75 39.8906 18.8125 39.0156
Q14.8906 38.1406 10.7969 36.2812
z
" id="DejaVuSans-35"/>
      </defs>
      <g transform="translate(62.339375 96.8604910714)scale(0.12 -0.12)">
       <use xlink:href="#DejaVuSans-35"/>
      </g>
     </g>
    </g>
    <g id="ytick_8">
     <g id="line2d_29">
      <g>
       <use style="stroke:#000000;stroke-linecap:butt;stroke-width:0.5;" x="72.0" xlink:href="#me8a85f7bf6" y="43.2"/>
      </g>
     </g>
     <g id="line2d_30">
      <g>
       <use style="stroke:#000000;stroke-linecap:butt;stroke-width:0.5;" x="518.4" xlink:href="#m1a32005dea" y="43.2"/>
      </g>
     </g>
     <g id="text_15">
      <!-- 6 -->
      <g transform="translate(61.95875 47.5678125)scale(0.12 -0.12)">
       <use xlink:href="#DejaVuSans-36"/>
      </g>
     </g>
    </g>
    <g id="text_16">
     <!-- mV -->
     <defs>
      <path d="
M52 44.1875
Q55.375 50.25 60.0625 53.125
Q64.75 56 71.0938 56
Q79.6406 56 84.2812 50.0156
Q88.9219 44.0469 88.9219 33.0156
L88.9219 0
L79.8906 0
L79.8906 32.7188
Q79.8906 40.5781 77.0938 44.375
Q74.3125 48.1875 68.6094 48.1875
Q61.625 48.1875 57.5625 43.5469
Q53.5156 38.9219 53.5156 30.9062
L53.5156 0
L44.4844 0
L44.4844 32.7188
Q44.4844 40.625 41.7031 44.4062
Q38.9219 48.1875 33.1094 48.1875
Q26.2188 48.1875 22.1562 43.5312
Q18.1094 38.875 18.1094 30.9062
L18.1094 0
L9.07812 0
L9.07812 54.6875
L18.1094 54.6875
L18.1094 46.1875
Q21.1875 51.2188 25.4844 53.6094
Q29.7812 56 35.6875 56
Q41.6562 56 45.8281 52.9688
Q50 49.9531 52 44.1875" id="DejaVuSans-6d"/>
      <path d="
M28.6094 0
L0.78125 72.9062
L11.0781 72.9062
L34.1875 11.5312
L57.3281 72.9062
L67.5781 72.9062
L39.7969 0
z
" id="DejaVuSans-56"/>
     </defs>
     <g transform="translate(47.68875 225.354375)rotate(-90.0)scale(0.12 -0.12)">
      <use xlink:href="#DejaVuSans-6d"/>
      <use x="97.412109375" xlink:href="#DejaVuSans-56"/>
     </g>
    </g>
   </g>
   <g id="patch_3">
    <path d="
M72 43.2
L518.4 43.2" style="fill:none;stroke:#000000;"/>
   </g>
   <g id="patch_4">
    <path d="
M518.4 388.8
L518.4 43.2" style="fill:none;stroke:#000000;"/>
   </g>
   <g id="patch_5">
    <path d="
M72 388.8
L518.4 388.8" style="fill:none;stroke:#000000;"/>
   </g>
   <g id="patch_6">
    <path d="
M72 388.8
L72 43.2" style="fill:none;stroke:#000000;"/>
   </g>
   <g id="text_17">
    <!-- Base trace with noise added -->
    <defs>
     <path d="
M54.8906 33.0156
L54.8906 0
L45.9062 0
L45.9062 32.7188
Q45.9062 40.4844 42.875 44.3281
Q39.8438 48.1875 33.7969 48.1875
Q26.5156 48.1875 22.3125 43.5469
Q18.1094 38.9219 18.1094 30.9062
L18.1094 0
L9.07812 0
L9.07812 75.9844
L18.1094 75.9844
L18.1094 46.1875
Q21.3438 51.125 25.7031 53.5625
Q30.0781 56 35.7969 56
Q45.2188 56 50.0469 50.1719
Q54.8906 44.3438 54.8906 33.0156" id="DejaVuSans-68"/>
     <path d="
M34.2812 27.4844
Q23.3906 27.4844 19.1875 25
Q14.9844 22.5156 14.9844 16.5
Q14.9844 11.7188 18.1406 8.90625
Q21.2969 6.10938 26.7031 6.10938
Q34.1875 6.10938 38.7031 11.4062
Q43.2188 16.7031 43.2188 25.4844
L43.2188 27.4844
z

M52.2031 31.2031
L52.2031 0
L43.2188 0
L43.2188 8.29688
Q40.1406 3.32812 35.5469 0.953125
Q30.9531 -1.42188 24.3125 -1.42188
Q15.9219 -1.42188 10.9531 3.29688
Q6 8.01562 6 15.9219
Q6 25.1406 12.1719 29.8281
Q18.3594 34.5156 30.6094 34.5156
L43.2188 34.5156
L43.2188 35.4062
Q43.2188 41.6094 39.1406 45
Q35.0625 48.3906 27.6875 48.3906
Q23 48.3906 18.5469 47.2656
Q14.1094 46.1406 10.0156 43.8906
L10.0156 52.2031
Q14.9375 54.1094 19.5781 55.0469
Q24.2188 56 28.6094 56
Q40.4844 56 46.3438 49.8438
Q52.2031 43.7031 52.2031 31.2031" id="DejaVuSans-61"/>
     <path id="DejaVuSans-20"/>
     <path d="
M19.6719 34.8125
L19.6719 8.10938
L35.5 8.10938
Q43.4531 8.10938 47.2812 11.4062
Q51.125 14.7031 51.125 21.4844
Q51.125 28.3281 47.2812 31.5625
Q43.4531 34.8125 35.5 34.8125
z

M19.6719 64.7969
L19.6719 42.8281
L34.2812 42.8281
Q41.5 42.8281 45.0312 45.5312
Q48.5781 48.25 48.5781 53.8125
Q48.5781 59.3281 45.0312 62.0625
Q41.5 64.7969 34.2812 64.7969
z

M9.8125 72.9062
L35.0156 72.9062
Q46.2969 72.9062 52.3906 68.2188
Q58.5 63.5312 58.5 54.8906
Q58.5 48.1875 55.375 44.2344
Q52.25 40.2812 46.1875 39.3125
Q53.4688 37.75 57.5 32.7812
Q61.5312 27.8281 61.5312 20.4062
Q61.5312 10.6406 54.8906 5.3125
Q48.25 0 35.9844 0
L9.8125 0
z
" id="DejaVuSans-42"/>
     <path d="
M45.4062 46.3906
L45.4062 75.9844
L54.3906 75.9844
L54.3906 0
L45.4062 0
L45.4062 8.20312
Q42.5781 3.32812 38.25 0.953125
Q33.9375 -1.42188 27.875 -1.42188
Q17.9688 -1.42188 11.7344 6.48438
Q5.51562 14.4062 5.51562 27.2969
Q5.51562 40.1875 11.7344 48.0938
Q17.9688 56 27.875 56
Q33.9375 56 38.25 53.625
Q42.5781 51.2656 45.4062 46.3906
M14.7969 27.2969
Q14.7969 17.3906 18.875 11.75
Q22.9531 6.10938 30.0781 6.10938
Q37.2031 6.10938 41.2969 11.75
Q45.4062 17.3906 45.4062 27.2969
Q45.4062 37.2031 41.2969 42.8438
Q37.2031 48.4844 30.0781 48.4844
Q22.9531 48.4844 18.875 42.8438
Q14.7969 37.2031 14.7969 27.2969" id="DejaVuSans-64"/>
     <path d="
M4.20312 54.6875
L13.1875 54.6875
L24.4219 12.0156
L35.5938 54.6875
L46.1875 54.6875
L57.4219 12.0156
L68.6094 54.6875
L77.5938 54.6875
L63.2812 0
L52.6875 0
L40.9219 44.8281
L29.1094 0
L18.5 0
z
" id="DejaVuSans-77"/>
     <path d="
M56.2031 29.5938
L56.2031 25.2031
L14.8906 25.2031
Q15.4844 15.9219 20.4844 11.0625
Q25.4844 6.20312 34.4219 6.20312
Q39.5938 6.20312 44.4531 7.46875
Q49.3125 8.73438 54.1094 11.2812
L54.1094 2.78125
Q49.2656 0.734375 44.1875 -0.34375
Q39.1094 -1.42188 33.8906 -1.42188
Q20.7969 -1.42188 13.1562 6.1875
Q5.51562 13.8125 5.51562 26.8125
Q5.51562 40.2344 12.7656 48.1094
Q20.0156 56 32.3281 56
Q43.3594 56 49.7812 48.8906
Q56.2031 41.7969 56.2031 29.5938
M47.2188 32.2344
Q47.125 39.5938 43.0938 43.9844
Q39.0625 48.3906 32.4219 48.3906
Q24.9062 48.3906 20.3906 44.1406
Q15.875 39.8906 15.1875 32.1719
z
" id="DejaVuSans-65"/>
     <path d="
M48.7812 52.5938
L48.7812 44.1875
Q44.9688 46.2969 41.1406 47.3438
Q37.3125 48.3906 33.4062 48.3906
Q24.6562 48.3906 19.8125 42.8438
Q14.9844 37.3125 14.9844 27.2969
Q14.9844 17.2812 19.8125 11.7344
Q24.6562 6.20312 33.4062 6.20312
Q37.3125 6.20312 41.1406 7.25
Q44.9688 8.29688 48.7812 10.4062
L48.7812 2.09375
Q45.0156 0.34375 40.9844 -0.53125
Q36.9688 -1.42188 32.4219 -1.42188
Q20.0625 -1.42188 12.7812 6.34375
Q5.51562 14.1094 5.51562 27.2969
Q5.51562 40.6719 12.8594 48.3281
Q20.2188 56 33.0156 56
Q37.1562 56 41.1094 55.1406
Q45.0625 54.2969 48.7812 52.5938" id="DejaVuSans-63"/>
     <path d="
M41.1094 46.2969
Q39.5938 47.1719 37.8125 47.5781
Q36.0312 48 33.8906 48
Q26.2656 48 22.1875 43.0469
Q18.1094 38.0938 18.1094 28.8125
L18.1094 0
L9.07812 0
L9.07812 54.6875
L18.1094 54.6875
L18.1094 46.1875
Q20.9531 51.1719 25.4844 53.5781
Q30.0312 56 36.5312 56
Q37.4531 56 38.5781 55.875
Q39.7031 55.7656 41.0625 55.5156
z
" id="DejaVuSans-72"/>
    </defs>
    <g transform="translate(193.60575 38.2)scale(0.144 -0.144)">
     <use xlink:href="#DejaVuSans-42"/>
     <use x="68.603515625" xlink:href="#DejaVuSans-61"/>
     <use x="129.8828125" xlink:href="#DejaVuSans-73"/>
     <use x="181.982421875" xlink:href="#DejaVuSans-65"/>
     <use x="243.505859375" xlink:href="#DejaVuSans-20"/>
     <use x="275.29296875" xlink:href="#DejaVuSans-74"/>
     <use x="314.501953125" xlink:href="#DejaVuSans-72"/>
     <use x="355.615234375" xlink:href="#DejaVuSans-61"/>
     <use x="416.89453125" xlink:href="#DejaVuSans-63"/>
     <use x="471.875" xlink:href="#DejaVuSans-65"/>
     <use x="533.3984375" xlink:href="#DejaVuSans-20"/>
     <use x="565.185546875" xlink:href="#DejaVuSans-77"/>
     <use x="646.97265625" xlink:href="#DejaVuSans-69"/>
     <use x="674.755859375" xlink:href="#DejaVuSans-74"/>
     <use x="713.96484375" xlink:href="#DejaVuSans-68"/>
     <use x="777.34375" xlink:href="#DejaVuSans-20"/>
     <use x="809.130859375" xlink:href="#DejaVuSans-6e"/>
     <use x="872.509765625" xlink:href="#DejaVuSans-6f"/>
     <use x="933.69140625" xlink:href="#DejaVuSans-69"/>
     <use x="961.474609375" xlink:href="#DejaVuSans-73"/>
     <use x="1013.57421875" xlink:href="#DejaVuSans-65"/>
     <use x="1075.09765625" xlink:href="#DejaVuSans-20"/>
     <use x="1106.88476562" xlink:href="#DejaVuSans-61"/>
     <use x="1168.1640625" xlink:href="#DejaVuSans-64"/>
     <use x="1231.640625" xlink:href="#DejaVuSans-64"/>
     <use x="1295.1171875" xlink:href="#DejaVuSans-65"/>
     <use x="1356.640625" xlink:href="#DejaVuSans-64"/>
    </g>
   </g>
  </g>
 </g>
 <defs>
  <clipPath id="p7ff5b81e1d">
   <rect height="345.6" width="446.4" x="72.0" y="43.2"/>
  </clipPath>
 </defs>
</svg>
