<?xml version="1.0" encoding="utf-8" standalone="no"?>
<!DOCTYPE svg PUBLIC "-//W3C//DTD SVG 1.1//EN"
  "http://www.w3.org/Graphics/SVG/1.1/DTD/svg11.dtd">
<!-- Created with matplotlib (http://matplotlib.sourceforge.net/) -->
<svg height="432pt" version="1.1" viewBox="0 0 576 432" width="576pt" xmlns="http://www.w3.org/2000/svg" xmlns:xlink="http://www.w3.org/1999/xlink">
 <defs>
  <style type="text/css">
*{stroke-linecap:square;stroke-linejoin:round;}
  </style>
 </defs>
 <g id="figure_1">
  <g id="patch_1">
   <path d="
M0 432
L576 432
L576 0
L0 0
z
" style="fill:#ffffff;"/>
  </g>
  <g id="axes_1">
   <g id="patch_2">
    <path d="
M72 388.8
L518.4 388.8
L518.4 43.2
L72 43.2
z
" style="fill:#ffffff;"/>
   </g>
   <g id="line2d_1">
    <path clip-path="url(#p7ff5b81e1d)" d="
M72 338.658
L72.4464 338.162
L72.8928 337.972
L73.3392 338.208
L74.6784 337.057
L75.5712 338.206
L76.0176 337.266
L76.464 338.229
L76.9104 338.885
L77.3568 339.181
L77.8032 340.566
L78.2496 340.242
L78.696 340.305
L79.1424 339.182
L79.5888 340.292
L80.0352 340.624
L80.928 338.929
L81.3744 338.245
L81.8208 338.292
L82.2672 336.269
L82.7136 337.441
L83.16 338
L84.0528 338.089
L84.4992 337.387
L84.9456 338.202
L85.392 338.417
L85.8384 337.709
L86.2848 337.434
L86.7312 336.955
L87.1776 338.818
L87.624 339.151
L88.0704 338.972
L88.5168 339.464
L88.9632 339.109
L89.4096 338.396
L89.856 339.355
L90.3024 339.951
L90.7488 339.472
L91.1952 339.76
L91.6416 340.897
L92.5344 341.875
L92.9808 341.308
L93.4272 341.946
L93.8736 341.775
L94.7664 342.494
L95.2128 342.455
L95.6592 342.18
L96.1056 342.446
L96.552 341.97
L96.9984 342.69
L97.4448 343.951
L97.8912 343.945
L98.3376 342.738
L98.784 342.052
L99.2304 341.751
L99.6768 341.682
L100.123 339.875
L100.57 340.506
L101.462 337.65
L101.909 337.503
L102.355 337.528
L103.248 337.22
L104.141 336.239
L105.034 337.164
L105.48 336.891
L105.926 336.46
L106.373 334.502
L106.819 333.695
L107.266 333.413
L107.712 334.237
L108.158 332.768
L108.605 332.775
L109.051 333.57
L109.498 333.431
L109.944 333.93
L110.39 334.766
L110.837 336.037
L111.283 335.794
L111.73 334.918
L112.176 335.195
L112.622 336.04
L113.069 335.917
L113.962 336.803
L114.408 337.647
L114.854 337.732
L115.301 336.986
L115.747 336.91
L116.194 337.57
L116.64 337.19
L117.086 337.983
L117.533 337.197
L117.979 337.243
L118.426 336.158
L118.872 335.43
L119.318 336.329
L120.211 336.212
L120.658 336.443
L121.104 337.9
L121.55 337.924
L121.997 338.684
L122.443 337.656
L122.89 338.059
L123.336 337.436
L123.782 336.437
L124.229 334.988
L124.675 334.52
L125.122 333.675
L126.014 333.899
L126.461 332.903
L127.354 332.467
L127.8 332.711
L128.693 332.731
L129.139 332.211
L129.586 333.913
L130.032 334.09
L130.478 333.641
L130.925 333.891
L131.371 333.613
L131.818 333.793
L132.264 334.152
L132.71 332.431
L133.157 332.529
L133.603 332.042
L134.05 331.794
L134.496 333.522
L134.942 333.869
L135.389 335.23
L136.282 336.271
L136.728 335.828
L137.174 335.817
L137.621 337.083
L138.067 338.008
L138.514 337.94
L138.96 337.636
L139.853 326.669
L140.746 318.242
L141.638 312.755
L142.531 306.627
L142.978 302.621
L143.424 301.307
L144.763 294.744
L146.549 283.413
L147.442 278.471
L148.334 272.342
L148.781 270.079
L149.227 266.675
L149.674 264.894
L150.12 261.703
L150.566 260.004
L151.013 257.177
L151.459 255.599
L151.906 253.163
L152.352 251.684
L152.798 248.591
L153.245 248.034
L154.138 243.135
L154.584 241.802
L155.03 241.088
L155.477 239.983
L155.923 237.41
L156.37 236.375
L156.816 234.807
L157.262 233.746
L157.709 233.129
L158.602 227.63
L159.048 227.109
L159.494 225.831
L160.387 222.41
L160.834 221.777
L161.28 220.729
L162.173 217.247
L162.619 216.43
L163.066 216.684
L164.405 210.321
L164.851 209.698
L165.298 209.584
L165.744 207.821
L167.083 204.185
L167.53 203.214
L167.976 203.381
L168.422 201.833
L168.869 201.384
L169.762 197.441
L170.654 194.509
L171.101 192.751
L171.547 192.726
L171.994 191.138
L172.44 190.208
L172.886 189.637
L173.779 187.38
L174.226 185.704
L174.672 185.523
L175.118 184.232
L175.565 181.747
L176.458 179.055
L176.904 178.85
L177.35 177.638
L177.797 177.416
L178.243 177.672
L178.69 176.734
L179.136 174.58
L179.582 173.644
L180.475 171.128
L180.922 171.105
L181.368 170.664
L181.814 169.894
L182.707 167.786
L183.154 166.687
L183.6 166.649
L184.493 165.981
L184.939 164.762
L185.386 162.311
L185.832 161.313
L186.725 157.199
L187.171 156.243
L187.618 155.799
L188.064 153.342
L188.957 150.807
L190.296 148.9
L191.189 149.274
L192.528 147.158
L192.974 146.956
L193.421 146.543
L193.867 145.685
L194.314 146.148
L194.76 145.489
L195.206 143.634
L195.653 142.673
L196.099 141.09
L196.546 140.582
L196.992 139.766
L197.438 139.697
L197.885 139.127
L198.331 139.232
L198.778 137.882
L199.67 136.277
L200.117 135.974
L200.563 135.341
L201.01 134.292
L201.456 134.24
L201.902 133.212
L202.349 132.72
L202.795 133.229
L203.242 132.199
L203.688 131.531
L204.134 131.106
L204.581 130.483
L205.027 130.112
L205.474 129.356
L205.92 129.012
L206.366 129.568
L206.813 128.136
L207.259 127.49
L207.706 127.39
L208.152 126.933
L209.045 126.56
L209.491 126.899
L209.938 126.326
L210.384 125.396
L211.277 125.242
L211.723 123.872
L212.17 123.602
L212.616 123.593
L213.062 121.781
L213.955 121.028
L214.402 120.162
L214.848 120.236
L215.294 118.98
L216.187 117.856
L216.634 117.574
L217.526 118.175
L217.973 117.775
L218.419 118.753
L218.866 118.387
L219.312 119.253
L219.758 119.659
L220.651 119.584
L221.098 118.893
L221.544 118.771
L222.437 117.179
L222.883 116.045
L223.33 116.047
L223.776 115.781
L224.222 115.688
L224.669 115.98
L225.115 115.741
L225.562 116.013
L226.454 114.284
L226.901 112.478
L227.347 112.637
L227.794 113.244
L228.686 113.299
L229.133 112.744
L229.579 111.603
L230.472 109.918
L230.918 110.829
L231.811 109.4
L232.258 109.308
L232.704 110.392
L233.15 109.552
L233.597 109.178
L234.043 108.471
L234.49 106.922
L235.382 105.724
L235.829 104.644
L236.275 104.352
L236.722 103.867
L237.168 104.562
L237.614 103.688
L238.061 103.874
L238.507 103.32
L238.954 102.987
L239.4 103.083
L239.846 103.726
L240.293 103.27
L240.739 102.315
L241.186 101.926
L241.632 103.205
L242.078 102.572
L242.525 103.491
L242.971 102.657
L243.418 102.959
L243.864 102.886
L244.31 102.083
L245.203 99.9545
L245.65 100.564
L246.096 99.6972
L246.542 99.864
L246.989 99.0127
L247.435 99.3754
L248.774 99.5127
L249.221 97.8866
L249.667 97.9574
L250.114 97.7961
L250.56 96.3491
L251.006 97.0588
L251.453 95.7557
L251.899 95.3025
L252.346 96.0332
L253.238 94.617
L253.685 93.127
L254.578 92.6043
L255.024 93.3903
L255.47 93.6351
L255.917 95.1769
L256.363 95.1883
L256.81 96.1916
L257.702 97.2757
L258.149 96.573
L258.595 96.6982
L259.042 96.5282
L259.488 95.4894
L259.934 95.3863
L260.381 94.7498
L260.827 94.4721
L261.274 94.93
L261.72 94.6392
L262.166 94.7489
L262.613 94.1112
L263.059 94.7937
L263.506 94.8238
L263.952 93.9753
L264.398 94.4983
L264.845 94.276
L265.738 95.9339
L266.184 95.8932
L266.63 94.4139
L267.077 95.2708
L267.523 93.8477
L267.97 93.1984
L268.416 93.0819
L268.862 91.9202
L269.309 92.3488
L269.755 92.3561
L270.202 91.5642
L270.648 91.4722
L271.094 91.1962
L271.987 93.3102
L272.434 94.4079
L272.88 93.8861
L273.326 93.6347
L273.773 93.6938
L274.666 94.2815
L275.112 91.6279
L276.451 92.3061
L276.898 92.4896
L277.344 91.192
L277.79 91.9082
L278.237 91.384
L278.683 90.52
L279.13 90.131
L279.576 90.6447
L280.022 89.6936
L280.469 90.0526
L280.915 90.2143
L281.362 89.5443
L281.808 89.7523
L282.254 89.2396
L282.701 89.115
L283.147 88.8264
L283.594 88.7607
L284.04 88.2721
L284.486 88.2109
L284.933 87.0064
L285.379 86.5729
L285.826 85.3686
L286.272 85.0245
L286.718 85.7339
L287.165 85.0606
L288.058 84.0998
L288.504 84.5971
L288.95 84.4372
L289.843 83.0298
L290.29 83.0171
L290.736 82.4836
L291.182 82.626
L292.075 82.4245
L292.522 83.1216
L292.968 84.666
L293.414 85.0307
L293.861 84.4933
L294.307 84.3008
L295.2 85.4811
L295.646 84.2646
L296.093 85.021
L296.539 85.2681
L296.986 85.2277
L297.432 84.5408
L298.325 84.4723
L298.771 83.4608
L299.218 83.0217
L299.664 83.1047
L300.11 82.8107
L300.557 83.2691
L301.003 83.4312
L301.896 84.436
L302.342 82.853
L302.789 83.4602
L303.235 82.858
L303.682 83.1681
L304.128 82.6645
L304.574 83.4128
L305.021 82.5378
L305.467 83.124
L305.914 82.0381
L306.36 81.5877
L307.253 82.8538
L307.699 82.7145
L308.146 82.7418
L308.592 83.8986
L309.038 84.2844
L309.485 83.4406
L309.931 83.3651
L310.824 82.692
L311.27 81.3302
L311.717 80.9274
L312.163 80.7857
L312.61 79.8953
L313.056 78.4656
L313.502 77.7211
L313.949 77.4055
L314.842 80.1556
L315.288 80.9049
L316.181 78.0976
L317.074 77.0796
L317.52 77.6608
L317.966 77.3565
L318.413 76.6878
L318.859 77.5337
L319.306 77.8613
L319.752 77.8648
L320.645 77.5505
L321.091 78.3232
L321.538 77.3279
L322.43 77.4426
L322.877 76.7097
L323.323 77.0051
L323.77 78.3411
L324.216 78.4069
L324.662 78.8903
L325.109 78.5448
L325.555 79.5241
L326.002 78.7588
L326.448 78.9621
L326.894 77.9674
L327.341 79.2066
L328.234 77.3987
L328.68 78.4634
L329.126 76.919
L329.573 77.6175
L330.019 76.9442
L330.466 76.5127
L330.912 77.9155
L331.358 77.2478
L331.805 77.9201
L332.251 78.0034
L332.698 78.2871
L333.144 79.9044
L333.59 79.881
L334.037 79.6343
L334.483 79.1145
L334.93 78.2796
L335.376 79.6268
L335.822 79.9042
L336.269 78.794
L336.715 80.1653
L337.162 80.3773
L337.608 79.9753
L338.054 81.9304
L338.501 81.5779
L338.947 82.0913
L339.394 81.9571
L339.84 81.6237
L340.286 81.6713
L340.733 80.9164
L341.179 79.5193
L341.626 78.529
L342.072 79.7655
L342.518 79.5681
L342.965 80.6998
L343.411 81.481
L343.858 81.6013
L344.304 81.3566
L344.75 81.8394
L345.197 82.7955
L345.643 81.1932
L346.09 80.6508
L346.536 81.277
L346.982 80.6517
L347.429 81.5783
L347.875 81.0585
L348.322 81.4412
L349.214 80.7489
L350.107 79.0435
L350.554 79.5523
L351 78.2786
L351.446 77.4002
L351.893 77.3479
L352.339 76.692
L352.786 76.5274
L353.232 77.1316
L353.678 77.3741
L354.125 77.1911
L354.571 76.1552
L355.018 76.6186
L355.464 76.2804
L355.91 76.1481
L356.357 76.6357
L356.803 76.2857
L357.25 75.4806
L357.696 75.45
L358.142 75.9008
L358.589 75.5753
L359.035 74.386
L359.482 74.9478
L359.928 73.8776
L360.821 73.8635
L361.714 74.7233
L362.16 73.9732
L362.606 79.3379
L366.178 109.55
L366.624 112.297
L367.07 116.097
L367.963 121.506
L368.41 125.262
L369.749 133.96
L371.088 142.369
L371.534 144.585
L371.981 147.371
L372.427 151.582
L372.874 152.735
L373.32 155.929
L373.766 157.748
L375.552 169.093
L375.998 169.98
L377.338 179.619
L377.784 181.468
L378.677 186.469
L379.123 187.41
L379.57 189.253
L380.016 189.262
L380.462 191.455
L381.355 194.623
L381.802 197.859
L382.248 198.538
L383.141 202.382
L383.587 203.161
L384.034 203.243
L384.48 204.844
L384.926 206.978
L385.373 208.356
L385.819 208.303
L386.266 209.56
L386.712 211.263
L387.158 211.825
L387.605 215.496
L388.051 216.738
L388.498 216.668
L389.39 219.17
L389.837 219.55
L390.283 221.159
L391.176 222.789
L391.622 224.546
L392.515 228.974
L392.962 230.078
L393.408 231.663
L394.301 235.883
L394.747 236.101
L395.194 237.091
L395.64 238.43
L396.086 240.223
L396.533 241.253
L396.979 242.003
L397.426 240.281
L397.872 242.28
L398.318 242.653
L399.211 244.143
L399.658 244.451
L400.104 245.103
L400.55 247.626
L400.997 249.025
L401.443 249.337
L402.336 251.193
L402.782 251.919
L403.229 253.425
L403.675 255.439
L404.122 255.587
L405.014 258.57
L405.461 259.317
L405.907 259.436
L406.354 260.912
L407.246 262.065
L407.693 261.902
L408.139 262.461
L408.586 262.833
L409.032 263.84
L409.478 264.16
L409.925 265.679
L410.371 266.716
L410.818 266.265
L411.264 265.547
L411.71 266.627
L412.157 268.688
L412.603 269.757
L413.05 269.711
L413.496 269.439
L413.942 270.589
L414.389 272.225
L414.835 274.314
L415.728 275.681
L416.174 278.137
L417.067 277.623
L417.514 278.277
L418.853 276.342
L419.299 276.136
L419.746 277.206
L420.192 277.607
L421.085 278.816
L422.424 277.779
L422.87 277.881
L423.317 278.272
L423.763 279.762
L424.21 279.839
L424.656 279.381
L425.102 280.393
L425.549 280.603
L425.995 280.118
L426.442 279.327
L426.888 279.96
L427.334 279.922
L427.781 280.258
L428.227 281.665
L428.674 283.694
L429.12 285.084
L429.566 284.628
L430.013 284.884
L430.459 286.209
L430.906 286.626
L431.798 289.037
L432.691 289.343
L433.138 290.068
L433.584 291.883
L434.03 291.234
L434.477 292.193
L434.923 292.558
L435.37 293.551
L435.816 293.243
L436.262 293.347
L436.709 292.192
L437.155 291.87
L437.602 292.606
L438.048 292.662
L438.494 293.686
L438.941 292.422
L439.387 293.578
L439.834 294.123
L440.28 293.917
L440.726 294.827
L441.173 294.528
L441.619 294.983
L442.512 296.991
L442.958 297.318
L443.851 299.861
L444.298 301.828
L445.19 303.205
L445.637 303.591
L446.083 302.272
L446.53 302.682
L446.976 303.461
L447.422 303.923
L447.869 303.43
L448.315 304.014
L449.208 305.373
L449.654 305.789
L450.101 305.613
L450.547 305.991
L451.44 304.317
L451.886 304.102
L452.333 305.034
L452.779 304.296
L453.226 305.372
L454.118 305.877
L454.565 305.081
L455.011 305.024
L455.458 304.688
L455.904 305.816
L456.35 304.762
L456.797 304.997
L457.243 305.661
L457.69 306.963
L458.136 306.844
L458.582 307.406
L459.029 306.664
L459.475 307.282
L460.814 309.863
L461.261 310.01
L461.707 311.069
L462.154 310.923
L462.6 311.43
L463.046 311.23
L463.493 310.563
L463.939 310.949
L464.386 310.467
L464.832 310.775
L465.725 313.616
L466.171 313.556
L466.618 313.926
L467.064 313.451
L467.51 314.378
L467.957 314.805
L468.403 314.796
L468.85 315.651
L469.742 316.748
L470.189 317.383
L470.635 317.065
L471.082 317.379
L471.528 317.145
L471.974 317.618
L472.421 316.417
L472.867 315.851
L473.76 315.816
L474.206 316.278
L474.653 317.289
L475.099 317.877
L475.546 318.239
L476.438 317.51
L476.885 316.434
L477.331 316.517
L477.778 315.663
L478.224 316.395
L478.67 315.801
L479.117 315.549
L479.563 316.926
L480.456 318.422
L481.349 318.636
L481.795 318.14
L482.242 318.029
L484.027 319.447
L484.474 320.921
L484.92 321.72
L485.366 322.276
L485.813 323.193
L486.706 321.767
L487.152 321.695
L487.598 320.476
L488.491 321.808
L488.938 321.674
L489.384 322.398
L489.83 323.423
L490.277 323.987
L490.723 323.487
L491.616 324.352
L492.062 323.922
L492.509 325.229
L492.955 325.454
L493.402 325.899
L493.848 326.111
L494.294 327.354
L494.741 327.332
L495.187 327.586
L495.634 327.515
L496.08 328.995
L496.973 329.339
L497.419 328.802
L497.866 327.363
L498.758 328.449
L499.651 328.996
L500.098 329.829
L500.544 329.345
L500.99 330.68
L501.437 329.656
L501.883 330.656
L502.33 330.011
L502.776 330.773
L503.222 330.583
L503.669 329.885
L504.115 330.428
L504.562 331.431
L505.008 331.213
L505.454 330.14
L505.901 330.361
L506.794 331.387
L507.24 330.099
L507.686 329.48
L508.579 327.941
L509.026 327.811
L509.472 328.9
L509.918 327.429
L510.811 327.446
L511.258 328.014
L512.15 329.409
L512.597 328.402
L513.043 328.208
L513.49 328.713
L513.936 327.318
L514.382 326.861
L515.275 326.334
L516.168 327.462
L516.614 327.942
L517.061 328.063
L517.507 326.816
L517.954 326.811
L517.954 326.811" style="fill:none;stroke:#0000ff;"/>
   </g>
   <g id="line2d_2">
    <path clip-path="url(#p7ff5b81e1d)" d="
M72 339.429
L138.96 339.429
L140.299 327.218
L142.085 313.006
L144.317 297.249
L146.549 283.209
L148.781 270.567
L151.013 259.097
L153.245 248.627
L155.923 237.19
L158.602 226.805
L161.28 217.323
L163.958 208.624
L166.637 200.612
L169.762 192.026
L172.886 184.163
L176.011 176.937
L179.136 170.277
L182.261 164.126
L185.386 158.431
L188.51 153.151
L192.082 147.575
L195.653 142.442
L199.224 137.71
L202.795 133.341
L206.366 129.305
L209.938 125.571
L213.955 121.699
L217.973 118.146
L221.99 114.882
L226.008 111.881
L230.472 108.827
L234.936 106.041
L239.846 103.256
L244.757 100.735
L249.667 98.4513
L255.024 96.203
L260.827 94.0231
L266.63 92.0795
L272.88 90.2203
L279.576 88.4651
L286.718 86.8287
L294.307 85.3211
L302.342 83.9479
L311.27 82.6512
L321.091 81.4584
L331.805 80.3879
L343.858 79.4168
L357.25 78.5676
L362.16 78.3061
L363.499 90.4492
L365.285 104.574
L367.517 120.226
L369.749 134.166
L371.981 146.712
L374.213 158.089
L376.445 168.47
L379.123 179.806
L381.802 190.094
L384.48 199.484
L387.158 208.096
L389.837 216.025
L392.515 223.351
L395.64 231.225
L398.765 238.455
L401.89 245.113
L405.014 251.26
L408.139 256.948
L411.264 262.22
L414.835 267.784
L418.406 272.904
L421.978 277.623
L425.549 281.977
L429.12 285.999
L432.691 289.719
L436.709 293.575
L440.726 297.112
L444.744 300.362
L448.762 303.348
L453.226 306.387
L457.69 309.158
L462.6 311.928
L467.51 314.435
L472.421 316.706
L477.778 318.941
L483.581 321.107
L489.384 323.038
L495.634 324.885
L502.33 326.629
L509.472 328.254
L517.061 329.751
L517.954 329.913
L517.954 329.913" style="fill:none;stroke:#008000;"/>
   </g>
   <g id="matplotlib.axis_1">
    <g id="xtick_1">
     <g id="line2d_3">
      <defs>
       <path d="
M0 0
L0 -4" id="m0012dd4eef" style="stroke:#000000;stroke-linecap:butt;stroke-width:0.5;"/>
      </defs>
      <g>
       <use style="stroke:#000000;stroke-linecap:butt;stroke-width:0.5;" x="72.0" xlink:href="#m0012dd4eef" y="388.8"/>
      </g>
     </g>
     <g id="line2d_4">
      <defs>
       <path d="
M0 0
L0 4" id="m476344969c" style="stroke:#000000;stroke-linecap:butt;stroke-width:0.5;"/>
      </defs>
      <g>
       <use style="stroke:#000000;stroke-linecap:butt;stroke-width:0.5;" x="72.0" xlink:href="#m476344969c" y="43.2"/>
      </g>
     </g>
     <g id="text_1">
      <!-- 0 -->
      <defs>
       <path d="
M31.7812 66.4062
Q24.1719 66.4062 20.3281 58.9062
Q16.5 51.4219 16.5 36.375
Q16.5 21.3906 20.3281 13.8906
Q24.1719 6.39062 31.7812 6.39062
Q39.4531 6.39062 43.2812 13.8906
Q47.125 21.3906 47.125 36.375
Q47.125 51.4219 43.2812 58.9062
Q39.4531 66.4062 31.7812 66.4062
M31.7812 74.2188
Q44.0469 74.2188 50.5156 64.5156
Q56.9844 54.8281 56.9844 36.375
Q56.9844 17.9688 50.5156 8.26562
Q44.0469 -1.42188 31.7812 -1.42188
Q19.5312 -1.42188 13.0625 8.26562
Q6.59375 17.9688 6.59375 36.375
Q6.59375 54.8281 13.0625 64.5156
Q19.5312 74.2188 31.7812 74.2188" id="DejaVuSans-30"/>
      </defs>
      <g transform="translate(68.9765625 401.70625)scale(0.12 -0.12)">
       <use xlink:href="#DejaVuSans-30"/>
      </g>
     </g>
    </g>
    <g id="xtick_2">
     <g id="line2d_5">
      <g>
       <use style="stroke:#000000;stroke-linecap:butt;stroke-width:0.5;" x="161.28" xlink:href="#m0012dd4eef" y="388.8"/>
      </g>
     </g>
     <g id="line2d_6">
      <g>
       <use style="stroke:#000000;stroke-linecap:butt;stroke-width:0.5;" x="161.28" xlink:href="#m476344969c" y="43.2"/>
      </g>
     </g>
     <g id="text_2">
      <!-- 200 -->
      <defs>
       <path d="
M19.1875 8.29688
L53.6094 8.29688
L53.6094 0
L7.32812 0
L7.32812 8.29688
Q12.9375 14.1094 22.625 23.8906
Q32.3281 33.6875 34.8125 36.5312
Q39.5469 41.8438 41.4219 45.5312
Q43.3125 49.2188 43.3125 52.7812
Q43.3125 58.5938 39.2344 62.25
Q35.1562 65.9219 28.6094 65.9219
Q23.9688 65.9219 18.8125 64.3125
Q13.6719 62.7031 7.8125 59.4219
L7.8125 69.3906
Q13.7656 71.7812 18.9375 73
Q24.125 74.2188 28.4219 74.2188
Q39.75 74.2188 46.4844 68.5469
Q53.2188 62.8906 53.2188 53.4219
Q53.2188 48.9219 51.5312 44.8906
Q49.8594 40.875 45.4062 35.4062
Q44.1875 33.9844 37.6406 27.2188
Q31.1094 20.4531 19.1875 8.29688" id="DejaVuSans-32"/>
      </defs>
      <g transform="translate(150.665625 401.70625)scale(0.12 -0.12)">
       <use xlink:href="#DejaVuSans-32"/>
       <use x="63.623046875" xlink:href="#DejaVuSans-30"/>
       <use x="127.24609375" xlink:href="#DejaVuSans-30"/>
      </g>
     </g>
    </g>
    <g id="xtick_3">
     <g id="line2d_7">
      <g>
       <use style="stroke:#000000;stroke-linecap:butt;stroke-width:0.5;" x="250.56" xlink:href="#m0012dd4eef" y="388.8"/>
      </g>
     </g>
     <g id="line2d_8">
      <g>
       <use style="stroke:#000000;stroke-linecap:butt;stroke-width:0.5;" x="250.56" xlink:href="#m476344969c" y="43.2"/>
      </g>
     </g>
     <g id="text_3">
      <!-- 400 -->
      <defs>
       <path d="
M37.7969 64.3125
L12.8906 25.3906
L37.7969 25.3906
z

M35.2031 72.9062
L47.6094 72.9062
L47.6094 25.3906
L58.0156 25.3906
L58.0156 17.1875
L47.6094 17.1875
L47.6094 0
L37.7969 0
L37.7969 17.1875
L4.89062 17.1875
L4.89062 26.7031
z
" id="DejaVuSans-34"/>
      </defs>
      <g transform="translate(239.799375 401.70625)scale(0.12 -0.12)">
       <use xlink:href="#DejaVuSans-34"/>
       <use x="63.623046875" xlink:href="#DejaVuSans-30"/>
       <use x="127.24609375" xlink:href="#DejaVuSans-30"/>
      </g>
     </g>
    </g>
    <g id="xtick_4">
     <g id="line2d_9">
      <g>
       <use style="stroke:#000000;stroke-linecap:butt;stroke-width:0.5;" x="339.84" xlink:href="#m0012dd4eef" y="388.8"/>
      </g>
     </g>
     <g id="line2d_10">
      <g>
       <use style="stroke:#000000;stroke-linecap:butt;stroke-width:0.5;" x="339.84" xlink:href="#m476344969c" y="43.2"/>
      </g>
     </g>
     <g id="text_4">
      <!-- 600 -->
      <defs>
       <path d="
M33.0156 40.375
Q26.375 40.375 22.4844 35.8281
Q18.6094 31.2969 18.6094 23.3906
Q18.6094 15.5312 22.4844 10.9531
Q26.375 6.39062 33.0156 6.39062
Q39.6562 6.39062 43.5312 10.9531
Q47.4062 15.5312 47.4062 23.3906
Q47.4062 31.2969 43.5312 35.8281
Q39.6562 40.375 33.0156 40.375
M52.5938 71.2969
L52.5938 62.3125
Q48.875 64.0625 45.0938 64.9844
Q41.3125 65.9219 37.5938 65.9219
Q27.8281 65.9219 22.6719 59.3281
Q17.5312 52.7344 16.7969 39.4062
Q19.6719 43.6562 24.0156 45.9219
Q28.375 48.1875 33.5938 48.1875
Q44.5781 48.1875 50.9531 41.5156
Q57.3281 34.8594 57.3281 23.3906
Q57.3281 12.1562 50.6875 5.35938
Q44.0469 -1.42188 33.0156 -1.42188
Q20.3594 -1.42188 13.6719 8.26562
Q6.98438 17.9688 6.98438 36.375
Q6.98438 53.6562 15.1875 63.9375
Q23.3906 74.2188 37.2031 74.2188
Q40.9219 74.2188 44.7031 73.4844
Q48.4844 72.75 52.5938 71.2969" id="DejaVuSans-36"/>
      </defs>
      <g transform="translate(329.205 401.70625)scale(0.12 -0.12)">
       <use xlink:href="#DejaVuSans-36"/>
       <use x="63.623046875" xlink:href="#DejaVuSans-30"/>
       <use x="127.24609375" xlink:href="#DejaVuSans-30"/>
      </g>
     </g>
    </g>
    <g id="xtick_5">
     <g id="line2d_11">
      <g>
       <use style="stroke:#000000;stroke-linecap:butt;stroke-width:0.5;" x="429.12" xlink:href="#m0012dd4eef" y="388.8"/>
      </g>
     </g>
     <g id="line2d_12">
      <g>
       <use style="stroke:#000000;stroke-linecap:butt;stroke-width:0.5;" x="429.12" xlink:href="#m476344969c" y="43.2"/>
      </g>
     </g>
     <g id="text_5">
      <!-- 800 -->
      <defs>
       <path d="
M31.7812 34.625
Q24.75 34.625 20.7188 30.8594
Q16.7031 27.0938 16.7031 20.5156
Q16.7031 13.9219 20.7188 10.1562
Q24.75 6.39062 31.7812 6.39062
Q38.8125 6.39062 42.8594 10.1719
Q46.9219 13.9688 46.9219 20.5156
Q46.9219 27.0938 42.8906 30.8594
Q38.875 34.625 31.7812 34.625
M21.9219 38.8125
Q15.5781 40.375 12.0312 44.7188
Q8.5 49.0781 8.5 55.3281
Q8.5 64.0625 14.7188 69.1406
Q20.9531 74.2188 31.7812 74.2188
Q42.6719 74.2188 48.875 69.1406
Q55.0781 64.0625 55.0781 55.3281
Q55.0781 49.0781 51.5312 44.7188
Q48 40.375 41.7031 38.8125
Q48.8281 37.1562 52.7969 32.3125
Q56.7812 27.4844 56.7812 20.5156
Q56.7812 9.90625 50.3125 4.23438
Q43.8438 -1.42188 31.7812 -1.42188
Q19.7344 -1.42188 13.25 4.23438
Q6.78125 9.90625 6.78125 20.5156
Q6.78125 27.4844 10.7812 32.3125
Q14.7969 37.1562 21.9219 38.8125
M18.3125 54.3906
Q18.3125 48.7344 21.8438 45.5625
Q25.3906 42.3906 31.7812 42.3906
Q38.1406 42.3906 41.7188 45.5625
Q45.3125 48.7344 45.3125 54.3906
Q45.3125 60.0625 41.7188 63.2344
Q38.1406 66.4062 31.7812 66.4062
Q25.3906 66.4062 21.8438 63.2344
Q18.3125 60.0625 18.3125 54.3906" id="DejaVuSans-38"/>
      </defs>
      <g transform="translate(418.4728125 401.70625)scale(0.12 -0.12)">
       <use xlink:href="#DejaVuSans-38"/>
       <use x="63.623046875" xlink:href="#DejaVuSans-30"/>
       <use x="127.24609375" xlink:href="#DejaVuSans-30"/>
      </g>
     </g>
    </g>
    <g id="xtick_6">
     <g id="line2d_13">
      <g>
       <use style="stroke:#000000;stroke-linecap:butt;stroke-width:0.5;" x="518.4" xlink:href="#m0012dd4eef" y="388.8"/>
      </g>
     </g>
     <g id="line2d_14">
      <g>
       <use style="stroke:#000000;stroke-linecap:butt;stroke-width:0.5;" x="518.4" xlink:href="#m476344969c" y="43.2"/>
      </g>
     </g>
     <g id="text_6">
      <!-- 1000 -->
      <defs>
       <path d="
M12.4062 8.29688
L28.5156 8.29688
L28.5156 63.9219
L10.9844 60.4062
L10.9844 69.3906
L28.4219 72.9062
L38.2812 72.9062
L38.2812 8.29688
L54.3906 8.29688
L54.3906 0
L12.4062 0
z
" id="DejaVuSans-31"/>
      </defs>
      <g transform="translate(504.1875 401.70625)scale(0.12 -0.12)">
       <use xlink:href="#DejaVuSans-31"/>
       <use x="63.623046875" xlink:href="#DejaVuSans-30"/>
       <use x="127.24609375" xlink:href="#DejaVuSans-30"/>
       <use x="190.869140625" xlink:href="#DejaVuSans-30"/>
      </g>
     </g>
    </g>
    <g id="text_7">
     <!-- points -->
     <defs>
      <path d="
M30.6094 48.3906
Q23.3906 48.3906 19.1875 42.75
Q14.9844 37.1094 14.9844 27.2969
Q14.9844 17.4844 19.1562 11.8438
Q23.3438 6.20312 30.6094 6.20312
Q37.7969 6.20312 41.9844 11.8594
Q46.1875 17.5312 46.1875 27.2969
Q46.1875 37.0156 41.9844 42.7031
Q37.7969 48.3906 30.6094 48.3906
M30.6094 56
Q42.3281 56 49.0156 48.375
Q55.7188 40.7656 55.7188 27.2969
Q55.7188 13.875 49.0156 6.21875
Q42.3281 -1.42188 30.6094 -1.42188
Q18.8438 -1.42188 12.1719 6.21875
Q5.51562 13.875 5.51562 27.2969
Q5.51562 40.7656 12.1719 48.375
Q18.8438 56 30.6094 56" id="DejaVuSans-6f"/>
      <path d="
M54.8906 33.0156
L54.8906 0
L45.9062 0
L45.9062 32.7188
Q45.9062 40.4844 42.875 44.3281
Q39.8438 48.1875 33.7969 48.1875
Q26.5156 48.1875 22.3125 43.5469
Q18.1094 38.9219 18.1094 30.9062
L18.1094 0
L9.07812 0
L9.07812 54.6875
L18.1094 54.6875
L18.1094 46.1875
Q21.3438 51.125 25.7031 53.5625
Q30.0781 56 35.7969 56
Q45.2188 56 50.0469 50.1719
Q54.8906 44.3438 54.8906 33.0156" id="DejaVuSans-6e"/>
      <path d="
M9.42188 54.6875
L18.4062 54.6875
L18.4062 0
L9.42188 0
z

M9.42188 75.9844
L18.4062 75.9844
L18.4062 64.5938
L9.42188 64.5938
z
" id="DejaVuSans-69"/>
      <path d="
M18.3125 70.2188
L18.3125 54.6875
L36.8125 54.6875
L36.8125 47.7031
L18.3125 47.7031
L18.3125 18.0156
Q18.3125 11.3281 20.1406 9.42188
Q21.9688 7.51562 27.5938 7.51562
L36.8125 7.51562
L36.8125 0
L27.5938 0
Q17.1875 0 13.2344 3.875
Q9.28125 7.76562 9.28125 18.0156
L9.28125 47.7031
L2.6875 47.7031
L2.6875 54.6875
L9.28125 54.6875
L9.28125 70.2188
z
" id="DejaVuSans-74"/>
      <path d="
M18.1094 8.20312
L18.1094 -20.7969
L9.07812 -20.7969
L9.07812 54.6875
L18.1094 54.6875
L18.1094 46.3906
Q20.9531 51.2656 25.2656 53.625
Q29.5938 56 35.5938 56
Q45.5625 56 51.7812 48.0938
Q58.0156 40.1875 58.0156 27.2969
Q58.0156 14.4062 51.7812 6.48438
Q45.5625 -1.42188 35.5938 -1.42188
Q29.5938 -1.42188 25.2656 0.953125
Q20.9531 3.32812 18.1094 8.20312
M48.6875 27.2969
Q48.6875 37.2031 44.6094 42.8438
Q40.5312 48.4844 33.4062 48.4844
Q26.2656 48.4844 22.1875 42.8438
Q18.1094 37.2031 18.1094 27.2969
Q18.1094 17.3906 22.1875 11.75
Q26.2656 6.10938 33.4062 6.10938
Q40.5312 6.10938 44.6094 11.75
Q48.6875 17.3906 48.6875 27.2969" id="DejaVuSans-70"/>
      <path d="
M44.2812 53.0781
L44.2812 44.5781
Q40.4844 46.5312 36.375 47.5
Q32.2812 48.4844 27.875 48.4844
Q21.1875 48.4844 17.8438 46.4375
Q14.5 44.3906 14.5 40.2812
Q14.5 37.1562 16.8906 35.375
Q19.2812 33.5938 26.5156 31.9844
L29.5938 31.2969
Q39.1562 29.25 43.1875 25.5156
Q47.2188 21.7812 47.2188 15.0938
Q47.2188 7.46875 41.1875 3.01562
Q35.1562 -1.42188 24.6094 -1.42188
Q20.2188 -1.42188 15.4531 -0.5625
Q10.6875 0.296875 5.42188 2
L5.42188 11.2812
Q10.4062 8.6875 15.2344 7.39062
Q20.0625 6.10938 24.8125 6.10938
Q31.1562 6.10938 34.5625 8.28125
Q37.9844 10.4531 37.9844 14.4062
Q37.9844 18.0625 35.5156 20.0156
Q33.0625 21.9688 24.7031 23.7812
L21.5781 24.5156
Q13.2344 26.2656 9.51562 29.9062
Q5.8125 33.5469 5.8125 39.8906
Q5.8125 47.6094 11.2812 51.7969
Q16.75 56 26.8125 56
Q31.7812 56 36.1719 55.2656
Q40.5781 54.5469 44.2812 53.0781" id="DejaVuSans-73"/>
     </defs>
     <g transform="translate(277.6096875 415.995)scale(0.12 -0.12)">
      <use xlink:href="#DejaVuSans-70"/>
      <use x="63.4765625" xlink:href="#DejaVuSans-6f"/>
      <use x="124.658203125" xlink:href="#DejaVuSans-69"/>
      <use x="152.44140625" xlink:href="#DejaVuSans-6e"/>
      <use x="215.8203125" xlink:href="#DejaVuSans-74"/>
      <use x="255.029296875" xlink:href="#DejaVuSans-73"/>
     </g>
    </g>
   </g>
   <g id="matplotlib.axis_2">
    <g id="ytick_1">
     <g id="line2d_15">
      <defs>
       <path d="
M0 0
L4 0" id="me8a85f7bf6" style="stroke:#000000;stroke-linecap:butt;stroke-width:0.5;"/>
      </defs>
      <g>
       <use style="stroke:#000000;stroke-linecap:butt;stroke-width:0.5;" x="72.0" xlink:href="#me8a85f7bf6" y="388.8"/>
      </g>
     </g>
     <g id="line2d_16">
      <defs>
       <path d="
M0 0
L-4 0" id="m1a32005dea" style="stroke:#000000;stroke-linecap:butt;stroke-width:0.5;"/>
      </defs>
      <g>
       <use style="stroke:#000000;stroke-linecap:butt;stroke-width:0.5;" x="518.4" xlink:href="#m1a32005dea" y="388.8"/>
      </g>
     </g>
     <g id="text_8">
      <!-- −1 -->
      <defs>
       <path d="
M10.5938 35.5
L73.1875 35.5
L73.1875 27.2031
L10.5938 27.2031
z
" id="DejaVuSans-2212"/>
      </defs>
      <g transform="translate(52.68875 393.174375)scale(0.12 -0.12)">
       <use xlink:href="#DejaVuSans-2212"/>
       <use x="83.7890625" xlink:href="#DejaVuSans-31"/>
      </g>
     </g>
    </g>
    <g id="ytick_2">
     <g id="line2d_17">
      <g>
       <use style="stroke:#000000;stroke-linecap:butt;stroke-width:0.5;" x="72.0" xlink:href="#me8a85f7bf6" y="339.428571429"/>
      </g>
     </g>
     <g id="line2d_18">
      <g>
       <use style="stroke:#000000;stroke-linecap:butt;stroke-width:0.5;" x="518.4" xlink:href="#m1a32005dea" y="339.428571429"/>
      </g>
     </g>
     <g id="text_9">
      <!-- 0 -->
      <g transform="translate(61.953125 343.796383929)scale(0.12 -0.12)">
       <use xlink:href="#DejaVuSans-30"/>
      </g>
     </g>
    </g>
    <g id="ytick_3">
     <g id="line2d_19">
      <g>
       <use style="stroke:#000000;stroke-linecap:butt;stroke-width:0.5;" x="72.0" xlink:href="#me8a85f7bf6" y="290.057142857"/>
      </g>
     </g>
     <g id="line2d_20">
      <g>
       <use style="stroke:#000000;stroke-linecap:butt;stroke-width:0.5;" x="518.4" xlink:href="#m1a32005dea" y="290.057142857"/>
      </g>
     </g>
     <g id="text_10">
      <!-- 1 -->
      <g transform="translate(62.79125 294.431517857)scale(0.12 -0.12)">
       <use xlink:href="#DejaVuSans-31"/>
      </g>
     </g>
    </g>
    <g id="ytick_4">
     <g id="line2d_21">
      <g>
       <use style="stroke:#000000;stroke-linecap:butt;stroke-width:0.5;" x="72.0" xlink:href="#me8a85f7bf6" y="240.685714286"/>
      </g>
     </g>
     <g id="line2d_22">
      <g>
       <use style="stroke:#000000;stroke-linecap:butt;stroke-width:0.5;" x="518.4" xlink:href="#m1a32005dea" y="240.685714286"/>
      </g>
     </g>
     <g id="text_11">
      <!-- 2 -->
      <g transform="translate(62.44625 245.138839286)scale(0.12 -0.12)">
       <use xlink:href="#DejaVuSans-32"/>
      </g>
     </g>
    </g>
    <g id="ytick_5">
     <g id="line2d_23">
      <g>
       <use style="stroke:#000000;stroke-linecap:butt;stroke-width:0.5;" x="72.0" xlink:href="#me8a85f7bf6" y="191.314285714"/>
      </g>
     </g>
     <g id="line2d_24">
      <g>
       <use style="stroke:#000000;stroke-linecap:butt;stroke-width:0.5;" x="518.4" xlink:href="#m1a32005dea" y="191.314285714"/>
      </g>
     </g>
     <g id="text_12">
      <!-- 3 -->
      <defs>
       <path d="
M40.5781 39.3125
Q47.6562 37.7969 51.625 33
Q55.6094 28.2188 55.6094 21.1875
Q55.6094 10.4062 48.1875 4.48438
Q40.7656 -1.42188 27.0938 -1.42188
Q22.5156 -1.42188 17.6562 -0.515625
Q12.7969 0.390625 7.625 2.20312
L7.625 11.7188
Q11.7188 9.32812 16.5938 8.10938
Q21.4844 6.89062 26.8125 6.89062
Q36.0781 6.89062 40.9375 10.5469
Q45.7969 14.2031 45.7969 21.1875
Q45.7969 27.6406 41.2812 31.2656
Q36.7656 34.9062 28.7188 34.9062
L20.2188 34.9062
L20.2188 43.0156
L29.1094 43.0156
Q36.375 43.0156 40.2344 45.9219
Q44.0938 48.8281 44.0938 54.2969
Q44.0938 59.9062 40.1094 62.9062
Q36.1406 65.9219 28.7188 65.9219
Q24.6562 65.9219 20.0156 65.0312
Q15.375 64.1562 9.8125 62.3125
L9.8125 71.0938
Q15.4375 72.6562 20.3438 73.4375
Q25.25 74.2188 29.5938 74.2188
Q40.8281 74.2188 47.3594 69.1094
Q53.9062 64.0156 53.9062 55.3281
Q53.9062 49.2656 50.4375 45.0938
Q46.9688 40.9219 40.5781 39.3125" id="DejaVuSans-33"/>
      </defs>
      <g transform="translate(62.241875 195.682098214)scale(0.12 -0.12)">
       <use xlink:href="#DejaVuSans-33"/>
      </g>
     </g>
    </g>
    <g id="ytick_6">
     <g id="line2d_25">
      <g>
       <use style="stroke:#000000;stroke-linecap:butt;stroke-width:0.5;" x="72.0" xlink:href="#me8a85f7bf6" y="141.942857143"/>
      </g>
     </g>
     <g id="line2d_26">
      <g>
       <use style="stroke:#000000;stroke-linecap:butt;stroke-width:0.5;" x="518.4" xlink:href="#m1a32005dea" y="141.942857143"/>
      </g>
     </g>
     <g id="text_13">
      <!-- 4 -->
      <g transform="translate(61.625 146.317232143)scale(0.12 -0.12)">
       <use xlink:href="#DejaVuSans-34"/>
      </g>
     </g>
    </g>
    <g id="ytick_7">
     <g id="line2d_27">
      <g>
       <use style="stroke:#000000;stroke-linecap:butt;stroke-width:0.5;" x="72.0" xlink:href="#me8a85f7bf6" y="92.5714285714"/>
      </g>
     </g>
     <g id="line2d_28">
      <g>
       <use style="stroke:#000000;stroke-linecap:butt;stroke-width:0.5;" x="518.4" xlink:href="#m1a32005dea" y="92.5714285714"/>
      </g>
     </g>
     <g id="text_14">
      <!-- 5 -->
      <defs>
       <path d="
M10.7969 72.9062
L49.5156 72.9062
L49.5156 64.5938
L19.8281 64.5938
L19.8281 46.7344
Q21.9688 47.4688 24.1094 47.8281
Q26.2656 48.1875 28.4219 48.1875
Q40.625 48.1875 47.75 41.5
Q54.8906 34.8125 54.8906 23.3906
Q54.8906 11.625 47.5625 5.09375
Q40.2344 -1.42188 26.9062 -1.42188
Q22.3125 -1.42188 17.5469 -0.640625
Q12.7969 0.140625 7.71875 1.70312
L7.71875 11.625
Q12.1094 9.23438 16.7969 8.0625
Q21.4844 6.89062 26.7031 6.89062
Q35.1562 6.89062 40.0781 11.3281
Q45.0156 15.7656 45.0156 23.3906
Q45.0156 31 40.0781 35.4375
Q35.1562 39.8906 26.7031 39.8906
Q22.75 39.8906 18.8125 39.0156
Q14.8906 38.1406 10.7969 36.2812
z
" id="DejaVuSans-35"/>
      </defs>
      <g transform="translate(62.339375 96.8604910714)scale(0.12 -0.12)">
       <use xlink:href="#DejaVuSans-35"/>
      </g>
     </g>
    </g>
    <g id="ytick_8">
     <g id="line2d_29">
      <g>
       <use style="stroke:#000000;stroke-linecap:butt;stroke-width:0.5;" x="72.0" xlink:href="#me8a85f7bf6" y="43.2"/>
      </g>
     </g>
     <g id="line2d_30">
      <g>
       <use style="stroke:#000000;stroke-linecap:butt;stroke-width:0.5;" x="518.4" xlink:href="#m1a32005dea" y="43.2"/>
      </g>
     </g>
     <g id="text_15">
      <!-- 6 -->
      <g transform="translate(61.95875 47.5678125)scale(0.12 -0.12)">
       <use xlink:href="#DejaVuSans-36"/>
      </g>
     </g>
    </g>
    <g id="text_16">
     <!-- mV -->
     <defs>
      <path d="
M52 44.1875
Q55.375 50.25 60.0625 53.125
Q64.75 56 71.0938 56
Q79.6406 56 84.2812 50.0156
Q88.9219 44.0469 88.9219 33.0156
L88.9219 0
L79.8906 0
L79.8906 32.7188
Q79.8906 40.5781 77.0938 44.375
Q74.3125 48.1875 68.6094 48.1875
Q61.625 48.1875 57.5625 43.5469
Q53.5156 38.9219 53.5156 30.9062
L53.5156 0
L44.4844 0
L44.4844 32.7188
Q44.4844 40.625 41.7031 44.4062
Q38.9219 48.1875 33.1094 48.1875
Q26.2188 48.1875 22.1562 43.5312
Q18.1094 38.875 18.1094 30.9062
L18.1094 0
L9.07812 0
L9.07812 54.6875
L18.1094 54.6875
L18.1094 46.1875
Q21.1875 51.2188 25.4844 53.6094
Q29.7812 56 35.6875 56
Q41.6562 56 45.8281 52.9688
Q50 49.9531 52 44.1875" id="DejaVuSans-6d"/>
      <path d="
M28.6094 0
L0.78125 72.9062
L11.0781 72.9062
L34.1875 11.5312
L57.3281 72.9062
L67.5781 72.9062
L39.7969 0
z
" id="DejaVuSans-56"/>
     </defs>
     <g transform="translate(47.68875 225.354375)rotate(-90.0)scale(0.12 -0.12)">
      <use xlink:href="#DejaVuSans-6d"/>
      <use x="97.412109375" xlink:href="#DejaVuSans-56"/>
     </g>
    </g>
   </g>
   <g id="patch_3">
    <path d="
M72 43.2
L518.4 43.2" style="fill:none;stroke:#000000;"/>
   </g>
   <g id="patch_4">
    <path d="
M518.4 388.8
L518.4 43.2" style="fill:none;stroke:#000000;"/>
   </g>
   <g id="patch_5">
    <path d="
M72 388.8
L518.4 388.8" style="fill:none;stroke:#000000;"/>
   </g>
   <g id="patch_6">
    <path d="
M72 388.8
L72 43.2" style="fill:none;stroke:#000000;"/>
   </g>
   <g id="text_17">
    <!-- Base trace with noise added -->
    <defs>
     <path d="
M54.8906 33.0156
L54.8906 0
L45.9062 0
L45.9062 32.7188
Q45.9062 40.4844 42.875 44.3281
Q39.8438 48.1875 33.7969 48.1875
Q26.5156 48.1875 22.3125 43.5469
Q18.1094 38.9219 18.1094 30.9062
L18.1094 0
L9.07812 0
L9.07812 75.9844
L18.1094 75.9844
L18.1094 46.1875
Q21.3438 51.125 25.7031 53.5625
Q30.0781 56 35.7969 56
Q45.2188 56 50.0469 50.1719
Q54.8906 44.3438 54.8906 33.0156" id="DejaVuSans-68"/>
     <path d="
M34.2812 27.4844
Q23.3906 27.4844 19.1875 25
Q14.9844 22.5156 14.9844 16.5
Q14.9844 11.7188 18.1406 8.90625
Q21.2969 6.10938 26.7031 6.10938
Q34.1875 6.10938 38.7031 11.4062
Q43.2188 16.7031 43.2188 25.4844
L43.2188 27.4844
z

M52.2031 31.2031
L52.2031 0
L43.2188 0
L43.2188 8.29688
Q40.1406 3.32812 35.5469 0.953125
Q30.9531 -1.42188 24.3125 -1.42188
Q15.9219 -1.42188 10.9531 3.29688
Q6 8.01562 6 15.9219
Q6 25.1406 12.1719 29.8281
Q18.3594 34.5156 30.6094 34.5156
L43.2188 34.5156
L43.2188 35.4062
Q43.2188 41.6094 39.1406 45
Q35.0625 48.3906 27.6875 48.3906
Q23 48.3906 18.5469 47.2656
Q14.1094 46.1406 10.0156 43.8906
L10.0156 52.2031
Q14.9375 54.1094 19.5781 55.0469
Q24.2188 56 28.6094 56
Q40.4844 56 46.3438 49.8438
Q52.2031 43.7031 52.2031 31.2031" id="DejaVuSans-61"/>
     <path id="DejaVuSans-20"/>
     <path d="
M19.6719 34.8125
L19.6719 8.10938
L35.5 8.10938
Q43.4531 8.10938 47.2812 11.4062
Q51.125 14.7031 51.125 21.4844
Q51.125 28.3281 47.2812 31.5625
Q43.4531 34.8125 35.5 34.8125
z

M19.6719 64.7969
L19.6719 42.8281
L34.2812 42.8281
Q41.5 42.8281 45.0312 45.5312
Q48.5781 48.25 48.5781 53.8125
Q48.5781 59.3281 45.0312 62.0625
Q41.5 64.7969 34.2812 64.7969
z

M9.8125 72.9062
L35.0156 72.9062
Q46.2969 72.9062 52.3906 68.2188
Q58.5 63.5312 58.5 54.8906
Q58.5 48.1875 55.375 44.2344
Q52.25 40.2812 46.1875 39.3125
Q53.4688 37.75 57.5 32.7812
Q61.5312 27.8281 61.5312 20.4062
Q61.5312 10.6406 54.8906 5.3125
Q48.25 0 35.9844 0
L9.8125 0
z
" id="DejaVuSans-42"/>
     <path d="
M45.4062 46.3906
L45.4062 75.9844
L54.3906 75.9844
L54.3906 0
L45.4062 0
L45.4062 8.20312
Q42.5781 3.32812 38.25 0.953125
Q33.9375 -1.42188 27.875 -1.42188
Q17.9688 -1.42188 11.7344 6.48438
Q5.51562 14.4062 5.51562 27.2969
Q5.51562 40.1875 11.7344 48.0938
Q17.9688 56 27.875 56
Q33.9375 56 38.25 53.625
Q42.5781 51.2656 45.4062 46.3906
M14.7969 27.2969
Q14.7969 17.3906 18.875 11.75
Q22.9531 6.10938 30.0781 6.10938
Q37.2031 6.10938 41.2969 11.75
Q45.4062 17.3906 45.4062 27.2969
Q45.4062 37.2031 41.2969 42.8438
Q37.2031 48.4844 30.0781 48.4844
Q22.9531 48.4844 18.875 42.8438
Q14.7969 37.2031 14.7969 27.2969" id="DejaVuSans-64"/>
     <path d="
M4.20312 54.6875
L13.1875 54.6875
L24.4219 12.0156
L35.5938 54.6875
L46.1875 54.6875
L57.4219 12.0156
L68.6094 54.6875
L77.5938 54.6875
L63.2812 0
L52.6875 0
L40.9219 44.8281
L29.1094 0
L18.5 0
z
" id="DejaVuSans-77"/>
     <path d="
M56.2031 29.5938
L56.2031 25.2031
L14.8906 25.2031
Q15.4844 15.9219 20.4844 11.0625
Q25.4844 6.20312 34.4219 6.20312
Q39.5938 6.20312 44.4531 7.46875
Q49.3125 8.73438 54.1094 11.2812
L54.1094 2.78125
Q49.2656 0.734375 44.1875 -0.34375
Q39.1094 -1.42188 33.8906 -1.42188
Q20.7969 -1.42188 13.1562 6.1875
Q5.51562 13.8125 5.51562 26.8125
Q5.51562 40.2344 12.7656 48.1094
Q20.0156 56 32.3281 56
Q43.3594 56 49.7812 48.8906
Q56.2031 41.7969 56.2031 29.5938
M47.2188 32.2344
Q47.125 39.5938 43.0938 43.9844
Q39.0625 48.3906 32.4219 48.3906
Q24.9062 48.3906 20.3906 44.1406
Q15.875 39.8906 15.1875 32.1719
z
" id="DejaVuSans-65"/>
     <path d="
M48.7812 52.5938
L48.7812 44.1875
Q44.9688 46.2969 41.1406 47.3438
Q37.3125 48.3906 33.4062 48.3906
Q24.6562 48.3906 19.8125 42.8438
Q14.9844 37.3125 14.9844 27.2969
Q14.9844 17.2812 19.8125 11.7344
Q24.6562 6.20312 33.4062 6.20312
Q37.3125 6.20312 41.1406 7.25
Q44.9688 8.29688 48.7812 10.4062
L48.7812 2.09375
Q45.0156 0.34375 40.9844 -0.53125
Q36.9688 -1.42188 32.4219 -1.42188
Q20.0625 -1.42188 12.7812 6.34375
Q5.51562 14.1094 5.51562 27.2969
Q5.51562 40.6719 12.8594 48.3281
Q20.2188 56 33.0156 56
Q37.1562 56 41.1094 55.1406
Q45.0625 54.2969 48.7812 52.5938" id="DejaVuSans-63"/>
     <path d="
M41.1094 46.2969
Q39.5938 47.1719 37.8125 47.5781
Q36.0312 48 33.8906 48
Q26.2656 48 22.1875 43.0469
Q18.1094 38.0938 18.1094 28.8125
L18.1094 0
L9.07812 0
L9.07812 54.6875
L18.1094 54.6875
L18.1094 46.1875
Q20.9531 51.1719 25.4844 53.5781
Q30.0312 56 36.5312 56
Q37.4531 56 38.5781 55.875
Q39.7031 55.7656 41.0625 55.5156
z
" id="DejaVuSans-72"/>
    </defs>
    <g transform="translate(193.60575 38.2)scale(0.144 -0.144)">
     <use xlink:href="#DejaVuSans-42"/>
     <use x="68.603515625" xlink:href="#DejaVuSans-61"/>
     <use x="129.8828125" xlink:href="#DejaVuSans-73"/>
     <use x="181.982421875" xlink:href="#DejaVuSans-65"/>
     <use x="243.505859375" xlink:href="#DejaVuSans-20"/>
     <use x="275.29296875" xlink:href="#DejaVuSans-74"/>
     <use x="314.501953125" xlink:href="#DejaVuSans-72"/>
     <use x="355.615234375" xlink:href="#DejaVuSans-61"/>
     <use x="416.89453125" xlink:href="#DejaVuSans-63"/>
     <use x="471.875" xlink:href="#DejaVuSans-65"/>
     <use x="533.3984375" xlink:href="#DejaVuSans-20"/>
     <use x="565.185546875" xlink:href="#DejaVuSans-77"/>
     <use x="646.97265625" xlink:href="#DejaVuSans-69"/>
     <use x="674.755859375" xlink:href="#DejaVuSans-74"/>
     <use x="713.96484375" xlink:href="#DejaVuSans-68"/>
     <use x="777.34375" xlink:href="#DejaVuSans-20"/>
     <use x="809.130859375" xlink:href="#DejaVuSans-6e"/>
     <use x="872.509765625" xlink:href="#DejaVuSans-6f"/>
     <use x="933.69140625" xlink:href="#DejaVuSans-69"/>
     <use x="961.474609375" xlink:href="#DejaVuSans-73"/>
     <use x="1013.57421875" xlink:href="#DejaVuSans-65"/>
     <use x="1075.09765625" xlink:href="#DejaVuSans-20"/>
     <use x="1106.88476562" xlink:href="#DejaVuSans-61"/>
     <use x="1168.1640625" xlink:href="#DejaVuSans-64"/>
     <use x="1231.640625" xlink:href="#DejaVuSans-64"/>
     <use x="1295.1171875" xlink:href="#DejaVuSans-65"/>
     <use x="1356.640625" xlink:href="#DejaVuSans-64"/>
    </g>
   </g>
  </g>
 </g>
 <defs>
  <clipPath id="p7ff5b81e1d">
   <rect height="345.6" width="446.4" x="72.0" y="43.2"/>
  </clipPath>
 </defs>
</svg>
