<?xml version="1.0" encoding="utf-8" standalone="no"?>
<!DOCTYPE svg PUBLIC "-//W3C//DTD SVG 1.1//EN"
  "http://www.w3.org/Graphics/SVG/1.1/DTD/svg11.dtd">
<!-- Created with matplotlib (http://matplotlib.sourceforge.net/) -->
<svg height="432pt" version="1.1" viewBox="0 0 576 432" width="576pt" xmlns="http://www.w3.org/2000/svg" xmlns:xlink="http://www.w3.org/1999/xlink">
 <defs>
  <style type="text/css">
*{stroke-linecap:square;stroke-linejoin:round;}
  </style>
 </defs>
 <g id="figure_1">
  <g id="patch_1">
   <path d="
M0 432
L576 432
L576 0
L0 0
z
" style="fill:#ffffff;"/>
  </g>
  <g id="axes_1">
   <g id="patch_2">
    <path d="
M72 388.8
L518.4 388.8
L518.4 43.2
L72 43.2
z
" style="fill:#ffffff;"/>
   </g>
   <g id="line2d_1">
    <defs>
     <path d="
M0 1.5
C0.397805 1.5 0.77937 1.34195 1.06066 1.06066
C1.34195 0.77937 1.5 0.397805 1.5 0
C1.5 -0.397805 1.34195 -0.77937 1.06066 -1.06066
C0.77937 -1.34195 0.397805 -1.5 0 -1.5
C-0.397805 -1.5 -0.77937 -1.34195 -1.06066 -1.06066
C-1.34195 -0.77937 -1.5 -0.397805 -1.5 0
C-1.5 0.397805 -1.34195 0.77937 -1.06066 1.06066
C-0.77937 1.34195 -0.397805 1.5 0 1.5
z
" id="m78e0c95df6" style="stroke:#008000;stroke-linecap:butt;stroke-width:0.5;"/>
    </defs>
    <g clip-path="url(#p7ff5b81e1d)">
     <use style="fill:#008000;stroke:#008000;stroke-linecap:butt;stroke-width:0.5;" x="72.0" xlink:href="#m78e0c95df6" y="388.8"/>
     <use style="fill:#008000;stroke:#008000;stroke-linecap:butt;stroke-width:0.5;" x="76.5090909091" xlink:href="#m78e0c95df6" y="388.8"/>
     <use style="fill:#008000;stroke:#008000;stroke-linecap:butt;stroke-width:0.5;" x="81.0181818182" xlink:href="#m78e0c95df6" y="388.8"/>
     <use style="fill:#008000;stroke:#008000;stroke-linecap:butt;stroke-width:0.5;" x="85.5272727273" xlink:href="#m78e0c95df6" y="388.8"/>
     <use style="fill:#008000;stroke:#008000;stroke-linecap:butt;stroke-width:0.5;" x="90.0363636364" xlink:href="#m78e0c95df6" y="388.8"/>
     <use style="fill:#008000;stroke:#008000;stroke-linecap:butt;stroke-width:0.5;" x="94.5454545455" xlink:href="#m78e0c95df6" y="388.8"/>
     <use style="fill:#008000;stroke:#008000;stroke-linecap:butt;stroke-width:0.5;" x="99.0545454545" xlink:href="#m78e0c95df6" y="388.8"/>
     <use style="fill:#008000;stroke:#008000;stroke-linecap:butt;stroke-width:0.5;" x="103.563636364" xlink:href="#m78e0c95df6" y="388.799999999"/>
     <use style="fill:#008000;stroke:#008000;stroke-linecap:butt;stroke-width:0.5;" x="108.072727273" xlink:href="#m78e0c95df6" y="388.799999998"/>
     <use style="fill:#008000;stroke:#008000;stroke-linecap:butt;stroke-width:0.5;" x="112.581818182" xlink:href="#m78e0c95df6" y="388.799999992"/>
     <use style="fill:#008000;stroke:#008000;stroke-linecap:butt;stroke-width:0.5;" x="117.090909091" xlink:href="#m78e0c95df6" y="388.799999971"/>
     <use style="fill:#008000;stroke:#008000;stroke-linecap:butt;stroke-width:0.5;" x="121.6" xlink:href="#m78e0c95df6" y="388.799999899"/>
     <use style="fill:#008000;stroke:#008000;stroke-linecap:butt;stroke-width:0.5;" x="126.109090909" xlink:href="#m78e0c95df6" y="388.799999673"/>
     <use style="fill:#008000;stroke:#008000;stroke-linecap:butt;stroke-width:0.5;" x="130.618181818" xlink:href="#m78e0c95df6" y="388.799998992"/>
     <use style="fill:#008000;stroke:#008000;stroke-linecap:butt;stroke-width:0.5;" x="135.127272727" xlink:href="#m78e0c95df6" y="388.799997038"/>
     <use style="fill:#008000;stroke:#008000;stroke-linecap:butt;stroke-width:0.5;" x="139.636363636" xlink:href="#m78e0c95df6" y="388.799991684"/>
     <use style="fill:#008000;stroke:#008000;stroke-linecap:butt;stroke-width:0.5;" x="144.145454545" xlink:href="#m78e0c95df6" y="388.799977668"/>
     <use style="fill:#008000;stroke:#008000;stroke-linecap:butt;stroke-width:0.5;" x="148.654545455" xlink:href="#m78e0c95df6" y="388.799942525"/>
     <use style="fill:#008000;stroke:#008000;stroke-linecap:butt;stroke-width:0.5;" x="153.163636364" xlink:href="#m78e0c95df6" y="388.799857992"/>
     <use style="fill:#008000;stroke:#008000;stroke-linecap:butt;stroke-width:0.5;" x="157.672727273" xlink:href="#m78e0c95df6" y="388.799662629"/>
     <use style="fill:#008000;stroke:#008000;stroke-linecap:butt;stroke-width:0.5;" x="162.181818182" xlink:href="#m78e0c95df6" y="388.799228161"/>
     <use style="fill:#008000;stroke:#008000;stroke-linecap:butt;stroke-width:0.5;" x="166.690909091" xlink:href="#m78e0c95df6" y="388.79829708"/>
     <use style="fill:#008000;stroke:#008000;stroke-linecap:butt;stroke-width:0.5;" x="171.2" xlink:href="#m78e0c95df6" y="388.796371724"/>
     <use style="fill:#008000;stroke:#008000;stroke-linecap:butt;stroke-width:0.5;" x="175.709090909" xlink:href="#m78e0c95df6" y="388.792525107"/>
     <use style="fill:#008000;stroke:#008000;stroke-linecap:butt;stroke-width:0.5;" x="180.218181818" xlink:href="#m78e0c95df6" y="388.785091327"/>
     <use style="fill:#008000;stroke:#008000;stroke-linecap:butt;stroke-width:0.5;" x="184.727272727" xlink:href="#m78e0c95df6" y="388.771179199"/>
     <use style="fill:#008000;stroke:#008000;stroke-linecap:butt;stroke-width:0.5;" x="189.236363636" xlink:href="#m78e0c95df6" y="388.74593896"/>
     <use style="fill:#008000;stroke:#008000;stroke-linecap:butt;stroke-width:0.5;" x="193.745454545" xlink:href="#m78e0c95df6" y="388.701501796"/>
     <use style="fill:#008000;stroke:#008000;stroke-linecap:butt;stroke-width:0.5;" x="198.254545455" xlink:href="#m78e0c95df6" y="388.625510391"/>
     <use style="fill:#008000;stroke:#008000;stroke-linecap:butt;stroke-width:0.5;" x="202.763636364" xlink:href="#m78e0c95df6" y="388.499171631"/>
     <use style="fill:#008000;stroke:#008000;stroke-linecap:butt;stroke-width:0.5;" x="207.272727273" xlink:href="#m78e0c95df6" y="388.294796125"/>
     <use style="fill:#008000;stroke:#008000;stroke-linecap:butt;stroke-width:0.5;" x="211.781818182" xlink:href="#m78e0c95df6" y="387.972848299"/>
     <use style="fill:#008000;stroke:#008000;stroke-linecap:butt;stroke-width:0.5;" x="216.290909091" xlink:href="#m78e0c95df6" y="387.478617523"/>
     <use style="fill:#008000;stroke:#008000;stroke-linecap:butt;stroke-width:0.5;" x="220.8" xlink:href="#m78e0c95df6" y="386.738732289"/>
     <use style="fill:#008000;stroke:#008000;stroke-linecap:butt;stroke-width:0.5;" x="225.309090909" xlink:href="#m78e0c95df6" y="385.657866676"/>
     <use style="fill:#008000;stroke:#008000;stroke-linecap:butt;stroke-width:0.5;" x="229.818181818" xlink:href="#m78e0c95df6" y="384.116115411"/>
     <use style="fill:#008000;stroke:#008000;stroke-linecap:butt;stroke-width:0.5;" x="234.327272727" xlink:href="#m78e0c95df6" y="381.967618375"/>
     <use style="fill:#008000;stroke:#008000;stroke-linecap:butt;stroke-width:0.5;" x="238.836363636" xlink:href="#m78e0c95df6" y="379.041071856"/>
     <use style="fill:#008000;stroke:#008000;stroke-linecap:butt;stroke-width:0.5;" x="243.345454545" xlink:href="#m78e0c95df6" y="375.142746485"/>
     <use style="fill:#008000;stroke:#008000;stroke-linecap:butt;stroke-width:0.5;" x="247.854545455" xlink:href="#m78e0c95df6" y="370.062520657"/>
     <use style="fill:#008000;stroke:#008000;stroke-linecap:butt;stroke-width:0.5;" x="252.363636364" xlink:href="#m78e0c95df6" y="363.583223912"/>
     <use style="fill:#008000;stroke:#008000;stroke-linecap:butt;stroke-width:0.5;" x="256.872727273" xlink:href="#m78e0c95df6" y="355.493273005"/>
     <use style="fill:#008000;stroke:#008000;stroke-linecap:butt;stroke-width:0.5;" x="261.381818182" xlink:href="#m78e0c95df6" y="345.602197454"/>
     <use style="fill:#008000;stroke:#008000;stroke-linecap:butt;stroke-width:0.5;" x="265.890909091" xlink:href="#m78e0c95df6" y="333.758231385"/>
     <use style="fill:#008000;stroke:#008000;stroke-linecap:butt;stroke-width:0.5;" x="270.4" xlink:href="#m78e0c95df6" y="319.866747536"/>
     <use style="fill:#008000;stroke:#008000;stroke-linecap:butt;stroke-width:0.5;" x="274.909090909" xlink:href="#m78e0c95df6" y="303.907986607"/>
     <use style="fill:#008000;stroke:#008000;stroke-linecap:butt;stroke-width:0.5;" x="279.418181818" xlink:href="#m78e0c95df6" y="285.952346927"/>
     <use style="fill:#008000;stroke:#008000;stroke-linecap:butt;stroke-width:0.5;" x="283.927272727" xlink:href="#m78e0c95df6" y="266.171489587"/>
     <use style="fill:#008000;stroke:#008000;stroke-linecap:butt;stroke-width:0.5;" x="288.436363636" xlink:href="#m78e0c95df6" y="244.843705652"/>
     <use style="fill:#008000;stroke:#008000;stroke-linecap:butt;stroke-width:0.5;" x="292.945454545" xlink:href="#m78e0c95df6" y="222.352381683"/>
     <use style="fill:#008000;stroke:#008000;stroke-linecap:butt;stroke-width:0.5;" x="297.454545455" xlink:href="#m78e0c95df6" y="199.176956151"/>
     <use style="fill:#008000;stroke:#008000;stroke-linecap:butt;stroke-width:0.5;" x="301.963636364" xlink:href="#m78e0c95df6" y="175.876426581"/>
     <use style="fill:#008000;stroke:#008000;stroke-linecap:butt;stroke-width:0.5;" x="306.472727273" xlink:href="#m78e0c95df6" y="153.066171256"/>
     <use style="fill:#008000;stroke:#008000;stroke-linecap:butt;stroke-width:0.5;" x="310.981818182" xlink:href="#m78e0c95df6" y="131.38950848"/>
     <use style="fill:#008000;stroke:#008000;stroke-linecap:butt;stroke-width:0.5;" x="315.490909091" xlink:href="#m78e0c95df6" y="111.485952664"/>
     <use style="fill:#008000;stroke:#008000;stroke-linecap:butt;stroke-width:0.5;" x="320.0" xlink:href="#m78e0c95df6" y="93.9584764764"/>
     <use style="fill:#008000;stroke:#008000;stroke-linecap:butt;stroke-width:0.5;" x="324.509090909" xlink:href="#m78e0c95df6" y="79.3422116008"/>
     <use style="fill:#008000;stroke:#008000;stroke-linecap:butt;stroke-width:0.5;" x="329.018181818" xlink:href="#m78e0c95df6" y="68.0769053297"/>
     <use style="fill:#008000;stroke:#008000;stroke-linecap:butt;stroke-width:0.5;" x="333.527272727" xlink:href="#m78e0c95df6" y="60.485113241"/>
     <use style="fill:#008000;stroke:#008000;stroke-linecap:butt;stroke-width:0.5;" x="338.036363636" xlink:href="#m78e0c95df6" y="56.7575917712"/>
     <use style="fill:#008000;stroke:#008000;stroke-linecap:butt;stroke-width:0.5;" x="342.545454545" xlink:href="#m78e0c95df6" y="56.9467205719"/>
     <use style="fill:#008000;stroke:#008000;stroke-linecap:butt;stroke-width:0.5;" x="347.054545455" xlink:href="#m78e0c95df6" y="60.968104152"/>
     <use style="fill:#008000;stroke:#008000;stroke-linecap:butt;stroke-width:0.5;" x="351.563636364" xlink:href="#m78e0c95df6" y="68.6098474471"/>
     <use style="fill:#008000;stroke:#008000;stroke-linecap:butt;stroke-width:0.5;" x="356.072727273" xlink:href="#m78e0c95df6" y="79.5484343305"/>
     <use style="fill:#008000;stroke:#008000;stroke-linecap:butt;stroke-width:0.5;" x="360.581818182" xlink:href="#m78e0c95df6" y="93.3697099267"/>
     <use style="fill:#008000;stroke:#008000;stroke-linecap:butt;stroke-width:0.5;" x="365.090909091" xlink:href="#m78e0c95df6" y="109.59320582"/>
     <use style="fill:#008000;stroke:#008000;stroke-linecap:butt;stroke-width:0.5;" x="369.6" xlink:href="#m78e0c95df6" y="127.697960327"/>
     <use style="fill:#008000;stroke:#008000;stroke-linecap:butt;stroke-width:0.5;" x="374.109090909" xlink:href="#m78e0c95df6" y="147.148062829"/>
     <use style="fill:#008000;stroke:#008000;stroke-linecap:butt;stroke-width:0.5;" x="378.618181818" xlink:href="#m78e0c95df6" y="167.416365598"/>
     <use style="fill:#008000;stroke:#008000;stroke-linecap:butt;stroke-width:0.5;" x="383.127272727" xlink:href="#m78e0c95df6" y="188.005121266"/>
     <use style="fill:#008000;stroke:#008000;stroke-linecap:butt;stroke-width:0.5;" x="387.636363636" xlink:href="#m78e0c95df6" y="208.462677698"/>
     <use style="fill:#008000;stroke:#008000;stroke-linecap:butt;stroke-width:0.5;" x="392.145454545" xlink:href="#m78e0c95df6" y="228.395752529"/>
     <use style="fill:#008000;stroke:#008000;stroke-linecap:butt;stroke-width:0.5;" x="396.654545455" xlink:href="#m78e0c95df6" y="247.477180392"/>
     <use style="fill:#008000;stroke:#008000;stroke-linecap:butt;stroke-width:0.5;" x="401.163636364" xlink:href="#m78e0c95df6" y="265.449347959"/>
     <use style="fill:#008000;stroke:#008000;stroke-linecap:butt;stroke-width:0.5;" x="405.672727273" xlink:href="#m78e0c95df6" y="282.123785584"/>
     <use style="fill:#008000;stroke:#008000;stroke-linecap:butt;stroke-width:0.5;" x="410.181818182" xlink:href="#m78e0c95df6" y="297.377560175"/>
     <use style="fill:#008000;stroke:#008000;stroke-linecap:butt;stroke-width:0.5;" x="414.690909091" xlink:href="#m78e0c95df6" y="311.147211008"/>
     <use style="fill:#008000;stroke:#008000;stroke-linecap:butt;stroke-width:0.5;" x="419.2" xlink:href="#m78e0c95df6" y="323.420995208"/>
     <use style="fill:#008000;stroke:#008000;stroke-linecap:butt;stroke-width:0.5;" x="423.709090909" xlink:href="#m78e0c95df6" y="334.230174461"/>
     <use style="fill:#008000;stroke:#008000;stroke-linecap:butt;stroke-width:0.5;" x="428.218181818" xlink:href="#m78e0c95df6" y="343.639993752"/>
     <use style="fill:#008000;stroke:#008000;stroke-linecap:butt;stroke-width:0.5;" x="432.727272727" xlink:href="#m78e0c95df6" y="351.740892619"/>
     <use style="fill:#008000;stroke:#008000;stroke-linecap:butt;stroke-width:0.5;" x="437.236363636" xlink:href="#m78e0c95df6" y="358.640364137"/>
     <use style="fill:#008000;stroke:#008000;stroke-linecap:butt;stroke-width:0.5;" x="441.745454545" xlink:href="#m78e0c95df6" y="364.455749858"/>
     <use style="fill:#008000;stroke:#008000;stroke-linecap:butt;stroke-width:0.5;" x="446.254545455" xlink:href="#m78e0c95df6" y="369.308140164"/>
     <use style="fill:#008000;stroke:#008000;stroke-linecap:butt;stroke-width:0.5;" x="450.763636364" xlink:href="#m78e0c95df6" y="373.317446147"/>
     <use style="fill:#008000;stroke:#008000;stroke-linecap:butt;stroke-width:0.5;" x="455.272727273" xlink:href="#m78e0c95df6" y="376.598625371"/>
     <use style="fill:#008000;stroke:#008000;stroke-linecap:butt;stroke-width:0.5;" x="459.781818182" xlink:href="#m78e0c95df6" y="379.258981132"/>
     <use style="fill:#008000;stroke:#008000;stroke-linecap:butt;stroke-width:0.5;" x="464.290909091" xlink:href="#m78e0c95df6" y="381.396412643"/>
     <use style="fill:#008000;stroke:#008000;stroke-linecap:butt;stroke-width:0.5;" x="468.8" xlink:href="#m78e0c95df6" y="383.098469757"/>
     <use style="fill:#008000;stroke:#008000;stroke-linecap:butt;stroke-width:0.5;" x="473.309090909" xlink:href="#m78e0c95df6" y="384.442057478"/>
     <use style="fill:#008000;stroke:#008000;stroke-linecap:butt;stroke-width:0.5;" x="477.818181818" xlink:href="#m78e0c95df6" y="385.493639117"/>
     <use style="fill:#008000;stroke:#008000;stroke-linecap:butt;stroke-width:0.5;" x="482.327272727" xlink:href="#m78e0c95df6" y="386.309799069"/>
     <use style="fill:#008000;stroke:#008000;stroke-linecap:butt;stroke-width:0.5;" x="486.836363636" xlink:href="#m78e0c95df6" y="386.93804371"/>
     <use style="fill:#008000;stroke:#008000;stroke-linecap:butt;stroke-width:0.5;" x="491.345454545" xlink:href="#m78e0c95df6" y="387.417739093"/>
     <use style="fill:#008000;stroke:#008000;stroke-linecap:butt;stroke-width:0.5;" x="495.854545455" xlink:href="#m78e0c95df6" y="387.781104855"/>
     <use style="fill:#008000;stroke:#008000;stroke-linecap:butt;stroke-width:0.5;" x="500.363636364" xlink:href="#m78e0c95df6" y="388.054203457"/>
     <use style="fill:#008000;stroke:#008000;stroke-linecap:butt;stroke-width:0.5;" x="504.872727273" xlink:href="#m78e0c95df6" y="388.25788156"/>
     <use style="fill:#008000;stroke:#008000;stroke-linecap:butt;stroke-width:0.5;" x="509.381818182" xlink:href="#m78e0c95df6" y="388.408635379"/>
     <use style="fill:#008000;stroke:#008000;stroke-linecap:butt;stroke-width:0.5;" x="513.890909091" xlink:href="#m78e0c95df6" y="388.519384098"/>
     <use style="fill:#008000;stroke:#008000;stroke-linecap:butt;stroke-width:0.5;" x="518.4" xlink:href="#m78e0c95df6" y="388.60014489"/>
    </g>
   </g>
   <g id="matplotlib.axis_1">
    <g id="xtick_1">
     <g id="line2d_2">
      <defs>
       <path d="
M0 0
L0 -4" id="m0012dd4eef" style="stroke:#000000;stroke-linecap:butt;stroke-width:0.5;"/>
      </defs>
      <g>
       <use style="stroke:#000000;stroke-linecap:butt;stroke-width:0.5;" x="72.0" xlink:href="#m0012dd4eef" y="388.8"/>
      </g>
     </g>
     <g id="line2d_3">
      <defs>
       <path d="
M0 0
L0 4" id="m476344969c" style="stroke:#000000;stroke-linecap:butt;stroke-width:0.5;"/>
      </defs>
      <g>
       <use style="stroke:#000000;stroke-linecap:butt;stroke-width:0.5;" x="72.0" xlink:href="#m476344969c" y="43.2"/>
      </g>
     </g>
     <g id="text_1">
      <!-- 100 -->
      <defs>
       <path d="
M12.4062 8.29688
L28.5156 8.29688
L28.5156 63.9219
L10.9844 60.4062
L10.9844 69.3906
L28.4219 72.9062
L38.2812 72.9062
L38.2812 8.29688
L54.3906 8.29688
L54.3906 0
L12.4062 0
z
" id="DejaVuSans-31"/>
       <path d="
M31.7812 66.4062
Q24.1719 66.4062 20.3281 58.9062
Q16.5 51.4219 16.5 36.375
Q16.5 21.3906 20.3281 13.8906
Q24.1719 6.39062 31.7812 6.39062
Q39.4531 6.39062 43.2812 13.8906
Q47.125 21.3906 47.125 36.375
Q47.125 51.4219 43.2812 58.9062
Q39.4531 66.4062 31.7812 66.4062
M31.7812 74.2188
Q44.0469 74.2188 50.5156 64.5156
Q56.9844 54.8281 56.9844 36.375
Q56.9844 17.9688 50.5156 8.26562
Q44.0469 -1.42188 31.7812 -1.42188
Q19.5312 -1.42188 13.0625 8.26562
Q6.59375 17.9688 6.59375 36.375
Q6.59375 54.8281 13.0625 64.5156
Q19.5312 74.2188 31.7812 74.2188" id="DejaVuSans-30"/>
      </defs>
      <g transform="translate(61.605 401.70625)scale(0.12 -0.12)">
       <use xlink:href="#DejaVuSans-31"/>
       <use x="63.623046875" xlink:href="#DejaVuSans-30"/>
       <use x="127.24609375" xlink:href="#DejaVuSans-30"/>
      </g>
     </g>
    </g>
    <g id="xtick_2">
     <g id="line2d_4">
      <g>
       <use style="stroke:#000000;stroke-linecap:butt;stroke-width:0.5;" x="183.6" xlink:href="#m0012dd4eef" y="388.8"/>
      </g>
     </g>
     <g id="line2d_5">
      <g>
       <use style="stroke:#000000;stroke-linecap:butt;stroke-width:0.5;" x="183.6" xlink:href="#m476344969c" y="43.2"/>
      </g>
     </g>
     <g id="text_2">
      <!-- 150 -->
      <defs>
       <path d="
M10.7969 72.9062
L49.5156 72.9062
L49.5156 64.5938
L19.8281 64.5938
L19.8281 46.7344
Q21.9688 47.4688 24.1094 47.8281
Q26.2656 48.1875 28.4219 48.1875
Q40.625 48.1875 47.75 41.5
Q54.8906 34.8125 54.8906 23.3906
Q54.8906 11.625 47.5625 5.09375
Q40.2344 -1.42188 26.9062 -1.42188
Q22.3125 -1.42188 17.5469 -0.640625
Q12.7969 0.140625 7.71875 1.70312
L7.71875 11.625
Q12.1094 9.23438 16.7969 8.0625
Q21.4844 6.89062 26.7031 6.89062
Q35.1562 6.89062 40.0781 11.3281
Q45.0156 15.7656 45.0156 23.3906
Q45.0156 31 40.0781 35.4375
Q35.1562 39.8906 26.7031 39.8906
Q22.75 39.8906 18.8125 39.0156
Q14.8906 38.1406 10.7969 36.2812
z
" id="DejaVuSans-35"/>
      </defs>
      <g transform="translate(173.205 401.70625)scale(0.12 -0.12)">
       <use xlink:href="#DejaVuSans-31"/>
       <use x="63.623046875" xlink:href="#DejaVuSans-35"/>
       <use x="127.24609375" xlink:href="#DejaVuSans-30"/>
      </g>
     </g>
    </g>
    <g id="xtick_3">
     <g id="line2d_6">
      <g>
       <use style="stroke:#000000;stroke-linecap:butt;stroke-width:0.5;" x="295.2" xlink:href="#m0012dd4eef" y="388.8"/>
      </g>
     </g>
     <g id="line2d_7">
      <g>
       <use style="stroke:#000000;stroke-linecap:butt;stroke-width:0.5;" x="295.2" xlink:href="#m476344969c" y="43.2"/>
      </g>
     </g>
     <g id="text_3">
      <!-- 200 -->
      <defs>
       <path d="
M19.1875 8.29688
L53.6094 8.29688
L53.6094 0
L7.32812 0
L7.32812 8.29688
Q12.9375 14.1094 22.625 23.8906
Q32.3281 33.6875 34.8125 36.5312
Q39.5469 41.8438 41.4219 45.5312
Q43.3125 49.2188 43.3125 52.7812
Q43.3125 58.5938 39.2344 62.25
Q35.1562 65.9219 28.6094 65.9219
Q23.9688 65.9219 18.8125 64.3125
Q13.6719 62.7031 7.8125 59.4219
L7.8125 69.3906
Q13.7656 71.7812 18.9375 73
Q24.125 74.2188 28.4219 74.2188
Q39.75 74.2188 46.4844 68.5469
Q53.2188 62.8906 53.2188 53.4219
Q53.2188 48.9219 51.5312 44.8906
Q49.8594 40.875 45.4062 35.4062
Q44.1875 33.9844 37.6406 27.2188
Q31.1094 20.4531 19.1875 8.29688" id="DejaVuSans-32"/>
      </defs>
      <g transform="translate(284.585625 401.70625)scale(0.12 -0.12)">
       <use xlink:href="#DejaVuSans-32"/>
       <use x="63.623046875" xlink:href="#DejaVuSans-30"/>
       <use x="127.24609375" xlink:href="#DejaVuSans-30"/>
      </g>
     </g>
    </g>
    <g id="xtick_4">
     <g id="line2d_8">
      <g>
       <use style="stroke:#000000;stroke-linecap:butt;stroke-width:0.5;" x="406.8" xlink:href="#m0012dd4eef" y="388.8"/>
      </g>
     </g>
     <g id="line2d_9">
      <g>
       <use style="stroke:#000000;stroke-linecap:butt;stroke-width:0.5;" x="406.8" xlink:href="#m476344969c" y="43.2"/>
      </g>
     </g>
     <g id="text_4">
      <!-- 250 -->
      <g transform="translate(396.185625 401.70625)scale(0.12 -0.12)">
       <use xlink:href="#DejaVuSans-32"/>
       <use x="63.623046875" xlink:href="#DejaVuSans-35"/>
       <use x="127.24609375" xlink:href="#DejaVuSans-30"/>
      </g>
     </g>
    </g>
    <g id="xtick_5">
     <g id="line2d_10">
      <g>
       <use style="stroke:#000000;stroke-linecap:butt;stroke-width:0.5;" x="518.4" xlink:href="#m0012dd4eef" y="388.8"/>
      </g>
     </g>
     <g id="line2d_11">
      <g>
       <use style="stroke:#000000;stroke-linecap:butt;stroke-width:0.5;" x="518.4" xlink:href="#m476344969c" y="43.2"/>
      </g>
     </g>
     <g id="text_5">
      <!-- 300 -->
      <defs>
       <path d="
M40.5781 39.3125
Q47.6562 37.7969 51.625 33
Q55.6094 28.2188 55.6094 21.1875
Q55.6094 10.4062 48.1875 4.48438
Q40.7656 -1.42188 27.0938 -1.42188
Q22.5156 -1.42188 17.6562 -0.515625
Q12.7969 0.390625 7.625 2.20312
L7.625 11.7188
Q11.7188 9.32812 16.5938 8.10938
Q21.4844 6.89062 26.8125 6.89062
Q36.0781 6.89062 40.9375 10.5469
Q45.7969 14.2031 45.7969 21.1875
Q45.7969 27.6406 41.2812 31.2656
Q36.7656 34.9062 28.7188 34.9062
L20.2188 34.9062
L20.2188 43.0156
L29.1094 43.0156
Q36.375 43.0156 40.2344 45.9219
Q44.0938 48.8281 44.0938 54.2969
Q44.0938 59.9062 40.1094 62.9062
Q36.1406 65.9219 28.7188 65.9219
Q24.6562 65.9219 20.0156 65.0312
Q15.375 64.1562 9.8125 62.3125
L9.8125 71.0938
Q15.4375 72.6562 20.3438 73.4375
Q25.25 74.2188 29.5938 74.2188
Q40.8281 74.2188 47.3594 69.1094
Q53.9062 64.0156 53.9062 55.3281
Q53.9062 49.2656 50.4375 45.0938
Q46.9688 40.9219 40.5781 39.3125" id="DejaVuSans-33"/>
      </defs>
      <g transform="translate(507.8034375 401.70625)scale(0.12 -0.12)">
       <use xlink:href="#DejaVuSans-33"/>
       <use x="63.623046875" xlink:href="#DejaVuSans-30"/>
       <use x="127.24609375" xlink:href="#DejaVuSans-30"/>
      </g>
     </g>
    </g>
    <g id="text_6">
     <!-- parameter values -->
     <defs>
      <path d="
M2.98438 54.6875
L12.5 54.6875
L29.5938 8.79688
L46.6875 54.6875
L56.2031 54.6875
L35.6875 0
L23.4844 0
z
" id="DejaVuSans-76"/>
      <path d="
M52 44.1875
Q55.375 50.25 60.0625 53.125
Q64.75 56 71.0938 56
Q79.6406 56 84.2812 50.0156
Q88.9219 44.0469 88.9219 33.0156
L88.9219 0
L79.8906 0
L79.8906 32.7188
Q79.8906 40.5781 77.0938 44.375
Q74.3125 48.1875 68.6094 48.1875
Q61.625 48.1875 57.5625 43.5469
Q53.5156 38.9219 53.5156 30.9062
L53.5156 0
L44.4844 0
L44.4844 32.7188
Q44.4844 40.625 41.7031 44.4062
Q38.9219 48.1875 33.1094 48.1875
Q26.2188 48.1875 22.1562 43.5312
Q18.1094 38.875 18.1094 30.9062
L18.1094 0
L9.07812 0
L9.07812 54.6875
L18.1094 54.6875
L18.1094 46.1875
Q21.1875 51.2188 25.4844 53.6094
Q29.7812 56 35.6875 56
Q41.6562 56 45.8281 52.9688
Q50 49.9531 52 44.1875" id="DejaVuSans-6d"/>
      <path d="
M34.2812 27.4844
Q23.3906 27.4844 19.1875 25
Q14.9844 22.5156 14.9844 16.5
Q14.9844 11.7188 18.1406 8.90625
Q21.2969 6.10938 26.7031 6.10938
Q34.1875 6.10938 38.7031 11.4062
Q43.2188 16.7031 43.2188 25.4844
L43.2188 27.4844
z

M52.2031 31.2031
L52.2031 0
L43.2188 0
L43.2188 8.29688
Q40.1406 3.32812 35.5469 0.953125
Q30.9531 -1.42188 24.3125 -1.42188
Q15.9219 -1.42188 10.9531 3.29688
Q6 8.01562 6 15.9219
Q6 25.1406 12.1719 29.8281
Q18.3594 34.5156 30.6094 34.5156
L43.2188 34.5156
L43.2188 35.4062
Q43.2188 41.6094 39.1406 45
Q35.0625 48.3906 27.6875 48.3906
Q23 48.3906 18.5469 47.2656
Q14.1094 46.1406 10.0156 43.8906
L10.0156 52.2031
Q14.9375 54.1094 19.5781 55.0469
Q24.2188 56 28.6094 56
Q40.4844 56 46.3438 49.8438
Q52.2031 43.7031 52.2031 31.2031" id="DejaVuSans-61"/>
      <path d="
M9.42188 75.9844
L18.4062 75.9844
L18.4062 0
L9.42188 0
z
" id="DejaVuSans-6c"/>
      <path id="DejaVuSans-20"/>
      <path d="
M8.5 21.5781
L8.5 54.6875
L17.4844 54.6875
L17.4844 21.9219
Q17.4844 14.1562 20.5 10.2656
Q23.5312 6.39062 29.5938 6.39062
Q36.8594 6.39062 41.0781 11.0312
Q45.3125 15.6719 45.3125 23.6875
L45.3125 54.6875
L54.2969 54.6875
L54.2969 0
L45.3125 0
L45.3125 8.40625
Q42.0469 3.42188 37.7188 1
Q33.4062 -1.42188 27.6875 -1.42188
Q18.2656 -1.42188 13.375 4.4375
Q8.5 10.2969 8.5 21.5781
M31.1094 56
z
" id="DejaVuSans-75"/>
      <path d="
M18.3125 70.2188
L18.3125 54.6875
L36.8125 54.6875
L36.8125 47.7031
L18.3125 47.7031
L18.3125 18.0156
Q18.3125 11.3281 20.1406 9.42188
Q21.9688 7.51562 27.5938 7.51562
L36.8125 7.51562
L36.8125 0
L27.5938 0
Q17.1875 0 13.2344 3.875
Q9.28125 7.76562 9.28125 18.0156
L9.28125 47.7031
L2.6875 47.7031
L2.6875 54.6875
L9.28125 54.6875
L9.28125 70.2188
z
" id="DejaVuSans-74"/>
      <path d="
M56.2031 29.5938
L56.2031 25.2031
L14.8906 25.2031
Q15.4844 15.9219 20.4844 11.0625
Q25.4844 6.20312 34.4219 6.20312
Q39.5938 6.20312 44.4531 7.46875
Q49.3125 8.73438 54.1094 11.2812
L54.1094 2.78125
Q49.2656 0.734375 44.1875 -0.34375
Q39.1094 -1.42188 33.8906 -1.42188
Q20.7969 -1.42188 13.1562 6.1875
Q5.51562 13.8125 5.51562 26.8125
Q5.51562 40.2344 12.7656 48.1094
Q20.0156 56 32.3281 56
Q43.3594 56 49.7812 48.8906
Q56.2031 41.7969 56.2031 29.5938
M47.2188 32.2344
Q47.125 39.5938 43.0938 43.9844
Q39.0625 48.3906 32.4219 48.3906
Q24.9062 48.3906 20.3906 44.1406
Q15.875 39.8906 15.1875 32.1719
z
" id="DejaVuSans-65"/>
      <path d="
M18.1094 8.20312
L18.1094 -20.7969
L9.07812 -20.7969
L9.07812 54.6875
L18.1094 54.6875
L18.1094 46.3906
Q20.9531 51.2656 25.2656 53.625
Q29.5938 56 35.5938 56
Q45.5625 56 51.7812 48.0938
Q58.0156 40.1875 58.0156 27.2969
Q58.0156 14.4062 51.7812 6.48438
Q45.5625 -1.42188 35.5938 -1.42188
Q29.5938 -1.42188 25.2656 0.953125
Q20.9531 3.32812 18.1094 8.20312
M48.6875 27.2969
Q48.6875 37.2031 44.6094 42.8438
Q40.5312 48.4844 33.4062 48.4844
Q26.2656 48.4844 22.1875 42.8438
Q18.1094 37.2031 18.1094 27.2969
Q18.1094 17.3906 22.1875 11.75
Q26.2656 6.10938 33.4062 6.10938
Q40.5312 6.10938 44.6094 11.75
Q48.6875 17.3906 48.6875 27.2969" id="DejaVuSans-70"/>
      <path d="
M44.2812 53.0781
L44.2812 44.5781
Q40.4844 46.5312 36.375 47.5
Q32.2812 48.4844 27.875 48.4844
Q21.1875 48.4844 17.8438 46.4375
Q14.5 44.3906 14.5 40.2812
Q14.5 37.1562 16.8906 35.375
Q19.2812 33.5938 26.5156 31.9844
L29.5938 31.2969
Q39.1562 29.25 43.1875 25.5156
Q47.2188 21.7812 47.2188 15.0938
Q47.2188 7.46875 41.1875 3.01562
Q35.1562 -1.42188 24.6094 -1.42188
Q20.2188 -1.42188 15.4531 -0.5625
Q10.6875 0.296875 5.42188 2
L5.42188 11.2812
Q10.4062 8.6875 15.2344 7.39062
Q20.0625 6.10938 24.8125 6.10938
Q31.1562 6.10938 34.5625 8.28125
Q37.9844 10.4531 37.9844 14.4062
Q37.9844 18.0625 35.5156 20.0156
Q33.0625 21.9688 24.7031 23.7812
L21.5781 24.5156
Q13.2344 26.2656 9.51562 29.9062
Q5.8125 33.5469 5.8125 39.8906
Q5.8125 47.6094 11.2812 51.7969
Q16.75 56 26.8125 56
Q31.7812 56 36.1719 55.2656
Q40.5781 54.5469 44.2812 53.0781" id="DejaVuSans-73"/>
      <path d="
M41.1094 46.2969
Q39.5938 47.1719 37.8125 47.5781
Q36.0312 48 33.8906 48
Q26.2656 48 22.1875 43.0469
Q18.1094 38.0938 18.1094 28.8125
L18.1094 0
L9.07812 0
L9.07812 54.6875
L18.1094 54.6875
L18.1094 46.1875
Q20.9531 51.1719 25.4844 53.5781
Q30.0312 56 36.5312 56
Q37.4531 56 38.5781 55.875
Q39.7031 55.7656 41.0625 55.5156
z
" id="DejaVuSans-72"/>
     </defs>
     <g transform="translate(242.394375 415.995)scale(0.12 -0.12)">
      <use xlink:href="#DejaVuSans-70"/>
      <use x="63.4765625" xlink:href="#DejaVuSans-61"/>
      <use x="124.755859375" xlink:href="#DejaVuSans-72"/>
      <use x="165.869140625" xlink:href="#DejaVuSans-61"/>
      <use x="227.1484375" xlink:href="#DejaVuSans-6d"/>
      <use x="324.560546875" xlink:href="#DejaVuSans-65"/>
      <use x="386.083984375" xlink:href="#DejaVuSans-74"/>
      <use x="425.29296875" xlink:href="#DejaVuSans-65"/>
      <use x="486.81640625" xlink:href="#DejaVuSans-72"/>
      <use x="527.9296875" xlink:href="#DejaVuSans-20"/>
      <use x="559.716796875" xlink:href="#DejaVuSans-76"/>
      <use x="618.896484375" xlink:href="#DejaVuSans-61"/>
      <use x="680.17578125" xlink:href="#DejaVuSans-6c"/>
      <use x="707.958984375" xlink:href="#DejaVuSans-75"/>
      <use x="771.337890625" xlink:href="#DejaVuSans-65"/>
      <use x="832.861328125" xlink:href="#DejaVuSans-73"/>
     </g>
    </g>
   </g>
   <g id="matplotlib.axis_2">
    <g id="ytick_1">
     <g id="line2d_12">
      <defs>
       <path d="
M0 0
L4 0" id="me8a85f7bf6" style="stroke:#000000;stroke-linecap:butt;stroke-width:0.5;"/>
      </defs>
      <g>
       <use style="stroke:#000000;stroke-linecap:butt;stroke-width:0.5;" x="72.0" xlink:href="#me8a85f7bf6" y="388.8"/>
      </g>
     </g>
     <g id="line2d_13">
      <defs>
       <path d="
M0 0
L-4 0" id="m1a32005dea" style="stroke:#000000;stroke-linecap:butt;stroke-width:0.5;"/>
      </defs>
      <g>
       <use style="stroke:#000000;stroke-linecap:butt;stroke-width:0.5;" x="518.4" xlink:href="#m1a32005dea" y="388.8"/>
      </g>
     </g>
     <g id="text_7">
      <!-- 0.000 -->
      <defs>
       <path d="
M10.6875 12.4062
L21 12.4062
L21 0
L10.6875 0
z
" id="DejaVuSans-2e"/>
      </defs>
      <g transform="translate(35.234375 393.1678125)scale(0.12 -0.12)">
       <use xlink:href="#DejaVuSans-30"/>
       <use x="63.623046875" xlink:href="#DejaVuSans-2e"/>
       <use x="95.41015625" xlink:href="#DejaVuSans-30"/>
       <use x="159.033203125" xlink:href="#DejaVuSans-30"/>
       <use x="222.65625" xlink:href="#DejaVuSans-30"/>
      </g>
     </g>
    </g>
    <g id="ytick_2">
     <g id="line2d_14">
      <g>
       <use style="stroke:#000000;stroke-linecap:butt;stroke-width:0.5;" x="72.0" xlink:href="#me8a85f7bf6" y="350.4"/>
      </g>
     </g>
     <g id="line2d_15">
      <g>
       <use style="stroke:#000000;stroke-linecap:butt;stroke-width:0.5;" x="518.4" xlink:href="#m1a32005dea" y="350.4"/>
      </g>
     </g>
     <g id="text_8">
      <!-- 0.005 -->
      <g transform="translate(35.485625 354.7678125)scale(0.12 -0.12)">
       <use xlink:href="#DejaVuSans-30"/>
       <use x="63.623046875" xlink:href="#DejaVuSans-2e"/>
       <use x="95.41015625" xlink:href="#DejaVuSans-30"/>
       <use x="159.033203125" xlink:href="#DejaVuSans-30"/>
       <use x="222.65625" xlink:href="#DejaVuSans-35"/>
      </g>
     </g>
    </g>
    <g id="ytick_3">
     <g id="line2d_16">
      <g>
       <use style="stroke:#000000;stroke-linecap:butt;stroke-width:0.5;" x="72.0" xlink:href="#me8a85f7bf6" y="312.0"/>
      </g>
     </g>
     <g id="line2d_17">
      <g>
       <use style="stroke:#000000;stroke-linecap:butt;stroke-width:0.5;" x="518.4" xlink:href="#m1a32005dea" y="312.0"/>
      </g>
     </g>
     <g id="text_9">
      <!-- 0.010 -->
      <g transform="translate(35.234375 316.3678125)scale(0.12 -0.12)">
       <use xlink:href="#DejaVuSans-30"/>
       <use x="63.623046875" xlink:href="#DejaVuSans-2e"/>
       <use x="95.41015625" xlink:href="#DejaVuSans-30"/>
       <use x="159.033203125" xlink:href="#DejaVuSans-31"/>
       <use x="222.65625" xlink:href="#DejaVuSans-30"/>
      </g>
     </g>
    </g>
    <g id="ytick_4">
     <g id="line2d_18">
      <g>
       <use style="stroke:#000000;stroke-linecap:butt;stroke-width:0.5;" x="72.0" xlink:href="#me8a85f7bf6" y="273.6"/>
      </g>
     </g>
     <g id="line2d_19">
      <g>
       <use style="stroke:#000000;stroke-linecap:butt;stroke-width:0.5;" x="518.4" xlink:href="#m1a32005dea" y="273.6"/>
      </g>
     </g>
     <g id="text_10">
      <!-- 0.015 -->
      <g transform="translate(35.485625 277.9678125)scale(0.12 -0.12)">
       <use xlink:href="#DejaVuSans-30"/>
       <use x="63.623046875" xlink:href="#DejaVuSans-2e"/>
       <use x="95.41015625" xlink:href="#DejaVuSans-30"/>
       <use x="159.033203125" xlink:href="#DejaVuSans-31"/>
       <use x="222.65625" xlink:href="#DejaVuSans-35"/>
      </g>
     </g>
    </g>
    <g id="ytick_5">
     <g id="line2d_20">
      <g>
       <use style="stroke:#000000;stroke-linecap:butt;stroke-width:0.5;" x="72.0" xlink:href="#me8a85f7bf6" y="235.2"/>
      </g>
     </g>
     <g id="line2d_21">
      <g>
       <use style="stroke:#000000;stroke-linecap:butt;stroke-width:0.5;" x="518.4" xlink:href="#m1a32005dea" y="235.2"/>
      </g>
     </g>
     <g id="text_11">
      <!-- 0.020 -->
      <g transform="translate(35.234375 239.5678125)scale(0.12 -0.12)">
       <use xlink:href="#DejaVuSans-30"/>
       <use x="63.623046875" xlink:href="#DejaVuSans-2e"/>
       <use x="95.41015625" xlink:href="#DejaVuSans-30"/>
       <use x="159.033203125" xlink:href="#DejaVuSans-32"/>
       <use x="222.65625" xlink:href="#DejaVuSans-30"/>
      </g>
     </g>
    </g>
    <g id="ytick_6">
     <g id="line2d_22">
      <g>
       <use style="stroke:#000000;stroke-linecap:butt;stroke-width:0.5;" x="72.0" xlink:href="#me8a85f7bf6" y="196.8"/>
      </g>
     </g>
     <g id="line2d_23">
      <g>
       <use style="stroke:#000000;stroke-linecap:butt;stroke-width:0.5;" x="518.4" xlink:href="#m1a32005dea" y="196.8"/>
      </g>
     </g>
     <g id="text_12">
      <!-- 0.025 -->
      <g transform="translate(35.485625 201.1678125)scale(0.12 -0.12)">
       <use xlink:href="#DejaVuSans-30"/>
       <use x="63.623046875" xlink:href="#DejaVuSans-2e"/>
       <use x="95.41015625" xlink:href="#DejaVuSans-30"/>
       <use x="159.033203125" xlink:href="#DejaVuSans-32"/>
       <use x="222.65625" xlink:href="#DejaVuSans-35"/>
      </g>
     </g>
    </g>
    <g id="ytick_7">
     <g id="line2d_24">
      <g>
       <use style="stroke:#000000;stroke-linecap:butt;stroke-width:0.5;" x="72.0" xlink:href="#me8a85f7bf6" y="158.4"/>
      </g>
     </g>
     <g id="line2d_25">
      <g>
       <use style="stroke:#000000;stroke-linecap:butt;stroke-width:0.5;" x="518.4" xlink:href="#m1a32005dea" y="158.4"/>
      </g>
     </g>
     <g id="text_13">
      <!-- 0.030 -->
      <g transform="translate(35.234375 162.7678125)scale(0.12 -0.12)">
       <use xlink:href="#DejaVuSans-30"/>
       <use x="63.623046875" xlink:href="#DejaVuSans-2e"/>
       <use x="95.41015625" xlink:href="#DejaVuSans-30"/>
       <use x="159.033203125" xlink:href="#DejaVuSans-33"/>
       <use x="222.65625" xlink:href="#DejaVuSans-30"/>
      </g>
     </g>
    </g>
    <g id="ytick_8">
     <g id="line2d_26">
      <g>
       <use style="stroke:#000000;stroke-linecap:butt;stroke-width:0.5;" x="72.0" xlink:href="#me8a85f7bf6" y="120.0"/>
      </g>
     </g>
     <g id="line2d_27">
      <g>
       <use style="stroke:#000000;stroke-linecap:butt;stroke-width:0.5;" x="518.4" xlink:href="#m1a32005dea" y="120.0"/>
      </g>
     </g>
     <g id="text_14">
      <!-- 0.035 -->
      <g transform="translate(35.485625 124.3678125)scale(0.12 -0.12)">
       <use xlink:href="#DejaVuSans-30"/>
       <use x="63.623046875" xlink:href="#DejaVuSans-2e"/>
       <use x="95.41015625" xlink:href="#DejaVuSans-30"/>
       <use x="159.033203125" xlink:href="#DejaVuSans-33"/>
       <use x="222.65625" xlink:href="#DejaVuSans-35"/>
      </g>
     </g>
    </g>
    <g id="ytick_9">
     <g id="line2d_28">
      <g>
       <use style="stroke:#000000;stroke-linecap:butt;stroke-width:0.5;" x="72.0" xlink:href="#me8a85f7bf6" y="81.6"/>
      </g>
     </g>
     <g id="line2d_29">
      <g>
       <use style="stroke:#000000;stroke-linecap:butt;stroke-width:0.5;" x="518.4" xlink:href="#m1a32005dea" y="81.6"/>
      </g>
     </g>
     <g id="text_15">
      <!-- 0.040 -->
      <defs>
       <path d="
M37.7969 64.3125
L12.8906 25.3906
L37.7969 25.3906
z

M35.2031 72.9062
L47.6094 72.9062
L47.6094 25.3906
L58.0156 25.3906
L58.0156 17.1875
L47.6094 17.1875
L47.6094 0
L37.7969 0
L37.7969 17.1875
L4.89062 17.1875
L4.89062 26.7031
z
" id="DejaVuSans-34"/>
      </defs>
      <g transform="translate(35.234375 85.9678125)scale(0.12 -0.12)">
       <use xlink:href="#DejaVuSans-30"/>
       <use x="63.623046875" xlink:href="#DejaVuSans-2e"/>
       <use x="95.41015625" xlink:href="#DejaVuSans-30"/>
       <use x="159.033203125" xlink:href="#DejaVuSans-34"/>
       <use x="222.65625" xlink:href="#DejaVuSans-30"/>
      </g>
     </g>
    </g>
    <g id="ytick_10">
     <g id="line2d_30">
      <g>
       <use style="stroke:#000000;stroke-linecap:butt;stroke-width:0.5;" x="72.0" xlink:href="#me8a85f7bf6" y="43.2"/>
      </g>
     </g>
     <g id="line2d_31">
      <g>
       <use style="stroke:#000000;stroke-linecap:butt;stroke-width:0.5;" x="518.4" xlink:href="#m1a32005dea" y="43.2"/>
      </g>
     </g>
     <g id="text_16">
      <!-- 0.045 -->
      <g transform="translate(35.485625 47.5678125)scale(0.12 -0.12)">
       <use xlink:href="#DejaVuSans-30"/>
       <use x="63.623046875" xlink:href="#DejaVuSans-2e"/>
       <use x="95.41015625" xlink:href="#DejaVuSans-30"/>
       <use x="159.033203125" xlink:href="#DejaVuSans-34"/>
       <use x="222.65625" xlink:href="#DejaVuSans-35"/>
      </g>
     </g>
    </g>
    <g id="text_17">
     <!-- probability -->
     <defs>
      <path d="
M30.6094 48.3906
Q23.3906 48.3906 19.1875 42.75
Q14.9844 37.1094 14.9844 27.2969
Q14.9844 17.4844 19.1562 11.8438
Q23.3438 6.20312 30.6094 6.20312
Q37.7969 6.20312 41.9844 11.8594
Q46.1875 17.5312 46.1875 27.2969
Q46.1875 37.0156 41.9844 42.7031
Q37.7969 48.3906 30.6094 48.3906
M30.6094 56
Q42.3281 56 49.0156 48.375
Q55.7188 40.7656 55.7188 27.2969
Q55.7188 13.875 49.0156 6.21875
Q42.3281 -1.42188 30.6094 -1.42188
Q18.8438 -1.42188 12.1719 6.21875
Q5.51562 13.875 5.51562 27.2969
Q5.51562 40.7656 12.1719 48.375
Q18.8438 56 30.6094 56" id="DejaVuSans-6f"/>
      <path d="
M32.1719 -5.07812
Q28.375 -14.8438 24.75 -17.8125
Q21.1406 -20.7969 15.0938 -20.7969
L7.90625 -20.7969
L7.90625 -13.2812
L13.1875 -13.2812
Q16.8906 -13.2812 18.9375 -11.5156
Q21 -9.76562 23.4844 -3.21875
L25.0938 0.875
L2.98438 54.6875
L12.5 54.6875
L29.5938 11.9219
L46.6875 54.6875
L56.2031 54.6875
z
" id="DejaVuSans-79"/>
      <path d="
M48.6875 27.2969
Q48.6875 37.2031 44.6094 42.8438
Q40.5312 48.4844 33.4062 48.4844
Q26.2656 48.4844 22.1875 42.8438
Q18.1094 37.2031 18.1094 27.2969
Q18.1094 17.3906 22.1875 11.75
Q26.2656 6.10938 33.4062 6.10938
Q40.5312 6.10938 44.6094 11.75
Q48.6875 17.3906 48.6875 27.2969
M18.1094 46.3906
Q20.9531 51.2656 25.2656 53.625
Q29.5938 56 35.5938 56
Q45.5625 56 51.7812 48.0938
Q58.0156 40.1875 58.0156 27.2969
Q58.0156 14.4062 51.7812 6.48438
Q45.5625 -1.42188 35.5938 -1.42188
Q29.5938 -1.42188 25.2656 0.953125
Q20.9531 3.32812 18.1094 8.20312
L18.1094 0
L9.07812 0
L9.07812 75.9844
L18.1094 75.9844
z
" id="DejaVuSans-62"/>
      <path d="
M9.42188 54.6875
L18.4062 54.6875
L18.4062 0
L9.42188 0
z

M9.42188 75.9844
L18.4062 75.9844
L18.4062 64.5938
L9.42188 64.5938
z
" id="DejaVuSans-69"/>
     </defs>
     <g transform="translate(30.234375 244.7915625)rotate(-90.0)scale(0.12 -0.12)">
      <use xlink:href="#DejaVuSans-70"/>
      <use x="63.4765625" xlink:href="#DejaVuSans-72"/>
      <use x="102.33984375" xlink:href="#DejaVuSans-6f"/>
      <use x="163.521484375" xlink:href="#DejaVuSans-62"/>
      <use x="226.998046875" xlink:href="#DejaVuSans-61"/>
      <use x="288.27734375" xlink:href="#DejaVuSans-62"/>
      <use x="351.75390625" xlink:href="#DejaVuSans-69"/>
      <use x="379.537109375" xlink:href="#DejaVuSans-6c"/>
      <use x="407.3203125" xlink:href="#DejaVuSans-69"/>
      <use x="435.103515625" xlink:href="#DejaVuSans-74"/>
      <use x="474.3125" xlink:href="#DejaVuSans-79"/>
     </g>
    </g>
   </g>
   <g id="patch_3">
    <path d="
M72 43.2
L518.4 43.2" style="fill:none;stroke:#000000;"/>
   </g>
   <g id="patch_4">
    <path d="
M518.4 388.8
L518.4 43.2" style="fill:none;stroke:#000000;"/>
   </g>
   <g id="patch_5">
    <path d="
M72 388.8
L518.4 388.8" style="fill:none;stroke:#000000;"/>
   </g>
   <g id="patch_6">
    <path d="
M72 388.8
L72 43.2" style="fill:none;stroke:#000000;"/>
   </g>
   <g id="text_18">
    <!-- Probability distribution of Ra -->
    <defs>
     <path d="
M37.1094 75.9844
L37.1094 68.5
L28.5156 68.5
Q23.6875 68.5 21.7969 66.5469
Q19.9219 64.5938 19.9219 59.5156
L19.9219 54.6875
L34.7188 54.6875
L34.7188 47.7031
L19.9219 47.7031
L19.9219 0
L10.8906 0
L10.8906 47.7031
L2.29688 47.7031
L2.29688 54.6875
L10.8906 54.6875
L10.8906 58.5
Q10.8906 67.625 15.1406 71.7969
Q19.3906 75.9844 28.6094 75.9844
z
" id="DejaVuSans-66"/>
     <path d="
M44.3906 34.1875
Q47.5625 33.1094 50.5625 29.5938
Q53.5625 26.0781 56.5938 19.9219
L66.6094 0
L56 0
L46.6875 18.7031
Q43.0625 26.0312 39.6719 28.4219
Q36.2812 30.8125 30.4219 30.8125
L19.6719 30.8125
L19.6719 0
L9.8125 0
L9.8125 72.9062
L32.0781 72.9062
Q44.5781 72.9062 50.7344 67.6719
Q56.8906 62.4531 56.8906 51.9062
Q56.8906 45.0156 53.6875 40.4688
Q50.4844 35.9375 44.3906 34.1875
M19.6719 64.7969
L19.6719 38.9219
L32.0781 38.9219
Q39.2031 38.9219 42.8438 42.2188
Q46.4844 45.5156 46.4844 51.9062
Q46.4844 58.2969 42.8438 61.5469
Q39.2031 64.7969 32.0781 64.7969
z
" id="DejaVuSans-52"/>
     <path d="
M45.4062 46.3906
L45.4062 75.9844
L54.3906 75.9844
L54.3906 0
L45.4062 0
L45.4062 8.20312
Q42.5781 3.32812 38.25 0.953125
Q33.9375 -1.42188 27.875 -1.42188
Q17.9688 -1.42188 11.7344 6.48438
Q5.51562 14.4062 5.51562 27.2969
Q5.51562 40.1875 11.7344 48.0938
Q17.9688 56 27.875 56
Q33.9375 56 38.25 53.625
Q42.5781 51.2656 45.4062 46.3906
M14.7969 27.2969
Q14.7969 17.3906 18.875 11.75
Q22.9531 6.10938 30.0781 6.10938
Q37.2031 6.10938 41.2969 11.75
Q45.4062 17.3906 45.4062 27.2969
Q45.4062 37.2031 41.2969 42.8438
Q37.2031 48.4844 30.0781 48.4844
Q22.9531 48.4844 18.875 42.8438
Q14.7969 37.2031 14.7969 27.2969" id="DejaVuSans-64"/>
     <path d="
M19.6719 64.7969
L19.6719 37.4062
L32.0781 37.4062
Q38.9688 37.4062 42.7188 40.9688
Q46.4844 44.5312 46.4844 51.125
Q46.4844 57.6719 42.7188 61.2344
Q38.9688 64.7969 32.0781 64.7969
z

M9.8125 72.9062
L32.0781 72.9062
Q44.3438 72.9062 50.6094 67.3594
Q56.8906 61.8125 56.8906 51.125
Q56.8906 40.3281 50.6094 34.8125
Q44.3438 29.2969 32.0781 29.2969
L19.6719 29.2969
L19.6719 0
L9.8125 0
z
" id="DejaVuSans-50"/>
     <path d="
M54.8906 33.0156
L54.8906 0
L45.9062 0
L45.9062 32.7188
Q45.9062 40.4844 42.875 44.3281
Q39.8438 48.1875 33.7969 48.1875
Q26.5156 48.1875 22.3125 43.5469
Q18.1094 38.9219 18.1094 30.9062
L18.1094 0
L9.07812 0
L9.07812 54.6875
L18.1094 54.6875
L18.1094 46.1875
Q21.3438 51.125 25.7031 53.5625
Q30.0781 56 35.7969 56
Q45.2188 56 50.0469 50.1719
Q54.8906 44.3438 54.8906 33.0156" id="DejaVuSans-6e"/>
    </defs>
    <g transform="translate(193.708125 38.2)scale(0.144 -0.144)">
     <use xlink:href="#DejaVuSans-50"/>
     <use x="58.552734375" xlink:href="#DejaVuSans-72"/>
     <use x="97.416015625" xlink:href="#DejaVuSans-6f"/>
     <use x="158.59765625" xlink:href="#DejaVuSans-62"/>
     <use x="222.07421875" xlink:href="#DejaVuSans-61"/>
     <use x="283.353515625" xlink:href="#DejaVuSans-62"/>
     <use x="346.830078125" xlink:href="#DejaVuSans-69"/>
     <use x="374.61328125" xlink:href="#DejaVuSans-6c"/>
     <use x="402.396484375" xlink:href="#DejaVuSans-69"/>
     <use x="430.1796875" xlink:href="#DejaVuSans-74"/>
     <use x="469.388671875" xlink:href="#DejaVuSans-79"/>
     <use x="528.568359375" xlink:href="#DejaVuSans-20"/>
     <use x="560.35546875" xlink:href="#DejaVuSans-64"/>
     <use x="623.83203125" xlink:href="#DejaVuSans-69"/>
     <use x="651.615234375" xlink:href="#DejaVuSans-73"/>
     <use x="703.71484375" xlink:href="#DejaVuSans-74"/>
     <use x="742.923828125" xlink:href="#DejaVuSans-72"/>
     <use x="784.037109375" xlink:href="#DejaVuSans-69"/>
     <use x="811.8203125" xlink:href="#DejaVuSans-62"/>
     <use x="875.296875" xlink:href="#DejaVuSans-75"/>
     <use x="938.67578125" xlink:href="#DejaVuSans-74"/>
     <use x="977.884765625" xlink:href="#DejaVuSans-69"/>
     <use x="1005.66796875" xlink:href="#DejaVuSans-6f"/>
     <use x="1066.84960938" xlink:href="#DejaVuSans-6e"/>
     <use x="1130.22851562" xlink:href="#DejaVuSans-20"/>
     <use x="1162.015625" xlink:href="#DejaVuSans-6f"/>
     <use x="1223.19726562" xlink:href="#DejaVuSans-66"/>
     <use x="1258.40234375" xlink:href="#DejaVuSans-20"/>
     <use x="1290.18945312" xlink:href="#DejaVuSans-52"/>
     <use x="1357.421875" xlink:href="#DejaVuSans-61"/>
    </g>
   </g>
  </g>
 </g>
 <defs>
  <clipPath id="p7ff5b81e1d">
   <rect height="345.6" width="446.4" x="72.0" y="43.2"/>
  </clipPath>
 </defs>
</svg>
